<svg viewBox="0 0 801 551" xmlns="http://www.w3.org/2000/svg">
  <path d="m356.307 427.998-11.264 22.53h33.794l13.378 2.816 5.632 16.897-24.642 19.714-39.428-11.265-16.898-45.06zm135.181-39.429 22.531 11.266 56.325-22.53 25.516 12.728c1.766-9.771 2.653-19.69 2.646-29.627.03-21.205-3.971-42.228-11.772-61.957h-27.656l-22.529 56.325-61.959-39.427-84.487-61.959 56.325-39.427 50.692 16.896 32.218-6.757c-58.416-42.844-137.673-43.611-196.912-1.916l12.617 25.572 56.325 56.325h-39.428l-22.53 16.897 146.446 39.428-78.856 45.061-146.446-45.061c.014 77.28 52.446 144.701 127.337 163.76 74.893 19.053 153.164-15.115 190.113-82.987l-52.72-13.181 5.632 33.794-39.428 22.53-16.898-22.53-28.162 11.265 45.06-50.692z" fill="#88c0d0"/>
  <g fill="#434c5e">
    <path d="m588.157 399.061c-.296 1.224-.563 2.471-.872 3.695-1.036 3.944-2.197 7.809-3.542 11.646l-.084.219c-1.311 3.752-2.816 7.447-4.395 11.111-.527 1.21-1.126 2.393-1.689 3.59-.832 1.78-1.689 3.54-2.611 5.294l-48.315-12.081c-1.844-.46-3.794.043-5.18 1.331-1.395 1.288-2.05 3.188-1.741 5.06l4.985 29.931-31.697 18.109-13.919-18.552c-1.527-2.036-4.231-2.795-6.597-1.852l-6.006 2.407 29.205-32.858c.915-1.034 1.422-2.365 1.422-3.745v-24.678l14.384 7.217c1.43.718 3.112.788 4.605.197l53.983-21.601 19.346 9.661c-.402 1.949-.809 3.935-1.282 5.899m-321.752-45.842c.064-1.478.134-2.942.24-4.415.119-1.738.296-3.471.479-5.203.147-1.422.281-2.858.471-4.268.232-1.772.514-3.52.803-5.272.225-1.366.429-2.745.69-4.105.344-1.807.76-3.611 1.168-5.407.281-1.274.557-2.548.859-3.809.493-1.963 1.057-3.907 1.627-5.85.31-1.065.562-2.147.922-3.211.824-2.635 1.725-5.231 2.682-7.815.135-.353.24-.712.374-1.072 1.127-2.935 2.323-5.835 3.583-8.701.36-.816.775-1.612 1.155-2.415.936-2.036 1.894-4.062 2.915-6.055.521-1.014 1.127-1.998 1.647-2.998.944-1.753 1.894-3.507 2.908-5.218.634-1.072 1.303-2.106 1.958-3.161.999-1.613 2.013-3.225 3.069-4.802.719-1.064 1.471-2.114 2.218-3.162 1.07-1.515 2.14-3.027 3.267-4.506.788-1.05 1.612-2.076 2.436-3.098 1.127-1.444 2.302-2.866 3.499-4.266.86-1.013 1.747-2.007 2.641-3 1.219-1.368 2.457-2.704 3.724-4.02.929-.978 1.88-1.943 2.837-2.893 1.296-1.275 2.605-2.536 3.951-3.775 1.006-.93 2.013-1.859 3.047-2.766 1.353-1.198 2.747-2.359 4.148-3.514 1.07-.88 2.147-1.769 3.246-2.626.457-.366.936-.704 1.408-1.057l9.625 19.489c.268.556.626 1.056 1.062 1.492l46.708 46.71h-25.832c-1.218 0-2.401.4-3.38 1.133l-22.529 16.899c-1.726 1.288-2.556 3.449-2.154 5.569.407 2.112 1.984 3.815 4.068 4.37l133.267 35.873-64.887 37.076-140.012-43.081c.022-1.028.05-2.057.092-3.07m266.42-119.207c.887.718 1.809 1.408 2.675 2.148 2.766 2.352 5.45 4.796 8.048 7.322.343.339.661.696 1.006 1.041 2.253 2.211 4.408 4.479 6.505 6.803.832.922 1.6 1.886 2.402 2.816 1.556 1.81 3.104 3.633 4.569 5.506.873 1.126 1.69 2.252 2.541 3.38 1.324 1.781 2.633 3.575 3.881 5.414.822 1.21 1.625 2.434 2.414 3.667 1.184 1.839 2.33 3.695 3.443 5.593.746 1.258 1.472 2.525 2.176 3.808 1.076 1.95 2.098 3.943 3.105 5.942.626 1.259 1.267 2.513 1.865 3.794.247.523.451 1.072.69 1.592h-19.066c-2.302 0-4.38 1.402-5.231 3.541l-20.004 50.018-55.922-35.578-78.153-57.319 47.567-33.301 48.005 16.002c.943.319 1.957.375 2.935.177l29.649-6.224c1.69 1.254 3.294 2.541 4.9 3.858m58.654 147.546-18.621-9.322c-1.437-.711-3.113-.781-4.605-.19l-53.973 21.594-20.277-10.139c-1.754-.866-3.831-.774-5.492.26-1.662 1.035-2.668 2.86-2.655 4.809v31.656l-43.638 49.095c-1.732 1.949-1.894 4.843-.394 6.975 1.499 2.14 4.267 2.964 6.695 2l24.156-9.666 14.307 19.073c1.704 2.288 4.852 2.935 7.322 1.514l39.428-22.531c2.05-1.168 3.148-3.491 2.76-5.815l-4.217-25.346 37.077 9.264c-29.564 48.998-82.602 78.947-139.821 78.962-87.178-.106-158.943-68.577-163.147-155.656l138.962 42.759c.536.161 1.091.245 1.655.245.985.008 1.956-.252 2.816-.738l78.856-45.06c1.978-1.135 3.084-3.344 2.795-5.613-.296-2.259-1.922-4.125-4.126-4.716l-135.301-36.421 11.772-8.838h37.555c2.274 0 4.33-1.371 5.203-3.469.873-2.113.387-4.527-1.218-6.14l-55.671-55.671-9.997-20.278c52.932-35.077 121.423-36.183 175.46-2.836l-17.7 3.716-49.236-16.412c-1.689-.571-3.555-.302-5.012.727l-56.326 39.428c-1.486 1.042-2.379 2.738-2.401 4.554-.021 1.816.831 3.529 2.302 4.605l84.791 62.162 61.959 39.428c1.414.909 3.16 1.127 4.759.613 1.599-.515 2.879-1.718 3.499-3.274l21.108-52.784h19.918c9.153 24.741 12.124 51.332 8.673 77.476m.502-85.172c-3.013-7.645-6.562-15.075-10.618-22.22-2.584-4.548-5.429-8.921-8.406-13.209-10.998-15.975-24.622-29.972-40.293-41.406-53.068-38.845-123.46-44.575-182.115-14.829-58.65 29.74-95.614 89.927-95.627 155.685.021 79.854 54.192 149.524 131.576 169.209 77.391 19.692 158.274-15.61 196.449-85.743 13.87-25.633 21.15-54.319 21.192-83.466.029-21.916-4.097-43.637-12.158-64.021"/>
    <path d="m432.826 368.694c-.366 2.802-2.76 4.899-5.591 4.894-.492 0-.985-.064-1.464-.19l-37.133-9.999c-1.97-.5-3.513-2.02-4.047-3.976-.536-1.966.028-4.057 1.477-5.493 1.444-1.423 3.542-1.965 5.499-1.409l37.133 9.998c2.732.733 4.492 3.372 4.126 6.175"/>
    <path d="m350.633 346.564c-.366 2.803-2.76 4.894-5.583 4.894-.5 0-.993-.063-1.472-.19l-56.149-15.116c-2.085-.565-3.654-2.262-4.063-4.373-.408-2.112.423-4.273 2.148-5.569l44.885-33.667c2.485-1.875 6.019-1.368 7.885 1.119 1.866 2.492 1.366 6.018-1.127 7.885l-35.64 26.754 44.991 12.081c2.731.734 4.499 3.381 4.125 6.182"/>
    <path d="m345.253 279.834c-2.174 2.175-5.682 2.203-7.892.07l-14.849-14.863c-2.049-2.225-1.979-5.66.156-7.801 2.132-2.133 5.576-2.211 7.8-.17l14.856 14.871c2.134 2.21 2.106 5.724-.071 7.893"/>
    <path d="m575.307 403.869c-1.316 4.449-2.851 8.844-4.541 13.067-.858 2.134-2.921 3.541-5.224 3.541-.718 0-1.435-.139-2.097-.407-2.881-1.163-4.283-4.435-3.127-7.324l.514-1.302-10.66 4.261c-1.873.781-4.027.5-5.633-.754-1.604-1.246-2.408-3.267-2.105-5.281.304-2.005 1.663-3.702 3.557-4.428l21.248-8.498c1.506-.605 3.197-.527 4.64.204l.564.296c2.434 1.219 3.646 4.014 2.864 6.625"/>
    <path d="m338.059 474.058-13.448-35.836 21.853-3.127-6.462 12.92c-.874 1.746-.781 3.823.245 5.478 1.029 1.661 2.846 2.668 4.796 2.668h33.231l9.64 2.028 3.379 10.102-19.34 15.469zm65.132-5.611-5.632-16.877c-.633-1.901-2.225-3.323-4.181-3.739l-13.378-2.815c-.381-.078-.775-.121-1.162-.121h-24.677l7.216-14.377c.936-1.872.753-4.118-.472-5.815-1.224-1.697-3.295-2.578-5.372-2.281l-39.428 5.632c-1.689.247-3.174 1.238-4.047 2.711-.874 1.465-1.03 3.253-.43 4.851l16.897 45.06c.641 1.67 2.021 2.943 3.739 3.438l39.427 11.263c.493.141 1 .211 1.515.211 1.281 0 2.52-.428 3.52-1.232l24.642-19.713c1.845-1.479 2.577-3.95 1.823-6.196"/>
    <path d="m553.673 279.299-12.125 16.243-10.547 27.635c-.838 2.182-2.929 3.626-5.265 3.626-.684 0-1.367-.128-2.007-.368-2.909-1.113-4.366-4.364-3.253-7.273l10.821-28.359c.19-.485.437-.943.746-1.365l10.14-13.554c-6.449-8.569-13.864-16.37-22.088-23.256-2.38-1.993-2.695-5.548-.696-7.934 1.999-2.38 5.547-2.697 7.934-.698 10.004 8.385 18.884 18.032 26.424 28.684 1.407 1.992 1.373 4.669-.084 6.619"/>
  </g>
  <g fill="#eceff4">
    <path d="m391.293 468.291-19.34 15.469-33.894-9.702-13.448-35.836 21.853-3.127-6.462 12.92c-.874 1.746-.781 3.823.245 5.477 1.029 1.661 2.846 2.668 4.796 2.668h33.231l9.64 2.028z"/>
    <path d="m427.235 373.588c-.492 0-.985-.063-1.464-.189l-37.133-9.999c-1.97-.5-3.513-2.021-4.048-3.977-.536-1.966.029-4.057 1.478-5.492 1.443-1.423 3.542-1.965 5.499-1.409l37.133 9.998c2.732.732 4.492 3.372 4.126 6.174s-2.76 4.9-5.591 4.894m-76.603-27.023c-.366 2.802-2.76 4.893-5.582 4.893-.501 0-.994-.062-1.472-.189l-56.149-15.117c-2.085-.564-3.654-2.261-4.063-4.373-.408-2.112.422-4.272 2.147-5.568l44.885-33.668c2.485-1.874 6.019-1.367 7.886 1.119 1.865 2.492 1.365 6.019-1.128 7.886l-35.639 26.754 44.99 12.081c2.732.733 4.499 3.381 4.125 6.182m-27.964-89.325c2.132-2.132 5.576-2.211 7.8-.17l14.856 14.872c2.134 2.209 2.106 5.723-.071 7.892-2.174 2.175-5.682 2.203-7.892.07l-14.849-14.863c-2.048-2.224-1.979-5.66.156-7.801m15.277 69.181c-2.084-.555-3.661-2.259-4.068-4.37-.402-2.12.428-4.281 2.153-5.569l22.53-16.899c.979-.733 2.162-1.134 3.38-1.134h25.832l-46.708-46.709c-.436-.435-.794-.935-1.062-1.492l-9.625-19.488c-.472.351-.951.689-1.409 1.056-1.098.858-2.175 1.746-3.245 2.626-1.401 1.155-2.795 2.317-4.148 3.513-1.034.908-2.041 1.838-3.048 2.768-1.345 1.238-2.654 2.499-3.95 3.773-.957.95-1.908 1.915-2.837 2.894-1.267 1.317-2.505 2.653-3.724 4.02-.894.993-1.781 1.987-2.641 3-1.197 1.401-2.372 2.823-3.499 4.267-.824 1.02-1.648 2.048-2.436 3.097-1.127 1.48-2.197 2.992-3.267 4.506-.747 1.048-1.5 2.099-2.218 3.162-1.056 1.577-2.07 3.189-3.069 4.801-.655 1.057-1.324 2.091-1.958 3.161-1.014 1.712-1.964 3.465-2.908 5.218-.52 1-1.126 1.985-1.647 2.999-1.021 1.992-1.979 4.02-2.915 6.055-.38.804-.795 1.599-1.155 2.415-1.26 2.866-2.456 5.766-3.584 8.701-.133.36-.238.72-.373 1.071-.957 2.585-1.858 5.182-2.682 7.816-.36 1.063-.612 2.146-.922 3.211-.57 1.943-1.134 3.886-1.627 5.849-.302 1.262-.578 2.536-.859 3.81-.408 1.796-.824 3.6-1.168 5.406-.261 1.362-.465 2.739-.69 4.106-.289 1.753-.571 3.5-.803 5.273-.19 1.408-.324 2.845-.471 4.267-.183 1.732-.36 3.465-.479 5.204-.106 1.471-.176 2.936-.24 4.414-.042 1.014-.07 2.042-.092 3.069l140.012 43.081 64.887-37.074z"/>
    <path d="m553.673 279.299-12.125 16.243-10.547 27.635c-.838 2.182-2.929 3.626-5.265 3.626-.684 0-1.367-.128-2.007-.368-2.909-1.113-4.366-4.364-3.253-7.273l10.821-28.359c.19-.485.437-.943.746-1.365l10.14-13.554c-6.449-8.569-13.864-16.37-22.088-23.256-2.38-1.993-2.695-5.548-.696-7.934 1.999-2.38 5.547-2.697 7.934-.698 10.004 8.385 18.884 18.032 26.424 28.684 1.407 1.992 1.373 4.669-.084 6.619m23.782 11.947c-.597-1.281-1.239-2.535-1.865-3.795-1.007-1.999-2.028-3.991-3.105-5.941-.704-1.282-1.429-2.55-2.175-3.809-1.114-1.896-2.26-3.754-3.444-5.591-.789-1.233-1.591-2.457-2.414-3.668-1.248-1.838-2.556-3.633-3.881-5.414-.85-1.127-1.668-2.254-2.541-3.38-1.464-1.872-3.012-3.697-4.569-5.506-.802-.93-1.569-1.894-2.401-2.817-2.098-2.322-4.252-4.59-6.505-6.801-.346-.345-.663-.704-1.007-1.041-2.598-2.528-5.281-4.971-8.048-7.323-.866-.74-1.788-1.429-2.675-2.147-1.606-1.318-3.21-2.605-4.9-3.859l-29.648 6.224c-.979.198-1.993.142-2.936-.177l-48.005-16.002-47.566 33.302 78.152 57.319 55.923 35.577 20.004-50.018c.85-2.14 2.928-3.541 5.23-3.541h19.067c-.24-.52-.444-1.069-.691-1.592"/>
    <path d="m575.307 403.869c-1.316 4.449-2.851 8.844-4.541 13.067-.858 2.134-2.921 3.541-5.224 3.541-.718 0-1.435-.139-2.097-.407-2.881-1.163-4.283-4.435-3.127-7.324l.514-1.302-10.66 4.261c-1.873.781-4.027.5-5.633-.754-1.604-1.246-2.408-3.267-2.105-5.281.304-2.005 1.663-3.702 3.557-4.428l21.248-8.498c1.506-.605 3.197-.527 4.64.204l.564.296c2.434 1.219 3.646 4.014 2.864 6.625m-5.215-20.368-53.982 21.6c-1.493.591-3.175.521-4.606-.197l-14.384-7.216v24.677c0 1.38-.506 2.711-1.421 3.745l-29.205 32.859 6.005-2.408c2.367-.943 5.071-.183 6.598 1.853l13.919 18.552 31.696-18.11-4.984-29.929c-.31-1.872.346-3.774 1.74-5.062 1.387-1.288 3.337-1.79 5.181-1.331l48.314 12.082c.922-1.754 1.78-3.514 2.612-5.295.563-1.196 1.162-2.38 1.689-3.59 1.578-3.663 3.084-7.359 4.395-11.111l.084-.218c1.344-3.838 2.505-7.703 3.542-11.645.308-1.226.576-2.472.872-3.697.472-1.963.879-3.95 1.282-5.899z"/>
  </g>
  <path d="m253.637 174.312h-29.375s-19.596 2.152-19.596 31.745h12.763l1.948-1.146 1.947 1.146h32.313l9.573-14.703z" fill="#88c0d0"/>
  <path d="m283.012 174.312h-29.375v31.745h32.313l1.948-1.362 1.947 1.362h12.763c0-29.593-19.596-31.745-19.596-31.745" fill="#88c0d0"/>
  <path d="m257.144 194.313h-7.013c-1.588 0-2.876 1.287-2.876 2.875s1.288 2.875 2.876 2.875h7.013c1.588 0 2.875-1.287 2.875-2.875s-1.287-2.875-2.875-2.875" fill="#8fbcbb"/>
  <path d="m304.384 146.264c6.677-3.438 7.443-12.684 1.423-17.174 5.2-5.42 2.922-14.414-4.231-16.705 3.158-6.814-1.916-14.582-9.425-14.427.774-7.469-6.547-13.169-13.6-10.585-1.692-7.316-10.467-10.33-16.297-5.594-3.978-6.371-13.255-6.371-17.233 0-5.83-4.736-14.605-1.722-16.299 5.594-7.051-2.584-14.373 3.116-13.598 10.585-7.51-.155-12.584 7.613-9.426 14.427-7.151 2.291-9.43 11.285-4.23 16.705-6.021 4.49-5.254 13.735 1.423 17.174-4.236 6.201-.51 14.697 6.922 15.781-1.994 7.24 4.29 14.067 11.671 12.678.466 7.496 8.625 11.911 15.156 8.201 2.875 6.94 12.025 8.466 16.997 2.836 4.972 5.63 14.123 4.104 16.997-2.836 6.531 3.71 14.689-.705 15.156-8.201 7.381 1.389 13.665-5.438 11.671-12.678 7.432-1.084 11.16-9.58 6.923-15.781" fill="#eceff4"/>
  <path d="m293.939 122.83.001-.001c-1.15-4.626-3.077-8.945-5.633-12.813v-.003c-7.429-11.245-20.182-18.663-34.67-18.663-19.471 0-35.809 13.399-40.302 31.48l9.181 9.181h63.475z" fill="#434c5e"/>
  <path d="m213.336 122.83 6.702 6.701c.183-2.291.548-4.529 1.089-6.701 4.188-16.861 18.68-29.649 36.407-31.299-.344-.031-.69-.058-1.036-.082-.951-.066-1.907-.099-2.861-.099-4.563 0-8.954.736-13.061 2.095-3.481 1.153-6.886 2.813-9.965 4.869-8.473 5.657-14.748 14.345-17.275 24.516" fill="#3b4252"/>
  <path d="m293.94 122.829-.001.001h-30.021c-1.475 0-2.87-.676-3.783-1.834l-2.714-3.434c-1.93-2.445-5.637-2.445-7.568 0l-2.713 3.434c-.915 1.158-2.308 1.834-3.784 1.834h-30.02c-.8 3.217-1.227 6.582-1.227 10.048 0 3.157.352 6.234 1.022 9.19 4.18 18.514 20.727 32.338 40.506 32.338 22.937 0 41.529-18.592 41.529-41.528 0-3.466-.426-6.831-1.226-10.049" fill="#d08770"/>
  <path d="m253.717 174.406c.309-.002.616-.005.925-.013.263-.006.525-.016.787-.028.061-.002.121-.004.182-.007.642-.03 1.281-.075 1.916-.135-18.024-1.678-32.704-14.874-36.606-32.155-.671-2.956-1.022-6.033-1.022-9.19 0-3.466.427-6.831 1.228-10.048h-7.791c-.4 1.608-.707 3.255-.914 4.931-.729 5.922-.174 12.034 1.636 17.721 2.599 8.171 7.9 15.6 14.835 20.752 6.911 5.135 15.473 8.172 24.743 8.172z" fill="#3b4252" opacity=".1"/>
  <path d="m234.296 147.249h-5.903c-1.076 0-1.949-.872-1.949-1.948 0-1.074.873-1.948 1.949-1.948h5.903c1.076 0 1.947.874 1.947 1.948 0 1.076-.871 1.948-1.947 1.948" fill="#bf616a"/>
  <path d="m278.883 147.249h-5.904c-1.076 0-1.948-.872-1.948-1.948 0-1.074.872-1.948 1.948-1.948h5.904c1.075 0 1.947.874 1.947 1.948 0 1.076-.872 1.948-1.947 1.948" fill="#bf616a"/>
  <g fill="#3b4252">
    <path d="m277.878 138.93v-4.334c0-1.076-.872-1.947-1.947-1.947s-1.948.871-1.948 1.947v4.334c0 1.076.873 1.947 1.948 1.947s1.947-.871 1.947-1.947"/>
    <path d="m233.291 138.93v-4.334c0-1.076-.872-1.947-1.947-1.947s-1.948.871-1.948 1.947v4.334c0 1.076.873 1.947 1.948 1.947s1.947-.871 1.947-1.947"/>
    <path d="m258.906 141.826c-.81-.708-2.04-.625-2.748.185-.61.698-1.528 1.098-2.521 1.098-.991 0-1.911-.4-2.52-1.099-.709-.81-1.939-.893-2.749-.184-.809.707-.892 1.937-.184 2.748 1.349 1.544 3.337 2.43 5.453 2.43s4.104-.886 5.454-2.43c.708-.811.626-2.041-.185-2.748"/>
    <path d="m263.918 120.883c-.885 0-1.707-.398-2.255-1.094 0 0-2.712-3.431-2.714-3.433-2.67-3.381-7.959-3.376-10.624 0l-2.714 3.433c-.548.696-1.371 1.094-2.255 1.094h-27.445c2.376-7.456 6.987-14.149 13.168-19.047 7.049-5.586 15.542-8.539 24.558-8.539 13.31 0 25.644 6.628 33.007 17.732.013.021.025.04.039.06 2.015 3.05 3.585 6.335 4.684 9.793zm31.912 1.476c-1.184-4.757-3.155-9.251-5.858-13.358-.014-.02-.027-.041-.04-.061-8.081-12.234-21.65-19.537-36.295-19.537-9.904 0-19.232 3.244-26.977 9.38-7.513 5.953-12.916 14.326-15.216 23.579-.851 3.427-1.283 6.966-1.283 10.516 0 3.253.36 6.491 1.069 9.619 2.138 9.466 7.493 18.058 15.079 24.197 7.699 6.23 17.403 9.66 27.328 9.66 8.584 0 16.886-2.5 24.013-7.231.897-.595 1.142-1.804.546-2.699-.595-.896-1.803-1.141-2.699-.547-6.487 4.306-14.045 6.582-21.86 6.582-9.034 0-17.87-3.123-24.878-8.793-6.908-5.59-11.783-13.412-13.729-22.029-.646-2.848-.974-5.795-.974-8.759 0-2.725.28-5.444.831-8.1h28.469c2.061 0 4.034-.957 5.312-2.575 0 0 2.712-3.433 2.713-3.434 1.118-1.414 3.369-1.447 4.511.001 0 0 2.713 3.432 2.714 3.433 1.274 1.614 3.259 2.575 5.312 2.575h28.469c.552 2.652.831 5.371.831 8.1 0 10.739-4.232 20.791-11.916 28.303-.769.753-.783 1.985-.03 2.755.751.768 1.985.783 2.753.031 8.439-8.252 13.088-19.293 13.088-31.089 0-3.556-.432-7.095-1.283-10.519"/>
    <path d="m307.846 137.904c-.223 2.685-1.706 5.264-4.355 6.627-.497.256-.859.712-.996 1.254-.137.541-.035 1.115.28 1.576 3.374 4.938.299 11.897-5.595 12.755-1.143.167-1.903 1.331-1.596 2.444 1.582 5.753-3.581 11.348-9.434 10.248-1.324-.249-2.221.804-2.326 2.02-.511 5.825-7.165 9.279-12.228 6.402-1.003-.57-2.32-.116-2.761.949-.471 1.137-1.177 2.124-2.047 2.919-3.344 3.054-8.695 2.765-11.691-.628-.764-.863-2.155-.864-2.92 0-1.581 1.791-3.757 2.778-6.126 2.778-3.348 0-6.337-1.99-7.612-5.069-.214-.516-.639-.917-1.167-1.097-.947-.325-1.721.275-2.561.621-4.989 2.061-10.791-1.508-11.261-6.875 0-.014-.004-.029-.006-.044-.005-.062-.013-.121-.016-.183-.072-1.154-1.166-2.007-2.303-1.793-5.861 1.102-11.016-4.502-9.434-10.248.308-1.115-.455-2.277-1.597-2.443-5.9-.86-8.963-7.825-5.595-12.756.653-.957.311-2.301-.717-2.83-5.305-2.731-5.931-10.315-1.15-13.88.927-.692 1.042-2.075.242-2.91-4.134-4.312-2.25-11.685 3.418-13.502 1.1-.353 1.661-1.622 1.173-2.673-2.515-5.426 1.664-11.775 7.618-11.661 1.155.022 2.096-1 1.978-2.147-.61-5.883 5.459-10.584 10.991-8.556 1.086.399 2.308-.269 2.567-1.39 1.344-5.803 8.552-8.275 13.174-4.522.898.729 2.269.498 2.88-.48 3.163-5.066 10.771-5.06 13.929-.002.612.983 1.98 1.211 2.879.482 4.65-3.776 11.827-1.294 13.174 4.522.26 1.127 1.482 1.787 2.567 1.39 5.6-2.051 11.604 2.639 10.992 8.555-.119 1.147.823 2.174 1.978 2.147 5.952-.137 10.12 6.262 7.617 11.662-.482 1.041.084 2.324 1.173 2.672 5.669 1.818 7.543 9.205 3.42 13.503-.802.835-.686 2.219.241 2.91 2.389 1.783 3.426 4.571 3.203 7.253m-13.194 46.005c3.707 4.933 5.715 11.721 5.979 20.2h-10.786v-9.291c0-1.076-.872-1.947-1.948-1.947-1.075 0-1.947.871-1.947 1.947v9.291h-30.366v-2.1h1.559c2.629 0 4.823-2.199 4.823-4.822 0-2.6-2.195-4.822-4.823-4.822h-1.559v-2.611c.024.011.048.023.071.035 1.703.892 3.646 1.354 5.568 1.354 2.622 0 5.092-.831 7.116-2.292 1.25-.902 2.331-2.045 3.168-3.383.166.061.333.119.501.172 1.503.48 3.11.657 4.684.524.005 0 .012-.002.019-.002 4.967-.43 9.072-3.802 10.5-8.462 2.306 1.116 5.035 3.009 7.441 6.209m-44.521 14.206c-.507 0-.929-.421-.929-.928 0-.504.426-.928.929-.928h7.012c.484 0 .928.42.928.927s-.423.929-.928.929zm-37.51-14.206c2.406-3.2 5.136-5.093 7.442-6.209 1.47 4.796 5.775 8.227 10.936 8.491 1.621.082 3.244-.162 4.767-.723 2.191 3.502 6.041 5.675 10.285 5.675 1.932 0 3.858-.459 5.571-1.357.022-.011.044-.021.067-.032v2.611h-1.558c-2.619 0-4.824 2.205-4.824 4.821 0 2.622 2.202 4.823 4.824 4.823h1.558v2.1h-30.365v-9.291c0-1.076-.873-1.947-1.948-1.947s-1.947.871-1.947 1.947v9.291h-10.786c.263-8.479 2.271-15.267 5.978-20.2m99.177-45.678c.289-3.507-.928-6.884-3.309-9.364 1.941-2.84 2.586-6.369 1.722-9.781-.865-3.412-3.113-6.209-6.171-7.784.901-3.272.389-6.78-1.478-9.703-1.914-2.998-4.984-4.961-8.428-5.465-.161-2.71-1.221-5.251-3.077-7.311-2.309-2.561-5.585-4.029-8.99-4.029-.75 0-1.497.071-2.236.211-1.85-4.474-6.214-7.455-11.21-7.455-2.105 0-4.123.54-5.928 1.571-2.274-2.577-5.538-4.069-9.056-4.069-3.519 0-6.781 1.492-9.057 4.069-1.805-1.031-3.822-1.571-5.928-1.571-4.996 0-9.36 2.981-11.21 7.455-.739-.14-1.487-.211-2.236-.211-3.405 0-6.681 1.468-8.99 4.029-1.856 2.058-2.916 4.601-3.076 7.311-3.445.503-6.515 2.466-8.429 5.464-1.867 2.923-2.378 6.432-1.477 9.704-3.059 1.574-5.307 4.372-6.171 7.784s-.219 6.941 1.721 9.781c-2.381 2.48-3.598 5.856-3.308 9.364.291 3.508 2.047 6.638 4.806 8.693-1.448 3.119-1.504 6.709-.09 9.931 1.414 3.223 4.091 5.611 7.366 6.66-.319 3.037.519 6.069 2.408 8.548 1.39 1.823 3.206 3.179 5.25 3.974-1.912 1.326-3.892 3.115-5.708 5.531-4.506 5.994-6.79 14.233-6.79 24.488 0 1.077.872 1.948 1.947 1.948h97.943c1.075 0 1.947-.871 1.947-1.948 0-10.255-2.284-18.494-6.79-24.488-1.815-2.416-3.797-4.205-5.708-5.531 2.044-.796 3.86-2.149 5.25-3.973 1.89-2.48 2.727-5.512 2.408-8.549 3.275-1.049 5.953-3.437 7.366-6.66 1.414-3.222 1.359-6.812-.089-9.931 2.758-2.055 4.515-5.185 4.806-8.693"/>
  </g>
  <path d="m87.956 236.525h-59.507c-1.001-4.538.213-9.362 1.676-13.047 1.461-3.686 3.173-6.234 3.173-6.234h49.809s1.711 2.548 3.173 6.234c1.464 3.685 2.677 8.509 1.676 13.047" fill="#d08770"/>
  <path d="m38.214 223.479c-1.463 3.685-2.678 8.509-1.677 13.047h-8.088c-1.001-4.538.213-9.362 1.677-13.047 1.46-3.687 3.172-6.234 3.172-6.234h8.089s-1.712 2.547-3.173 6.234" fill="#2e3440" opacity=".1"/>
  <path d="m86.28 223.479c-8.265 4.762-17.852 7.486-28.077 7.486-10.226 0-19.815-2.724-28.077-7.486 1.46-3.687 3.172-6.234 3.172-6.234h49.809s1.711 2.547 3.173 6.234" fill="#2e3440" opacity=".1"/>
  <path d="m114.53 170.133c0 31.108-25.218 56.328-56.326 56.328-31.109 0-56.326-25.22-56.326-56.328 0-31.107 25.217-56.326 56.326-56.326 31.108 0 56.326 25.219 56.326 56.326" fill="#d08770"/>
  <path d="m67.212 225.742c-2.932.474-5.943.719-9.008.719-31.109 0-56.326-25.221-56.326-56.328s25.217-56.328 56.326-56.328c3.065 0 6.076.246 9.008.719-26.826 4.308-47.319 27.568-47.319 55.609 0 28.043 20.493 51.3 47.319 55.609" fill="#2e3440" opacity=".1"/>
  <path d="m91.792 162.129v16.69c0 17.239-12.986 31.444-29.708 33.365-1.271.146-2.568.222-3.879.222-18.55 0-33.589-15.037-33.589-33.587v-15.507l10.035-10.035 16.388-5.128 19.766 2.75 14.011 4.253z" fill="#2e3440" opacity=".1"/>
  <path d="m91.622 181.855c.112-1.121.17-2.255.17-3.4v.365c0 17.238-12.986 31.443-29.709 33.364-16.724-1.921-29.711-16.126-29.711-33.364v-1.829c0-9.018 7.244-16.418 16.26-16.487.063-.002.127-.002.191-.002h18.759c12.405 0 22.631 9.329 24.04 21.353" fill="#d08770"/>
  <path d="m58.325 212.406c-18.604.064-33.709-14.997-33.709-33.587v-.365c0-13.368 10.836-24.206 24.207-24.206h18.76c13.371 0 24.209 10.838 24.209 24.206 0 18.561-14.904 33.887-33.467 33.952m44.743-45.782c-1.641-4.053-8.208-5.182-11.208-8.499-2.893-3.198-3.231-9.833-7.123-12.117-3.706-2.172-9.706.696-14.084-.452-4.141-1.085-7.899-6.589-12.45-6.589-4.549 0-8.307 5.504-12.447 6.589-4.382 1.148-10.381-1.72-14.084.452-3.893 2.284-4.231 8.919-7.126 12.117-3 3.317-9.568 4.446-11.209 8.499-1.634 4.039 2.298 9.317 2.298 13.837 0 4.521-3.932 9.799-2.298 13.836 1.641 4.052 8.209 5.183 11.212 8.5 2.892 3.199 3.23 9.832 7.123 12.116 3.703 2.173 9.702-.696 14.084.452 4.14 1.087 7.898 6.59 12.447 6.59 4.551 0 8.309-5.503 12.447-6.59 4.381-1.148 10.381 1.721 14.087-.452 3.892-2.284 4.23-8.917 7.123-12.116 3-3.317 9.567-4.448 11.208-8.5 1.636-4.037-2.297-9.315-2.297-13.836 0-4.52 3.934-9.798 2.297-13.837" fill="#eceff4"/>
  <path d="m84.472 181.424c0-1.864-3.025-3.377-6.755-3.377s-6.756 1.513-6.756 3.377c0 1.865 3.026 3.377 6.756 3.377s6.755-1.512 6.755-3.377" fill="#bf616a"/>
  <path d="m45.444 181.424c0-1.864-3.024-3.377-6.755-3.377s-6.754 1.513-6.754 3.377c0 1.865 3.023 3.377 6.754 3.377s6.755-1.512 6.755-3.377" fill="#bf616a"/>
  <g fill="#3b4252">
    <path d="m26.492 178.455c0-12.313 10.018-22.332 22.331-22.332h18.76c12.313 0 22.332 10.019 22.332 22.332 0 17.625-14.174 32.014-31.597 32.074h-.115c-8.45 0-16.396-3.283-22.384-9.25-6.014-5.994-9.327-13.969-9.327-22.46zm31.711 35.828h.128c19.485-.069 35.336-16.141 35.336-35.828 0-14.383-11.701-26.084-26.084-26.084h-18.76c-14.383 0-26.085 11.701-26.085 26.084v.364c0 9.495 3.706 18.415 10.432 25.119 6.697 6.675 15.582 10.345 25.033 10.345"/>
    <path d="m47.631 187.035c-.732.732-.732 1.921 0 2.652 2.824 2.826 6.579 4.381 10.573 4.381s7.748-1.555 10.573-4.381c.732-.731.732-1.92 0-2.652-.733-.732-1.921-.732-2.654 0-2.116 2.115-4.928 3.28-7.919 3.28-2.992 0-5.803-1.165-7.919-3.28-.733-.732-1.921-.732-2.654 0"/>
    <path d="m48.919 172.205c.367.366.848.549 1.327.549.481 0 .961-.183 1.327-.549.733-.732.733-1.921 0-2.652-2.339-2.342-5.449-3.629-8.757-3.629-3.309 0-6.418 1.287-8.757 3.629-.733.731-.733 1.92 0 2.652.732.732 1.92.732 2.653 0 3.366-3.365 8.843-3.365 12.207 0"/>
    <path d="m67.487 172.205c3.365-3.365 8.841-3.365 12.207 0 .367.366.847.549 1.326.549.481 0 .961-.183 1.328-.549.733-.732.733-1.921 0-2.652-2.34-2.342-5.45-3.629-8.757-3.629-3.309 0-6.419 1.287-8.758 3.629-.733.731-.733 1.92 0 2.652s1.921.732 2.654 0"/>
    <path d="m104.808 165.922c-1.203-2.969-4.137-4.522-6.975-6.025-1.816-.961-3.531-1.868-4.582-3.03-1-1.105-1.689-2.886-2.42-4.773-1.1-2.841-2.347-6.061-5.146-7.703-2.606-1.53-5.755-1.133-8.801-.751-2.044.257-4.157.52-5.757.102-1.444-.379-2.993-1.552-4.632-2.793-2.388-1.808-5.094-3.859-8.292-3.859s-5.905 2.051-8.292 3.859c-1.64 1.241-3.189 2.414-4.632 2.793-1.6.418-3.713.153-5.757-.102-3.046-.382-6.195-.779-8.801.751-2.801 1.642-4.047 4.862-5.146 7.704-.731 1.886-1.42 3.667-2.421 4.772-1.05 1.162-2.765 2.071-4.582 3.031-2.837 1.502-5.773 3.055-6.975 6.024-1.214 3-.14 6.174.899 9.242.649 1.915 1.262 3.724 1.262 5.297 0 1.574-.613 3.383-1.262 5.299-1.039 3.068-2.113 6.24-.898 9.242 1.08 2.668 3.649 4.233 5.973 5.488.912.495 2.049.156 2.544-.757.492-.913.153-2.049-.759-2.541-2.232-1.209-3.727-2.233-4.279-3.599-.692-1.708.118-4.099.974-6.63.718-2.119 1.46-4.309 1.46-6.501s-.742-4.384-1.46-6.503c-.857-2.529-1.667-4.92-.974-6.629.687-1.699 2.904-2.873 5.252-4.115 2.021-1.07 4.114-2.178 5.609-3.828 1.465-1.621 2.315-3.817 3.137-5.938.963-2.488 1.873-4.84 3.544-5.82 1.506-.885 3.9-.584 6.437-.267 2.396.302 4.875.613 7.174.011 2.165-.568 4.088-2.023 5.948-3.432 2.101-1.594 4.087-3.097 6.025-3.097s3.924 1.503 6.025 3.097c1.861 1.409 3.783 2.866 5.948 3.432 2.299.602 4.778.291 7.174-.011 2.537-.317 4.931-.618 6.437.267 1.671.98 2.58 3.332 3.544 5.82.823 2.121 1.672 4.317 3.138 5.938 1.494 1.65 3.586 2.758 5.609 3.828 2.347 1.242 4.564 2.416 5.252 4.115.692 1.709-.119 4.1-.975 6.631-.717 2.117-1.459 4.309-1.459 6.501s.742 4.382 1.459 6.501c.857 2.531 1.667 4.922.975 6.63-.688 1.7-2.905 2.874-5.251 4.116-2.024 1.07-4.116 2.178-5.61 3.83-1.466 1.619-2.315 3.813-3.137 5.936-.965 2.488-1.874 4.84-3.545 5.82-1.506.885-3.9.584-6.437.266-2.396-.301-4.875-.612-7.174-.01-2.165.566-4.087 2.023-5.948 3.433-2.102 1.592-4.087 3.096-6.025 3.096s-3.924-1.504-6.025-3.096c-1.861-1.41-3.784-2.867-5.948-3.433-2.3-.602-4.778-.291-7.174.01-2.537.318-4.931.618-6.437-.266-1.671-.979-2.581-3.332-3.544-5.82-.822-2.122-1.672-4.317-3.137-5.936-.695-.768-1.882-.829-2.65-.133-.769.696-.828 1.881-.132 2.651.999 1.103 1.688 2.886 2.419 4.772 1.1 2.841 2.346 6.06 5.146 7.702 2.606 1.532 5.755 1.134 8.801.753 2.044-.257 4.158-.521 5.757-.102 1.443.378 2.992 1.551 4.632 2.793 2.387 1.808 5.094 3.859 8.292 3.859s5.904-2.051 8.292-3.859c1.639-1.242 3.188-2.415 4.632-2.793 1.599-.419 3.713-.155 5.757.101 3.046.383 6.195.78 8.802-.752 2.8-1.642 4.046-4.861 5.146-7.703.73-1.886 1.419-3.668 2.419-4.772 1.051-1.161 2.766-2.07 4.583-3.03 2.837-1.502 5.772-3.055 6.974-6.024 1.215-3.002.141-6.174-.898-9.242-.649-1.916-1.262-3.725-1.262-5.298s.613-3.383 1.262-5.298c1.039-3.068 2.113-6.242.898-9.242"/>
    <path d="m86.363 234.65h-26.283v-6.348c8.349-.261 16.395-2.276 23.715-5.865 1.45 3.161 3.04 7.789 2.568 12.213m-53.752-12.214c7.321 3.59 15.366 5.605 23.715 5.866v6.348h-26.283c-.472-4.424 1.116-9.053 2.568-12.214m83.795-52.304c0-12.667-3.998-24.709-11.564-34.824-.62-.83-1.797-1-2.626-.378-.831.62-1 1.796-.378 2.626 7.075 9.461 10.815 20.726 10.815 32.576 0 14.545-5.665 28.219-15.948 38.503-10.284 10.284-23.958 15.949-38.502 15.949s-28.217-5.665-38.503-15.949c-10.283-10.284-15.947-23.958-15.947-38.503 0-14.543 5.664-28.216 15.949-38.502 10.284-10.283 23.957-15.948 38.501-15.948s28.218 5.665 38.502 15.948c.734.735 1.921.735 2.654 0 .733-.732.733-1.919 0-2.654-10.993-10.992-25.609-17.047-41.156-17.047-15.546 0-30.162 6.055-41.156 17.047-10.993 10.994-17.047 25.61-17.047 41.156 0 15.547 6.055 30.163 17.047 41.157 3.703 3.703 7.82 6.843 12.243 9.382-3.679 7.863-3.282 13.504-2.674 16.258.19.86.953 1.473 1.833 1.473h59.507c.881 0 1.643-.613 1.832-1.473.607-2.754 1.005-8.395-2.673-16.258 4.424-2.539 8.54-5.679 12.244-9.382 10.992-10.994 17.047-25.61 17.047-41.157"/>
  </g>
  <path d="m724.07 549.823c0-24.957-17.889-30.124-17.889-30.124h-50.485s-18.043 5.167-18.043 30.124z" fill="#81a1c1"/>
  <path d="m661.151 519.699h-5.455s-17.889 5.176-17.889 30.133l5.429-.009c0-24.957 17.915-30.124 17.915-30.124" fill="#5e81ac"/>
  <path d="m680.939 413.366c31.015 0 56.155 25.143 56.155 56.157 0 31.015-25.14 56.157-56.155 56.157s-56.157-25.142-56.157-56.157c0-31.014 25.142-56.157 56.157-56.157" fill="#81a1c1"/>
  <path d="m630.238 469.524c0-30.1 23.681-54.667 53.429-56.09-.905-.043-1.814-.066-2.728-.066-31.014 0-56.157 25.141-56.157 56.156s25.143 56.157 56.157 56.157c.914 0 1.823-.024 2.728-.067-29.748-1.423-53.429-25.99-53.429-56.09" fill="#5e81ac"/>
  <path d="m721.367 469.524c6.465-1.878 5.095-11.409-1.638-11.39 5.674-3.623 1.674-12.382-4.779-10.466 4.423-5.077-1.883-12.353-7.536-8.697 2.813-6.116-5.286-11.322-9.681-6.221.978-6.661-8.262-9.374-11.041-3.243-.938-6.666-10.567-6.666-11.507 0-2.778-6.131-12.017-3.418-11.041 3.243-4.393-5.101-12.494.105-9.679 6.221-5.654-3.656-11.959 3.62-7.536 8.697-6.455-1.916-10.454 6.843-4.78 10.466-6.732-.018-8.103 9.512-1.638 11.39-6.465 1.878-5.094 11.409 1.638 11.39-5.674 3.624-1.674 12.382 4.78 10.467-4.423 5.076 1.882 12.352 7.536 8.697-2.815 6.115 5.286 11.321 9.679 6.221-.976 6.661 8.263 9.373 11.041 3.242.94 6.666 10.569 6.666 11.507 0 2.779 6.131 12.019 3.419 11.041-3.242 4.395 5.1 12.494-.106 9.681-6.221 5.653 3.655 11.959-3.621 7.536-8.697 6.453 1.915 10.453-6.843 4.779-10.467 6.733.019 8.103-9.512 1.638-11.39" fill="#eceff4"/>
  <path d="m713.917 465.512c-.122-1.028-.294-2.044-.51-3.039l-32.468-19.054-32.468 19.054c-.216.995-.388 2.011-.511 3.039-.16 1.314-.239 2.656-.239 4.012 0 18.349 14.871 33.218 33.218 33.218s33.219-14.869 33.219-33.218c0-1.356-.079-2.698-.241-4.012" fill="#d08770"/>
  <path d="m680.939 502.742c.995 0 1.985-.057 2.976-.134.373-.033.745-.071 1.115-.117-16.416-2.016-29.127-16.004-29.127-32.968 0-2.368.25-4.735.751-7.051.441-2.044 1.075-4.016 1.875-5.902l-10.059 5.902c-.161.747-.299 1.505-.409 2.27-.704 4.894-.316 9.938 1.152 14.661 4.205 13.524 16.819 23.339 31.726 23.339" fill="#2e3440" opacity=".1"/>
  <path d="m713.407 462.473h-24.195l-8.273-11.416-8.273 11.416h-24.196c3.233-14.959 16.539-26.167 32.469-26.167s29.236 11.208 32.468 26.167" fill="#4c566a"/>
  <path d="m656.654 462.473c2.95-13.658 14.3-24.187 28.376-25.916-.664-.082-1.336-.145-2.013-.187-.691-.043-1.385-.064-2.078-.064-13.192 0-24.585 7.686-29.947 18.824-.404.84-.775 1.7-1.109 2.579-.584 1.536-1.059 3.127-1.413 4.764z" fill="#434c5e"/>
  <g fill="#3b4252">
    <path d="m641.082 467.559c-2.319-.673-2.892-2.656-2.677-4.149s1.319-3.229 3.724-3.229h.019c.909 0 1.707-.6 1.963-1.47.257-.873-.094-1.811-.861-2.301-2.035-1.299-2.024-3.364-1.398-4.736.627-1.373 2.178-2.732 4.495-2.045.871.258 1.81-.09 2.302-.856.493-.766.42-1.764-.178-2.449-1.586-1.821-.995-3.798-.007-4.939s2.861-2.008 4.889-.697c.764.495 1.763.426 2.451-.171.687-.596.899-1.575.518-2.401-1.009-2.194.115-3.925 1.385-4.741 1.271-.816 3.312-1.119 4.888.709.593.69 1.571.905 2.399.527s1.307-1.258 1.175-2.158c-.351-2.389 1.216-3.734 2.664-4.159 1.449-.425 3.492-.141 4.489 2.058.376.829 1.255 1.31 2.154 1.181.901-.13 1.608-.839 1.735-1.74.337-2.391 2.219-3.239 3.727-3.239 1.51 0 3.391.848 3.729 3.239.126.902.833 1.61 1.734 1.74.9.129 1.779-.352 2.155-1.181.996-2.199 3.041-2.483 4.489-2.058s3.015 1.769 2.663 4.159c-.131.9.348 1.78 1.176 2.158.827.378 1.804.163 2.398-.527 1.577-1.828 3.619-1.525 4.888-.709s2.394 2.547 1.385 4.741c-.38.826-.169 1.805.518 2.401.689.597 1.687.666 2.451.171 2.028-1.311 3.901-.444 4.89.697.987 1.141 1.579 3.118-.008 4.939-.596.685-.671 1.684-.178 2.449.492.766 1.431 1.114 2.302.855 2.317-.685 3.869.673 4.496 2.045.627 1.373.637 3.438-1.398 4.737-.768.49-1.118 1.428-.862 2.301.255.87 1.055 1.469 1.962 1.469h.021c2.404 0 3.508 1.737 3.722 3.23.215 1.493-.357 3.475-2.676 4.149-.873.254-1.475 1.056-1.475 1.965 0 .91.602 1.711 1.475 1.965 2.319.674 2.891 2.657 2.676 4.151-.214 1.49-1.318 3.229-3.722 3.229h-.021c-.907 0-1.707.597-1.962 1.469-.256.873.094 1.811.862 2.3 2.035 1.3 2.025 3.364 1.398 4.736-.627 1.374-2.181 2.732-4.496 2.045-.871-.258-1.81.09-2.302.857-.493.764-.418 1.762.178 2.449 1.587 1.82.995 3.799.008 4.938-.989 1.141-2.863 2.007-4.89.697-.764-.494-1.763-.425-2.451.171-.687.596-.898 1.576-.518 2.402 1.009 2.192-.116 3.924-1.384 4.74-1.27.817-3.312 1.12-4.889-.71-.594-.689-1.571-.904-2.398-.525-.828.378-1.307 1.257-1.176 2.157.352 2.39-1.215 3.734-2.663 4.158-1.449.426-3.493.143-4.489-2.057-.376-.828-1.255-1.31-2.155-1.18-.901.13-1.608.838-1.734 1.739-.338 2.391-2.219 3.24-3.729 3.24-1.508 0-3.39-.849-3.727-3.24-.128-.901-.835-1.609-1.735-1.739-.098-.015-.196-.021-.291-.021-.793 0-1.528.462-1.863 1.201-.997 2.2-3.041 2.483-4.489 2.057-1.448-.424-3.015-1.768-2.664-4.158.132-.9-.347-1.78-1.175-2.157-.828-.379-1.806-.164-2.399.525-1.576 1.829-3.617 1.526-4.888.71-1.27-.816-2.394-2.548-1.385-4.74.381-.827.169-1.807-.518-2.402-.688-.596-1.688-.666-2.451-.171-2.028 1.311-3.901.444-4.889-.697s-1.579-3.118.007-4.938c.598-.687.671-1.685.178-2.45-.492-.766-1.431-1.114-2.302-.856-2.315.687-3.869-.673-4.495-2.045-.626-1.373-.637-3.437 1.398-4.736.767-.489 1.118-1.427.861-2.301-.256-.871-1.054-1.468-1.963-1.468h-.005c-2.425.004-3.523-1.737-3.738-3.229-.215-1.494.358-3.477 2.677-4.151.874-.254 1.475-1.055 1.475-1.965 0-.909-.601-1.71-1.475-1.965m-6.726-4.731c-.374 2.596.476 5.017 2.186 6.696-1.71 1.68-2.56 4.1-2.186 6.698.373 2.599 1.871 4.681 3.984 5.811-1.167 2.092-1.301 4.654-.21 7.042 1.09 2.387 3.113 3.964 5.46 4.453-.53 2.336.063 4.832 1.782 6.815 1.719 1.984 4.102 2.927 6.492 2.736.151 2.39 1.423 4.617 3.631 6.037 2.209 1.419 4.763 1.65 7.001.795.816 2.252 2.665 4.029 5.185 4.769 2.517.74 5.035.243 6.94-1.211 1.419 1.932 3.693 3.117 6.318 3.117 2.624 0 4.9-1.185 6.319-3.117 1.905 1.453 4.423 1.95 6.94 1.211 2.519-.74 4.367-2.517 5.185-4.769 2.237.856 4.792.624 7-.795 2.208-1.42 3.481-3.647 3.631-6.037 2.388.191 4.774-.752 6.493-2.736 1.719-1.983 2.312-4.479 1.782-6.815 2.346-.489 4.369-2.067 5.459-4.453 1.091-2.388.957-4.951-.21-7.042 2.113-1.13 3.611-3.213 3.984-5.811s-.475-5.018-2.185-6.698c1.71-1.679 2.558-4.1 2.185-6.698-.373-2.597-1.87-4.681-3.984-5.81 1.167-2.093 1.301-4.655.21-7.043-1.09-2.387-3.112-3.964-5.459-4.452.53-2.337-.063-4.833-1.782-6.816-1.719-1.984-4.104-2.927-6.493-2.734-.15-2.392-1.423-4.619-3.631-6.038-2.208-1.42-4.763-1.652-7-.794-.818-2.254-2.666-4.031-5.185-4.771-2.518-.74-5.035-.244-6.94 1.211-1.419-1.932-3.694-3.118-6.319-3.118s-4.899 1.186-6.318 3.118c-1.905-1.454-4.423-1.951-6.94-1.211-2.519.74-4.369 2.517-5.185 4.771-2.238-.858-4.792-.626-7.001.794-2.208 1.419-3.48 3.646-3.631 6.038-2.388-.193-4.773.75-6.492 2.734-1.719 1.983-2.312 4.479-1.782 6.816-2.347.488-4.37 2.065-5.46 4.452-1.091 2.388-.957 4.95.21 7.043-2.113 1.13-3.611 3.213-3.984 5.812"/>
    <path d="m666.643 469.318c1.916 0 3.469 1.554 3.469 3.47 0 1.917-1.553 3.47-3.469 3.47-1.917 0-3.471-1.553-3.471-3.47 0-1.916 1.554-3.47 3.471-3.47"/>
    <path d="m695.235 469.318c1.916 0 3.47 1.554 3.47 3.47 0 1.917-1.554 3.47-3.47 3.47s-3.471-1.553-3.471-3.47c0-1.916 1.555-3.47 3.471-3.47"/>
    <path d="m656.016 530.673c-1.131 0-2.046.915-2.046 2.045v16.219c0 1.13.915 2.046 2.046 2.046 1.13 0 2.045-.916 2.045-2.046v-16.219c0-1.13-.915-2.045-2.045-2.045"/>
    <path d="m705.862 530.673c-1.13 0-2.046.915-2.046 2.045v16.219c0 1.13.916 2.046 2.046 2.046s2.046-.916 2.046-2.046v-16.219c0-1.13-.916-2.045-2.046-2.045"/>
    <path d="m680.939 488.271c3.805 0 7.354-2.049 9.262-5.345.565-.977.232-2.228-.746-2.795-.978-.566-2.23-.233-2.795.746-1.179 2.038-3.371 3.302-5.721 3.302-2.351 0-4.542-1.266-5.722-3.304-.565-.977-1.817-1.311-2.795-.745-.977.565-1.311 1.817-.746 2.795 1.908 3.297 5.457 5.346 9.263 5.346"/>
    <path d="m716.525 523.466c-1.974-1.848-3.952-3.139-5.614-4.024 4.021-2.425 7.777-5.356 11.183-8.762 10.993-10.993 17.047-25.61 17.047-41.156 0-32.093-26.109-58.203-58.202-58.203-17.44 0-33.813 7.725-44.922 21.194-.72.871-.596 2.161.277 2.879.871.718 2.161.595 2.88-.276 10.328-12.523 25.551-19.705 41.765-19.705 29.837 0 54.11 24.274 54.11 54.111 0 27.96-21.315 51.034-48.55 53.827-.026.003-.051.006-.078.009-.398.039-.799.074-1.201.106-.13.011-.26.019-.389.028-.327.023-.652.045-.98.062-.239.013-.479.021-.72.03-.237.011-.473.023-.71.027-.494.014-.987.022-1.483.022-.494 0-.988-.008-1.481-.022-.238-.004-.474-.016-.711-.027-.241-.009-.481-.017-.72-.03-.328-.017-.653-.039-.98-.062-.128-.008-.259-.017-.389-.028-.403-.032-.803-.067-1.201-.106-.027-.003-.052-.006-.078-.009-27.235-2.793-48.55-25.867-48.55-53.827 0-9.902 2.698-19.586 7.802-28.008.586-.967.278-2.225-.689-2.811-.965-.585-2.224-.277-2.81.69-5.493 9.062-8.396 19.48-8.396 30.129 0 15.546 6.055 30.163 17.048 41.156 3.406 3.406 7.161 6.337 11.184 8.762-1.664.885-3.642 2.175-5.615 4.024-4.375 4.1-9.591 11.846-9.591 25.471 0 1.13.916 2.046 2.046 2.046s2.046-.916 2.046-2.046c0-9.665 2.739-17.181 8.142-22.338 3.062-2.924 6.173-4.234 7.504-4.697 3.405 1.656 6.964 2.973 10.638 3.932.079.022.159.043.24.064.386.098.775.193 1.165.284.146.035.292.07.438.104.31.07.62.134.932.2.645.135 1.295.263 1.947.376.014.001.027.005.041.007.353.062.706.116 1.061.17.144.023.288.046.433.069.331.046.664.091.997.134.174.022.348.044.522.067.313.036.627.07.941.103.204.02.409.04.613.06.291.026.582.053.874.075.243.019.486.034.728.05.26.017.519.034.781.048.305.015.61.027.915.038.206.008.411.016.616.022.519.014 1.038.022 1.558.022.521 0 1.04-.008 1.558-.022.207-.005.411-.014.617-.022.305-.012.61-.023.914-.038.262-.014.522-.031.784-.048.241-.016.483-.031.723-.05.294-.022.587-.049.879-.075.202-.02.405-.038.607-.06.317-.032.632-.067.946-.105.172-.021.344-.043.515-.065.335-.043.671-.086 1.006-.134.14-.021.279-.045.42-.067 1.032-.159 2.057-.345 3.077-.559.305-.064.607-.126.91-.196.151-.034.301-.07.452-.106.385-.09.769-.184 1.151-.281.083-.022.167-.044.25-.066 3.672-.96 7.229-2.275 10.631-3.931 1.336.466 4.444 1.776 7.504 4.697 5.403 5.157 8.143 12.673 8.143 22.338 0 1.13.915 2.046 2.045 2.046 1.131 0 2.046-.916 2.046-2.046-.001-13.625-5.217-21.371-9.592-25.471"/>
    <path d="m649.992 465.753c.049-.409.106-.822.174-1.234h22.5c.656 0 1.271-.316 1.656-.846l6.617-9.13 6.616 9.13c.385.53 1.002.846 1.657.846h22.501c.066.412.124.825.174 1.234 0 .002.001.005.001.007.148 1.219.224 2.484.224 3.764 0 17.188-13.984 31.172-31.173 31.172s-31.173-13.984-31.173-31.172c0-1.28.076-2.545.226-3.771m30.947-27.402c13.72 0 25.876 9.141 29.824 22.075h-20.506l-7.661-10.569c-.385-.532-1.001-.846-1.657-.846s-1.272.314-1.657.846l-7.66 10.569h-20.507c3.949-12.934 16.105-22.075 29.824-22.075m0 66.436c19.445 0 35.264-15.819 35.264-35.263 0-1.443-.085-2.875-.254-4.256-.128-1.072-.31-2.157-.542-3.226v-.002c-1.676-7.754-6-14.802-12.179-19.846-6.266-5.118-14.182-7.935-22.289-7.935s-16.022 2.817-22.29 7.935c-6.178 5.045-10.503 12.092-12.178 19.846 0 .001 0 .002-.001.002-.231 1.07-.413 2.154-.54 3.221-.169 1.384-.255 2.817-.255 4.261 0 19.444 15.819 35.263 35.264 35.263"/>
  </g>
  <path d="m779.205 305.515h-63.409c-10.552 0-19.107 8.554-19.107 19.105v41.589c0 10.553 8.555 19.106 19.107 19.106h9.099c.434 0 .784.351.784.785v20.514c0 2.425 2.967 3.602 4.629 1.835l21.524-22.887c.148-.158.354-.247.571-.247h26.802c10.552 0 19.106-8.554 19.106-19.106v-41.589c0-10.551-8.554-19.105-19.106-19.105" fill="#bf616a"/>
  <path d="m733.718 378.186c0-.457-.34-.827-.759-.827h-8.809c-10.216 0-18.497-9.007-18.497-20.118v-43.797c0-1.879.237-3.698.681-5.425-5.761 3.291-9.645 9.492-9.645 16.602v41.588c0 10.553 8.555 19.108 19.107 19.108h9.1c.432 0 .783.349.783.782v20.515c0 2.425 2.968 3.602 4.629 1.834l3.41-3.625z" fill="#2e3440" opacity=".1"/>
  <path d="m768.968 330.31c-4.851-4.851-12.716-4.851-17.566 0l-2.742 2.741c-.652.653-1.712.653-2.365 0l-2.696-2.697c-4.852-4.85-12.716-4.85-17.568 0-4.85 4.852-4.85 12.717 0 17.567l20.265 20.264c.653.654 1.714.654 2.366 0l20.306-20.309c4.851-4.85 4.851-12.714 0-17.566" fill="#eceff4"/>
  <path d="m732.53 347.921c-4.852-4.851-4.852-12.716 0-17.567 1.591-1.591 3.507-2.658 5.535-3.204-4.153-1.122-8.773-.056-12.033 3.204-4.851 4.851-4.851 12.716 0 17.567l20.266 20.264c.652.654 1.711.654 2.365 0l2.066-2.066z" fill="#d8dee9"/>
  <path d="m779.322 303.793h-63.409c-4.465 0-8.716 1.4-12.294 4.051-.698.516-.845 1.502-.328 2.198.516.698 1.501.845 2.199.329 3.032-2.247 6.636-3.433 10.423-3.433h63.409c9.669 0 17.534 7.865 17.534 17.533v41.59c0 9.668-7.865 17.533-17.534 17.533h-26.801c-.647 0-1.273.271-1.716.742l-21.525 22.887c-.464.494-1.003.353-1.213.27s-.699-.349-.699-1.027v-20.516c0-1.299-1.056-2.355-2.356-2.355h-9.099c-9.668 0-17.534-7.866-17.534-17.534v-41.59c0-3.557 1.058-6.981 3.061-9.903.49-.715.309-1.693-.408-2.184-.715-.491-1.694-.308-2.185.407-2.363 3.446-3.612 7.486-3.612 11.68v41.59c0 11.401 9.275 20.677 20.678 20.677h8.312v19.728c0 1.753 1.054 3.305 2.684 3.95.514.203 1.048.303 1.575.303 1.147 0 2.264-.468 3.087-1.342l21.291-22.639h26.46c11.402 0 20.679-9.276 20.679-20.677v-41.59c0-11.402-9.277-20.678-20.679-20.678" fill="#434c5e"/>
  <path d="m763.281 351.311c-.614.613-.614 1.608 0 2.223.614.613 1.609.613 2.223 0l4.693-4.695c5.456-5.456 5.456-14.333 0-19.79-5.456-5.455-14.334-5.455-19.79 0l-2.739 2.74c-.008.008-.032.031-.073.031-.042 0-.064-.023-.071-.031l-2.696-2.695c-5.456-5.457-14.334-5.456-19.79 0-5.455 5.455-5.455 14.332 0 19.789l20.265 20.265c.613.613 1.428.949 2.294.949.867 0 1.682-.336 2.294-.949l11.137-11.138c.614-.615.614-1.61 0-2.223-.613-.615-1.609-.615-2.223 0l-11.136 11.137c-.008.007-.03.031-.072.031s-.064-.024-.072-.031l-20.264-20.263c-4.23-4.232-4.23-11.114 0-15.345s11.114-4.231 15.343 0l2.697 2.696c.613.613 1.427.95 2.293.95.868 0 1.682-.337 2.295-.95l2.741-2.739c4.23-4.23 11.114-4.23 15.343 0 4.231 4.228 4.231 11.113 0 15.343z" fill="#434c5e"/>
  <path d="m89.983 23.17v46.712c0 4.837 3.921 8.759 8.758 8.759h23.357l-2.365 14.193c-.211 1.262 1.185 2.164 2.249 1.455l23.472-15.648h23.357c4.837 0 8.758-3.921 8.758-8.759v-46.712c0-4.838-3.921-8.758-8.758-8.758h-70.069c-4.837 0-8.759 3.92-8.759 8.758" fill="#d8dee9"/>
  <path d="m101.661 11.491v46.712c0 4.838 3.921 8.76 8.759 8.76h23.356l28.865 20.992c1.103.802 2.606-.213 2.276-1.534l-4.865-19.458h32.114c4.837 0 8.759-3.922 8.759-8.76v-46.712c0-4.837-3.921-8.759-8.759-8.759h-81.746c-4.838 0-8.759 3.922-8.759 8.759" fill="#eceff4"/>
  <path d="m124.182 76.874c-.519-.612-1.28-.965-2.084-.965h-23.356c-3.323 0-6.028-2.704-6.028-6.027v-46.712c0-3.324 2.705-6.027 6.028-6.027h.188v41.06c0 6.337 5.154 11.491 11.49 11.491h22.468l10.073 7.327-20.052 13.366 1.883-11.297c.132-.793-.091-1.604-.61-2.216m11.2-12.121c-.467-.339-1.029-.523-1.606-.523h-23.356c-3.324 0-6.028-2.704-6.028-6.027v-46.712c0-3.323 2.704-6.027 6.028-6.027h81.746c3.324 0 6.028 2.704 6.028 6.027v46.712c0 3.324-2.704 6.027-6.028 6.027h-32.114c-.841 0-1.635.389-2.153 1.051s-.701 1.528-.497 2.344l4.016 16.062zm33.428 11.156h-3.706l-1.554-6.215h11.287v.188c0 3.323-2.703 6.027-6.027 6.027m-47.639 21.357c.811 0 1.621-.236 2.325-.705l22.785-15.19h2.664l12.09 8.793c.742.539 1.602.811 2.464.811.813 0 1.627-.243 2.346-.727 1.479-.996 2.153-2.76 1.722-4.49l-1.097-4.385h2.34c6.336 0 11.491-5.156 11.491-11.491v-.189h11.865c6.337 0 11.491-5.154 11.491-11.49v-46.712c0-6.335-5.154-11.491-11.491-11.491h-81.746c-6.337 0-11.491 5.156-11.491 11.491v.188h-.187c-6.337 0-11.491 5.154-11.491 11.491v46.712c0 6.337 5.154 11.491 11.491 11.491h20.131l-1.836 11.013c-.274 1.647.456 3.3 1.859 4.208.693.448 1.485.673 2.275.672" fill="#434c5e"/>
  <g fill="#4c566a">
    <path d="m183.22 20.25c0-1.508-1.223-2.731-2.731-2.731h-8.758c-1.509 0-2.731 1.223-2.731 2.731 0 1.509 1.222 2.732 2.731 2.732h8.758c1.508 0 2.731-1.223 2.731-2.732"/>
    <path d="m162.783 20.25c0-1.508-1.223-2.731-2.732-2.731h-37.953c-1.51 0-2.732 1.223-2.732 2.731 0 1.509 1.222 2.732 2.732 2.732h37.953c1.509 0 2.732-1.223 2.732-2.732"/>
    <path d="m183.22 34.848c0-1.509-1.223-2.732-2.731-2.732h-58.391c-1.509 0-2.732 1.223-2.732 2.732 0 1.508 1.223 2.731 2.732 2.731h58.391c1.508 0 2.731-1.223 2.731-2.731"/>
    <path d="m139.804 49.445c0 1.508 1.223 2.731 2.731 2.731h37.954c1.508 0 2.732-1.223 2.732-2.731 0-1.509-1.224-2.73-2.732-2.73h-37.954c-1.508 0-2.731 1.221-2.731 2.73"/>
    <path d="m119.366 49.445c0 1.508 1.222 2.731 2.732 2.731h8.757c1.509 0 2.731-1.223 2.731-2.731 0-1.509-1.222-2.73-2.731-2.73h-8.757c-1.509 0-2.732 1.221-2.732 2.73"/>
  </g>
</svg>
