<svg clip-rule="evenodd" fill-rule="evenodd" stroke-linejoin="round" stroke-miterlimit="2" viewBox="0 0 222 256" xmlns="http://www.w3.org/2000/svg">
  <g fill="#d8dee9" fill-rule="nonzero">
    <path
      d="m170.654 157.864h-119.446c-4.71 0-8.542 3.832-8.542 8.542v21.559c0 5.519 3.578 10.215 8.533 11.898v22.001c0 4.711 3.832 8.542 8.542 8.542h102.384c4.71 0 8.542-3.831 8.542-8.542v-22.001c4.957-1.684 8.533-6.379 8.533-11.898v-21.559c0-4.71-3.831-8.542-8.546-8.542zm-110.92 64.001v-21.333h38.399v4.838c0 4.39 3.571 7.961 7.961 7.961h9.677c2.201 0 4.332-.933 5.83-2.543 1.366-1.473 2.128-3.409 2.133-5.418v-4.838h38.399l-.009 21.342zm55.465-38.4v21.333h-8.531v-21.333zm51.436 8.533h-42.901v-8.533h4.266c2.173 0 4.05-1.706 4.249-3.872.2-2.166-1.326-4.196-3.468-4.592-.258-.046-.519-.069-.781-.069h-34.134c-2.173 0-4.05 1.706-4.249 3.871-.2 2.167 1.327 4.194 3.469 4.591.257.047.517.071.78.071h4.267v8.533h-42.901c-2.223 0-4.032-1.809-4.032-4.034l.008-21.567h119.45l.009 21.567c0 2.225-1.809 4.034-4.032 4.034zm-72.768-110.933h34.133c2.357-.002 4.267-1.911 4.268-4.268v-17.066c0-2.355-1.911-4.267-4.268-4.267h-34.133c-2.357.001-4.266 1.911-4.267 4.266v17.067c.001 2.357 1.91 4.267 4.267 4.268zm4.266-17.067h25.6v8.533h-25.6z"
    />
    <path
      d="m213.848 150.729c-1.912-.92-4.008-1.398-6.13-1.397h-11.451v-30.441c2.728-5.39 4.267-11.48 4.267-17.922v-56.157c0-8.239-6.707-14.946-14.944-14.946h-14.924v-4.267c.001-2.356-1.911-4.267-4.266-4.267h-17.067c-2.356.001-4.267 1.911-4.267 4.267v4.267h-17.067v-12.801c0-4.268-1.634-8.436-4.531-11.57-2.871-3.109-6.86-5.077-11.077-5.435-4.285-.364-8.608.926-11.986 3.582-3.307 2.599-5.588 6.395-6.295 10.543-.162.952-.244 1.915-.243 2.88v12.801h-17.067v-4.267c-.001-2.341-1.927-4.266-4.268-4.266h-17.065c-2.357 0-4.266 1.91-4.267 4.266v4.267h-14.917c-8.242 0-14.95 6.708-14.95 14.946v56.157c0 6.442 1.54 12.531 4.267 17.921v30.443h-11.452c-7.803-.001-14.148 6.345-14.148 14.144v59.827c0 3.913 3.184 7.095 7.096 7.095h18.504v4.268c0 11.764 9.57 21.333 21.333 21.333h128.001c11.762 0 21.332-9.571 21.332-21.333v-4.268h18.504c3.912 0 7.096-3.182 7.096-7.1v-59.822c.001-5.608-3.276-10.461-8.018-12.748-.618-.299 4.742 2.287 0 0zm-111.448-133.664c0-2.133.82-4.217 2.266-5.786 1.436-1.553 3.431-2.538 5.541-2.717 2.151-.179 4.292.461 5.993 1.791 1.652 1.299 2.792 3.198 3.146 5.272.082.476.122.957.122 1.44v12.801h-17.068zm105.319 140.799c3.097 0 5.615 2.519 5.615 5.611v15.723h-17.067v-21.334zm-48.645-42.666h-2.413c-1.677-.003-3.056-1.382-3.06-3.059v-5.474h8.532v5.474c-.003 1.667-1.393 3.057-3.059 3.059zm7.326-17.066h-21.332v-8.533h25.599v8.533zm-4.267-68.267v51.2h-8.532v-46.934-.023-4.243zm-110.931 59.733h25.598v8.534h-25.598zm8.532 17.067h8.532v5.474c-.002 1.678-1.382 3.057-3.059 3.059h-2.414c-1.678-.002-3.057-1.381-3.061-3.059zm8.534-76.8v51.2h-8.533v-51.201zm-38.401 14.947c0-3.537 2.88-6.413 6.417-6.413h14.917v42.666h-2.241c-3.469 0-6.292 2.824-6.292 6.292v13.013c0 3.47 2.825 6.293 6.292 6.293h2.241v5.475c0 6.391 5.202 11.592 11.592 11.592h2.414c6.392 0 11.593-5.201 11.593-11.592v-5.475h2.24c3.47 0 6.292-2.825 6.292-6.293v-13.013c0-3.468-2.824-6.292-6.292-6.292h-2.24v-42.668h68.267v42.667h-2.24c-3.469 0-6.292 2.825-6.292 6.293v13.013c0 3.469 2.824 6.293 6.292 6.293h2.24v5.475c0 6.391 5.201 11.592 11.593 11.592h2.414c6.391 0 11.592-5.201 11.592-11.592v-5.475h2.24c3.47 0 6.294-2.825 6.294-6.293v-13.012c0-3.47-2.826-6.293-6.294-6.293h-2.24v-42.668h14.921c3.538 0 6.414 2.876 6.414 6.413v56.158h-.001c0 4.563-1.003 9.109-2.942 13.241-1.882 4.002-4.586 7.564-7.935 10.453-3.531 3.048-7.74 5.3-12.245 6.516-2.665.721-5.414 1.086-8.174 1.086h-99.541c-5.338 0-10.644-1.383-15.298-4.002-3.846-2.169-7.195-5.12-9.831-8.662-2.662-3.578-4.545-7.719-5.478-12.081-.459-2.153-.691-4.349-.69-6.55zm-21.333 118.665c0-3.094 2.518-5.611 5.614-5.611h11.453v21.332h-17.067zm0 58.388v-34.133h17.066v34.133zm179.2 12.8c0 7.057-5.745 12.8-12.8 12.8h-128c-7.057 0-12.8-5.743-12.8-12.8v-104.44c3.966 3.664 8.635 6.484 13.724 8.289 4.273 1.512 8.773 2.284 13.305 2.285h99.542c5.668-.004 11.271-1.212 16.437-3.547 3.884-1.76 7.46-4.133 10.592-7.028v23.363l-.001.009v72.534l.001.009zm8.533-12.8v-34.135h17.067v34.134z"
    />
  </g>
</svg>
