<svg clip-rule="evenodd" fill-rule="evenodd" stroke-linejoin="round" stroke-miterlimit="2" viewBox="0 0 257 256" xmlns="http://www.w3.org/2000/svg">
  <g fill="#d8dee9" fill-rule="nonzero">
    <path
      d="m89.27 86.557c1.095 1.099 2.763 1.411 4.181.781l34.549-15.355 34.55 15.355c1.417.63 3.086.318 4.18-.782 1.095-1.099 1.399-2.769.762-4.184l-36.072-80.161c-.605-1.343-1.947-2.211-3.42-2.211s-2.815.868-3.419 2.211l-36.073 80.161c-.637 1.415-.333 3.085.762 4.185zm42.48-21.115v-44.221l24.874 55.276zm-7.5-44.221v44.221l-24.874 11.055z"
    />
    <path
      d="m136.274 91.927v20.815l-17.298-23.065c-.708-.943-1.821-1.5-3-1.5-2.058 0-3.75 1.693-3.75 3.75v32.065c0 2.057 1.692 3.75 3.75 3.75 2.057 0 3.75-1.693 3.75-3.75v-20.815l17.298 23.065c.708.943 1.821 1.5 3 1.5 2.057 0 3.75-1.693 3.75-3.75v-32.065c0-2.057-1.693-3.75-3.75-3.75s-3.75 1.693-3.75 3.75zm20.018-64.52c39.554 11.101 69.008 44.509 75.037 85.111.264 1.839 1.855 3.218 3.712 3.218 2.058 0 3.75-1.693 3.75-3.75 0-.191-.014-.381-.043-.57-6.463-43.521-38.034-79.331-80.43-91.23-.326-.09-.664-.136-1.003-.136-2.057 0-3.75 1.692-3.75 3.75 0 1.671 1.118 3.151 2.727 3.607zm-128.493 104.343c2.057 0 3.75-1.693 3.75-3.75s-1.693-3.75-3.75-3.75h-4.195c1.633-45.659 32.959-85.301 77.31-97.173 1.601-.462 2.711-1.938 2.711-3.604 0-2.058-1.693-3.751-3.751-3.751-.303 0-.606.036-.9.109-47.624 12.75-81.236 55.37-82.873 104.419h-12.351c-2.057 0-3.75 1.693-3.75 3.75s1.693 3.75 3.75 3.75zm224.451-7.5h-24.048c-2.057 0-3.75 1.693-3.75 3.75s1.693 3.75 3.75 3.75h4.191c-1.938 54.627-46.015 98.705-100.643 100.643v-4.192c0-2.057-1.693-3.75-3.75-3.75s-3.75 1.693-3.75 3.75v4.193c-23.854-.856-46.728-9.843-64.773-25.537-18.804-16.355-31.165-38.862-34.806-63.376-.304-2.048-2.213-3.465-4.26-3.158-2.035.302-3.461 2.225-3.158 4.26 3.903 26.28 17.15 50.406 37.302 67.933 19.41 16.881 44.032 26.523 69.695 27.382v12.352c0 2.057 1.693 3.75 3.75 3.75s3.75-1.693 3.75-3.75v-12.351c28.502-.932 55.162-12.465 75.423-32.726 20.262-20.261 31.794-46.922 32.726-75.423h12.351c2.058 0 3.75-1.693 3.75-3.75s-1.692-3.75-3.75-3.75z"
    />
  </g>
</svg>
