<svg clip-rule="evenodd" fill-rule="evenodd" stroke-linejoin="round" stroke-miterlimit="2" viewBox="0 0 240 256" xmlns="http://www.w3.org/2000/svg">
  <path
    d="m239.218 57.613-12.024-16.032c-.2-.267-.434-.506-.698-.71-32.027-24.911-75.524-31.256-87.247-32.557-1.479-4.808-5.962-8.314-11.249-8.314h-16.032c-5.287 0-9.77 3.506-11.248 8.314-11.724 1.301-55.22 7.646-87.248 32.556-.263.205-.497.444-.698.71l-12.024 16.032c-.487.65-.75 1.44-.75 2.251 0 2.057 1.693 3.75 3.75 3.75.46 0 .917-.085 1.346-.25.515-.198 51.832-19.791 82.824-19.791 1.599 0 3.029-1.034 3.551-2.545.114-.328 2.467-6.916 8.731-8.91v7.705c0 5.879 3.235 11.014 8.016 13.727v30.364c0 2.057 1.693 3.75 3.75 3.75 2.058 0 3.75-1.693 3.75-3.75v-4.268h8.532v164.589c0 2.352-1.914 4.266-4.266 4.266s-4.266-1.914-4.266-4.266v-144.289c0-2.057-1.692-3.75-3.75-3.75-2.057 0-3.75 1.693-3.75 3.75v144.289c0 6.487 5.278 11.766 11.766 11.766s11.766-5.279 11.766-11.766v-190.685c4.781-2.713 8.016-7.847 8.016-13.726v-7.705c6.265 1.994 8.617 8.578 8.725 8.891.509 1.527 1.948 2.563 3.557 2.564 2.372 0 4.962.116 7.698.348 2.05.173 3.879-1.371 4.052-3.421.009-.105.014-.21.014-.316 0-1.938-1.503-3.573-3.435-3.737-2.032-.172-3.996-.285-5.867-.338-1.865-3.676-6.295-10.195-14.744-11.729v-8.435c12.695 1.588 52.693 8.177 81.732 30.541l4.24 5.655c-11.858-4.037-30.899-9.996-48.95-13.382-.241-.048-.487-.072-.733-.072-2.057 0-3.75 1.693-3.75 3.75 0 1.813 1.315 3.379 3.1 3.693 28.273 5.304 59.159 17.115 59.467 17.233.43.165.886.25 1.345.25 2.058 0 3.751-1.693 3.751-3.751 0-.811-.263-1.6-.75-2.249zm-153.76-21.505c-23.109.659-54.369 10.245-71.204 15.999l4.217-5.621c28.998-22.333 69.029-28.943 81.731-30.539v8.432c-8.448 1.534-12.878 8.053-14.744 11.729zm38.792 36.037h-8.532v-16.555c.086.001.172.006.258.006h8.016c.087 0 .172-.005.258-.006zm8.016-32.323c0 4.563-3.711 8.274-8.274 8.274h-8.016c-4.562 0-8.274-3.712-8.274-8.274v-28.056c0-2.353 1.914-4.266 4.266-4.266h16.032c2.353 0 4.266 1.914 4.266 4.266z"
    fill="#d8dee9"
    fill-rule="nonzero"
  />
</svg>
