<svg viewBox="0 0 1200 164" xmlns="http://www.w3.org/2000/svg">
  <path d="m0 0h1200v164h-1200z" fill="#eceff4" />
  <path
    d="m824.828 37.507h2.448v87.394h-2.448v-17.626c-1.795 5.749-4.917 10.391-9.363 13.922-4.449 3.529-9.813 5.295-16.096 5.295-8.16 0-14.67-3.066-19.523-9.197-4.855-6.131-7.282-14.021-7.282-23.668 0-9.316 2.388-17.167 7.161-23.542 4.772-6.376 11.32-9.566 19.645-9.566 6.527 0 11.975 1.713 16.34 5.141 4.365 3.426 7.324 8.078 8.875 13.953zm-25.459 25.459c-7.998 0-14.057 3.068-18.177 9.199-4.122 6.131-6.181 13.286-6.181 21.461 0 8.588 2.1 15.805 6.303 21.648 4.202 5.847 10.221 8.77 18.055 8.77 7.751 0 13.933-2.943 18.543-8.83 4.609-5.888 6.916-13.084 6.916-21.588 0-9.646-2.285-17.167-6.854-22.565-4.571-5.395-10.771-8.095-18.605-8.095zm-52.753 61.935h-2.447v-62.914h2.447v15.545c1.388-5.14 4.101-9.26 8.14-12.362 4.039-3.1 9.648-4.651 16.83-4.651v2.448c-8.16 0-14.363 2.509-18.604 7.528-4.244 5.018-6.365 11.282-6.365 18.788v35.618zm-40.882-64.382c8.813 0 15.729 3.209 20.748 9.628 5.018 6.418 7.527 14.203 7.527 23.359s-2.531 16.943-7.589 23.361c-5.06 6.418-11.995 9.625-20.808 9.625s-15.729-3.188-20.747-9.564c-5.019-6.376-7.528-14.186-7.528-23.422 0-9.156 2.51-16.941 7.528-23.359s11.975-9.628 20.869-9.628zm0 63.526c8.08 0 14.402-2.963 18.973-8.893 4.568-5.928 6.855-13.144 6.855-21.646 0-8.34-2.308-15.515-6.916-21.524-4.611-6.008-10.916-9.016-18.912-9.016-8.077 0-14.423 2.986-19.033 8.955-4.609 5.969-6.915 13.163-6.915 21.585s2.306 15.617 6.915 21.586c4.611 5.969 10.956 8.953 19.033 8.953zm-104.528-86.538h3.673l59.73 84.33.244-84.33h2.449v87.394l-3.573-.071-59.831-84.471-.244 84.542h-2.448z"
    fill="#88c0d0"
  />
  <g fill="#4c566a">
    <path d="m487.372 153.252-58.488-74.865v-20.772l64.822 83.799h34.834v-117.998h-58.583l-12.667-12.667h83.916v142.503z" />
    <path d="m426.557 10.749 58.487 74.862v20.772l-64.82-83.798h-34.834v117.999h58.584l12.665 12.666h-83.915v-142.501z" />
  </g>
</svg>
