<svg viewBox="0 0 190 167" xmlns="http://www.w3.org/2000/svg">
  <path d="m183.827 81.047-129.038-78.281-27.002 44.421 129.038 78.28c3.332 2.021 7.674.962 9.698-2.366l19.673-32.367c2.024-3.328.963-7.665-2.369-9.687" fill="#eceff4"/>
  <path d="m140.091 70.869-12.477 20.524c-1.197 1.97-.569 4.536 1.402 5.732l20.545 12.464c1.972 1.196 4.542.569 5.739-1.4l12.476-20.525c1.198-1.97.57-4.537-1.401-5.733l-20.545-12.464c-1.974-1.196-4.542-.569-5.739 1.402" fill="#ebcb8b"/>
  <path d="m110.69 86.007-20.545-12.464c-1.972-1.196-2.599-3.762-1.402-5.731l12.474-20.525c1.198-1.971 3.768-2.598 5.739-1.402l20.546 12.464c1.972 1.196 2.6 3.763 1.402 5.733l-12.475 20.525c-1.198 1.969-3.768 2.598-5.739 1.4" fill="#a3be8c"/>
  <path d="m62.346 23.705-12.476 20.525c-1.197 1.969-.569 4.537 1.403 5.733l20.545 12.464c1.972 1.196 4.541.569 5.74-1.401l12.475-20.525c1.197-1.971.57-4.537-1.403-5.733l-20.545-12.463c-1.972-1.197-4.541-.569-5.739 1.4" fill="#b48ead"/>
  <path d="m125.029 136.266-70.24-133.501-46.049 24.181 70.242 133.5c1.813 3.446 6.081 4.773 9.532 2.96l33.55-17.618c3.452-1.811 4.78-6.076 2.965-9.522" fill="#eceff4"/>
  <path d="m92.789 105.035-21.276 11.172c-2.043 1.071-2.827 3.596-1.754 5.636l11.185 21.254c1.072 2.041 3.597 2.825 5.639 1.753l21.276-11.172c2.042-1.073 2.828-3.596 1.755-5.636l-11.184-21.255c-1.073-2.04-3.599-2.825-5.641-1.752" fill="#5e81ac"/>
  <path d="m59.783 102.881-11.183-21.254c-1.074-2.041-.288-4.563 1.754-5.636l21.276-11.172c2.041-1.072 4.567-.289 5.64 1.752l11.185 21.255c1.072 2.04.287 4.563-1.754 5.636l-21.278 11.172c-2.041 1.073-4.567.288-5.64-1.753" fill="#bf616a"/>
  <path d="m50.47 24.603-21.276 11.173c-2.042 1.072-2.828 3.596-1.754 5.635l11.183 21.256c1.075 2.039 3.599 2.824 5.642 1.752l21.276-11.173c2.042-1.072 2.826-3.596 1.754-5.635l-11.183-21.256c-1.074-2.039-3.599-2.824-5.642-1.752" fill="#d08770"/>
  <path d="m9.826 2.766c-3.899 0-7.059 3.156-7.059 7.052v143.767c0 3.894 3.16 7.05 7.059 7.05h37.903c3.898 0 7.059-3.156 7.059-7.05v-150.819z" fill="#eceff4"/>
  <path d="m40.795 110.955h-24.036c-2.307 0-4.177 1.867-4.177 4.172v24.013c0 2.304 1.87 4.173 4.177 4.173h24.036c2.308 0 4.177-1.869 4.177-4.173v-24.013c0-2.305-1.869-4.172-4.177-4.172" fill="#81a1c1"/>
  <path d="m12.582 93.707v-24.013c0-2.305 1.871-4.173 4.177-4.173h24.037c2.306 0 4.176 1.868 4.176 4.173v24.013c0 2.305-1.87 4.173-4.176 4.173h-24.037c-2.306 0-4.177-1.868-4.177-4.173" fill="#88c0d0"/>
  <path d="m40.795 20.089h-24.036c-2.307 0-4.177 1.868-4.177 4.173v24.013c0 2.305 1.87 4.173 4.177 4.173h24.036c2.308 0 4.177-1.868 4.177-4.173v-24.013c0-2.305-1.869-4.173-4.177-4.173" fill="#8fbcbb"/>
  <g fill="#4c566a">
    <path d="m15.382 24.277c0-.768.625-1.391 1.393-1.391h24.037c.768 0 1.393.623 1.393 1.391v24.012c0 .767-.625 1.393-1.393 1.393h-24.037c-.768 0-1.393-.626-1.393-1.393zm1.393 30.965h24.037c3.839 0 6.961-3.118 6.961-6.953v-24.012c0-3.834-3.122-6.953-6.961-6.953h-24.037c-3.837 0-6.96 3.119-6.96 6.953v24.012c0 3.835 3.123 6.953 6.96 6.953"/>
    <path d="m15.382 115.143c0-.768.625-1.393 1.393-1.393h24.037c.768 0 1.393.625 1.393 1.393v24.012c0 .767-.625 1.391-1.393 1.391h-24.037c-.768 0-1.393-.624-1.393-1.391zm-5.567 24.012c0 3.834 3.123 6.953 6.96 6.953h24.037c3.839 0 6.961-3.119 6.961-6.953v-24.012c0-3.835-3.122-6.954-6.961-6.954h-24.037c-3.837 0-6.96 3.119-6.96 6.954z"/>
    <path d="m15.382 69.709c0-.767.625-1.391 1.393-1.391h24.037c.768 0 1.393.624 1.393 1.391v24.014c0 .767-.625 1.391-1.393 1.391h-24.037c-.768 0-1.393-.624-1.393-1.391zm-5.567 24.014c0 3.832 3.123 6.953 6.96 6.953h24.037c3.839 0 6.961-3.121 6.961-6.953v-24.014c0-3.834-3.122-6.954-6.961-6.954h-24.037c-3.837 0-6.96 3.12-6.96 6.954z"/>
    <path d="m94.746 107.35c.409 0 .947.196 1.236.746 0 0 11.178 21.241 11.185 21.255.338.643.092 1.524-.586 1.88 0 0-21.27 11.169-21.276 11.172-.674.355-1.528.089-1.882-.584l-11.184-21.255c-.356-.68-.094-1.523.585-1.881l21.276-11.171c.203-.108.421-.162.646-.162m-24.512 6.411c-3.396 1.783-4.708 5.996-2.922 9.389 0 0 11.177 21.244 11.183 21.257 1.76 3.343 6.052 4.677 9.4 2.919 0 0 21.267-11.166 21.278-11.172 3.352-1.761 4.684-6.04 2.921-9.391 0 0-11.177-21.243-11.184-21.254-1.761-3.348-6.049-4.681-9.398-2.921z"/>
    <path d="m143.681 71.657c.255 0 .498.068.718.203l20.546 12.463c.656.398.867 1.256.468 1.911 0 0-12.447 20.478-12.476 20.526-.394.649-1.265.861-1.915.467l-20.545-12.463c-.657-.399-.867-1.257-.467-1.913l12.476-20.525c.255-.419.702-.669 1.195-.669m-5.953-2.217-12.476 20.525c-1.993 3.277-.944 7.562 2.336 9.553 0 0 20.541 12.461 20.546 12.464 3.249 1.972 7.591.906 9.562-2.335l12.476-20.525c1.992-3.277.944-7.563-2.337-9.553 0 0-20.541-12.461-20.545-12.464-3.251-1.972-7.592-.908-9.562 2.335"/>
    <path d="m120.786 143.341s-33.537 17.612-33.55 17.619c-2.066 1.084-4.688.268-5.774-1.793l-23.875-45.375v-9.162c1.268 2.034 3.488 3.28 5.913 3.28 1.12 0 2.239-.277 3.235-.8 0 0 21.266-11.166 21.276-11.172 3.357-1.762 4.688-6.035 2.924-9.391 0 0-11.177-21.24-11.185-21.255-1.761-3.349-6.047-4.68-9.398-2.919l-12.765 6.701v-8.487s9.26-4.861 9.266-4.865c3.351-1.759 4.685-6.04 2.922-9.39l-11.183-21.256c-.273-.517-.612-.996-1.005-1.428v-9.601l64.995 123.528c1.097 2.083.291 4.671-1.796 5.766m-33.584-106.181c.657.399.867 1.256.467 1.912l-5.695 9.371-11.17-21.231zm-29.615 38.198s15.328-8.049 15.355-8.063c.674-.354 1.526-.088 1.882.585l11.182 21.255c.356.676.087 1.526-.585 1.879 0 0-21.272 11.171-21.276 11.173-.673.353-1.528.088-1.881-.584l-4.677-8.887zm0-40.235s7.252 13.783 7.261 13.798c.34.648.1 1.519-.586 1.879l-6.675 3.504zm46.028 13.622c.394-.65 1.265-.86 1.914-.468l20.545 12.464c.651.395.863 1.263.468 1.913 0 0-12.458 20.495-12.475 20.525-.396.651-1.265.861-1.916.467l-17.119-10.384-2.932-5.574s11.476-18.881 11.515-18.943m86.085 36.02c-.602-2.459-2.124-4.692-4.412-6.079l-36.079-21.888c-1.314-.798-3.026-.379-3.823.933-.799 1.313-.38 3.023.933 3.821 0 0 36.043 21.865 36.08 21.888 1.982 1.203 2.638 3.887 1.435 5.866 0 0-19.659 32.341-19.675 32.366-1.209 1.991-3.879 2.643-5.873 1.434l-54.388-32.995-3.838-7.292s9.201 5.58 9.202 5.58c3.251 1.974 7.593.907 9.563-2.334 0 0 12.47-20.517 12.475-20.524 1.97-3.241.901-7.589-2.336-9.553 0 0-20.541-12.46-20.545-12.463-3.252-1.973-7.594-.906-9.563 2.334l-9.778 16.085-4.082-7.757 7.432-12.228c1.993-3.276.943-7.562-2.337-9.553l-20.545-12.463c-.935-.568-1.998-.892-3.08-.975l-4.529-8.607 74.888 45.432c1.314.796 3.026.378 3.825-.934.797-1.313.378-3.024-.934-3.82l-83.466-50.635c-.433-.262-.941-.404-1.446-.404h-44.962c-5.427 0-9.842 4.411-9.842 9.832v44.442c0 1.537 1.246 2.782 2.783 2.782 1.538 0 2.784-1.245 2.784-2.782v-44.442c0-2.354 1.918-4.27 4.275-4.27h42.179v148.037c0 2.354-1.917 4.271-4.276 4.271h-37.903c-2.357 0-4.275-1.917-4.275-4.271v-88.228c0-1.537-1.246-2.782-2.784-2.782-1.537 0-2.783 1.245-2.783 2.782v88.228c0 5.422 4.415 9.833 9.842 9.833h37.903c5.427 0 9.842-4.411 9.842-9.833v-27.854s18.943 36 18.947 36.01c2.491 4.733 8.552 6.616 13.292 4.128l33.551-17.618c4.803-2.523 6.657-8.479 4.132-13.278l-18.581-35.318s46.441 28.175 46.469 28.19c4.585 2.782 10.746 1.267 13.521-3.299 0 0 19.666-32.352 19.674-32.367 1.391-2.289 1.709-4.971 1.108-7.428"/>
  </g>
</svg>
