<svg viewBox="0 0 205 204" xmlns="http://www.w3.org/2000/svg">
  <path d="m88.045 200.086c8.845 1.111 16.916-5.16 18.027-14.007.404-3.209-.166-6.465-1.636-9.347-.725-1.421-1.504-2.869-2.339-4.341-20.074-35.139 7.766-52.688 42.313-30.504 28.116 18.039 56.629-12.846 56.629-39.775-.012-54.657-44.319-98.956-98.964-98.944-54.644.012-98.933 44.33-98.921 98.987.011 49.165 36.103 90.867 84.748 97.921z" fill="#eceff4"/>
  <path d="m156.212 70.022c11.25 0 20.369 9.122 20.369 20.374 0 11.253-9.119 20.375-20.369 20.375s-20.369-9.122-20.369-20.375c0-11.252 9.119-20.374 20.369-20.374" fill="#5e81ac"/>
  <path d="m115.295 24.473c9.966 0 18.045 8.081 18.045 18.049s-8.079 18.05-18.045 18.05-18.045-8.082-18.045-18.05 8.079-18.049 18.045-18.049" fill="#81a1c1"/>
  <path d="m60.899 43.772c9.232 0 16.715 7.486 16.715 16.719 0 9.234-7.483 16.719-16.715 16.719-9.231 0-16.715-7.485-16.715-16.719 0-9.233 7.484-16.719 16.715-16.719" fill="#88c0d0"/>
  <path d="m42.691 93.714c8.408 0 15.225 6.818 15.225 15.228 0 8.411-6.817 15.229-15.225 15.229s-15.224-6.818-15.224-15.229c0-8.41 6.816-15.228 15.224-15.228" fill="#8fbcbb"/>
  <path d="m62.567 141.152c7.092 0 12.84 5.75 12.84 12.843s-5.748 12.843-12.84 12.843c-7.091 0-12.84-5.75-12.84-12.843s5.749-12.843 12.84-12.843" fill="#d8dee9"/>
  <g fill="#4c566a">
    <path d="m171.427 104.297c1.436.961 3.379.576 4.34-.86.001-.001.003-.002.004-.005 7.197-10.802 4.277-25.396-6.524-32.596-10.8-7.199-25.391-4.278-32.588 6.524-7.198 10.804-4.277 25.398 6.523 32.597 3.856 2.571 8.386 3.943 13.02 3.946 1.729 0 3.131-1.402 3.131-3.132s-1.402-3.131-3.131-3.131c-9.519-.002-17.235-7.721-17.234-17.243.001-9.521 7.719-17.239 17.238-17.238s17.235 7.721 17.234 17.242c0 3.4-1.006 6.724-2.89 9.554-.955 1.442-.563 3.384.877 4.342"/>
    <path d="m115.295 57.44c-8.237 0-14.914-6.679-14.914-14.918s6.677-14.918 14.914-14.918 14.914 6.679 14.914 14.918c-.009 8.235-6.681 14.908-14.914 14.918m0-36.097c-11.695 0-21.176 9.483-21.176 21.182 0 11.698 9.481 21.181 21.176 21.181s21.177-9.483 21.177-21.181c-.013-11.694-9.487-21.169-21.177-21.182"/>
    <path d="m60.899 74.081c-7.502 0-13.584-6.083-13.584-13.587s6.082-13.587 13.584-13.587c7.503 0 13.584 6.083 13.584 13.587-.009 7.5-6.086 13.577-13.584 13.587m0-33.441c-10.96 0-19.846 8.888-19.846 19.851s8.886 19.851 19.846 19.851c10.961 0 19.846-8.888 19.846-19.851-.012-10.958-8.89-19.838-19.846-19.851"/>
    <path d="m42.691 121.039c-6.679 0-12.093-5.416-12.093-12.097s5.414-12.096 12.093-12.096c6.68 0 12.094 5.415 12.094 12.096-.007 6.678-5.417 12.089-12.094 12.097m18.356-12.097c0-10.14-8.218-18.36-18.356-18.36-10.137 0-18.355 8.22-18.355 18.36s8.218 18.361 18.355 18.361c10.133-.012 18.345-8.225 18.356-18.361"/>
    <path d="m62.57 144.284c5.363 0 9.712 4.349 9.712 9.714s-4.349 9.714-9.712 9.714-9.711-4.349-9.711-9.714c.005-5.362 4.35-9.708 9.711-9.714m0 25.686c8.822 0 15.974-7.153 15.974-15.977s-7.152-15.978-15.974-15.978-15.974 7.154-15.974 15.978v.003c.012 8.818 7.157 15.964 15.974 15.974"/>
    <path d="m171.733 27.459c-34.719-32.453-87.253-36.597-126.627-9.989-1.445.95-1.845 2.893-.894 4.338.95 1.444 2.892 1.845 4.336.894.022-.014.043-.029.065-.043 36.956-24.973 86.263-21.081 118.846 9.38 19.387 18.151 30.407 43.512 30.449 70.073-.419 15.811-8.926 30.299-22.527 38.366-9.171 5.306-20.585 4.828-29.281-1.227-18.847-12.096-37.518-13.746-47.565-4.202-8.677 8.243-8.361 22.784.844 38.898.81 1.418 1.562 2.818 2.254 4.201 2.244 4.351 1.838 9.595-1.044 13.55-2.753 3.938-7.5 5.977-12.251 5.261-52.329-7.544-88.636-56.091-81.093-108.432 2.845-19.749 11.789-38.117 25.579-52.534 1.196-1.251 1.151-3.233-.098-4.429-1.25-1.195-3.232-1.151-4.428.099-38.941 40.711-37.515 105.289 3.185 144.24 15.403 14.74 35.036 24.283 56.141 27.287.885.121 1.777.183 2.67.183 6.143.007 11.9-2.998 15.407-8.042 4.199-5.864 4.789-13.577 1.531-20.012-.752-1.481-1.557-2.974-2.417-4.477-7.678-13.447-8.415-25.13-1.966-31.254 6.447-6.123 21.291-6.992 39.869 4.934 10.635 7.267 24.481 7.831 35.67 1.454 15.558-9.219 25.294-25.783 25.783-43.864-.045-28.296-11.785-55.316-32.438-74.653"/>
  </g>
</svg>
