<svg viewBox="0 0 227 245" xmlns="http://www.w3.org/2000/svg">
  <path
    d="m120.868 19.712v148.72c0 9.36 7.596 16.948 16.963 16.948 9.369 0 16.964-7.588 16.964-16.948v-24.213c0-9.359 7.595-16.948 16.965-16.948 9.369 0 16.964 7.589 16.964 16.948v79.625c0 9.36 7.594 16.948 16.963 16.948 9.37 0 16.963-7.588 16.963-16.948v-204.132c0-2.636-2.138-4.773-4.777-4.773h-92.227c-2.639 0-4.778 2.137-4.778 4.773"
    fill="#88c0d0"
  />
  <path
    d="m217.873 14.939c2.638 0 4.777 2.137 4.777 4.773v204.131c0 4.683-1.898 8.915-4.969 11.984-3.067 3.065-7.31 4.965-11.992 4.965-1.763 0-3.464-.268-5.06-.768 2.648-.827 5.022-2.282 6.938-4.197 3.072-3.069 4.968-7.301 4.968-11.984v-208.904z"
    fill="#81a1c1"
  />
  <path
    d="m83.66 122.154 6.086-6.08-13.912-13.899-6.085 6.08c-12.154 12.142-25.977 22.458-40.831 31.197-3.848 2.263-7.705 5.233-11.311 8.833-13.072 13.06-17.853 29.462-10.678 36.631 7.176 7.169 23.59 2.392 36.665-10.669 3.603-3.602 6.576-7.455 8.841-11.299 8.747-14.843 19.07-28.651 31.225-40.794"
    fill="#5e81ac"
  />
  <path
    d="m89.747 116.074-6.087 6.079c-12.155 12.144-22.478 25.952-31.225 40.796-2.265 3.843-5.237 7.694-8.844 11.298-13.07 13.059-29.487 17.837-36.662 10.667-1.155-1.155-1.997-2.544-2.545-4.118 8.241 2.878 21.568-2.253 32.538-13.212 3.607-3.599 6.578-7.455 8.843-11.298 8.747-14.845 19.072-28.652 31.225-40.796l6.087-6.08z"
    fill="#81a1c1"
  />
  <path d="m136.368 126.947-71.416-71.351 50.279-50.234c2.387-2.383 6.255-2.383 8.642 0l62.776 62.718c2.386 2.383 2.386 6.25 0 8.632z" fill="#88c0d0" />
  <path
    d="m186.647 76.716-50.279 50.231-7.094-7.088 50.283-50.232c2.361-2.362 2.383-6.167.071-8.557l7.019 7.01c2.388 2.383 2.388 6.25 0 8.636"
    fill="#81a1c1"
  />
  <path
    d="m112.503 148.804-69.428-69.364c-2.387-2.384-2.387-6.25 0-8.634l19.01-18.993c2.387-2.384 6.255-2.384 8.642 0l69.428 69.364c2.387 2.384 2.387 6.249 0 8.634l-19.01 18.993c-2.387 2.384-6.256 2.384-8.642 0"
    fill="#d8dee9"
  />
  <g fill="#4c566a">
    <path
      d="m217.873 11.359h-27.888c-1.98 0-3.583 1.602-3.583 3.58 0 1.976 1.603 3.58 3.583 3.58h27.888c.658 0 1.194.535 1.194 1.193v140.255c0 1.977 1.604 3.58 3.583 3.58 1.98 0 3.584-1.603 3.584-3.58v-140.255c0-4.607-3.75-8.353-8.361-8.353"
    />
    <path
      d="m115.037 146.272-69.43-69.364c-.985-.984-.985-2.586 0-3.57l19.012-18.993c.478-.477 1.112-.74 1.786-.74.676 0 1.31.263 1.788.74l69.428 69.364c.986.984.986 2.586 0 3.57l-19.01 18.993c-.478.477-1.113.74-1.788.74-.676 0-1.309-.263-1.786-.74m2.728-138.379c.985-.984 2.588-.984 3.573 0l62.776 62.719c.985.983.985 2.586 0 3.568l-42.966 42.927-16.76-16.744 7.26-7.253c1.399-1.4 1.399-3.665 0-5.064-1.4-1.396-3.67-1.396-5.067 0l-7.262 7.253-25.375-25.353 7.261-7.252c1.4-1.397 1.4-3.664 0-5.062-1.4-1.397-3.669-1.399-5.067 0l-7.261 7.252-3.861-3.857 28.574-28.548c1.4-1.4 1.4-3.665 0-5.063-1.399-1.399-3.668-1.399-5.066 0l-28.577 28.547-5.148-5.143zm104.885 164.083c-1.979 0-3.583 1.602-3.583 3.58v48.287c0 7.372-6.002 13.369-13.38 13.369-7.379 0-13.38-5.997-13.38-13.369v-79.624c0-11.319-9.219-20.527-20.549-20.527-11.329 0-20.546 9.208-20.546 20.527v24.213c0 7.372-6.004 13.368-13.381 13.368s-13.381-5.996-13.381-13.368v-17.868l18.238-18.223c2.488-2.486 3.327-5.996 2.539-9.183l43.956-43.914c3.778-3.775 3.778-9.92 0-13.696l-47.076-47.029h32.273c1.98 0 3.583-1.604 3.583-3.58 0-1.978-1.603-3.58-3.583-3.58h-39.439l-8.533-8.527c-3.782-3.776-9.93-3.776-13.71 0l-43.951 43.908c-.758-.186-1.539-.294-2.342-.294-2.588 0-5.024 1.006-6.854 2.835l-19.011 18.995c-3.779 3.775-3.779 9.918 0 13.694l25.212 25.19c-11.07 10.803-24.06 20.624-38.652 29.206-4.244 2.497-8.289 5.655-12.027 9.388-6.74 6.736-11.656 14.568-13.84 22.055-2.398 8.23-1.275 15.205 3.162 19.638 2.96 2.957 7.022 4.404 11.714 4.404 6.867-.002 15.078-3.104 23.127-9.106 1.584-1.183 1.911-3.427.727-5.009-1.184-1.585-3.429-1.911-5.014-.728-10.243 7.637-20.96 9.899-25.488 5.377-2.467-2.466-2.957-7.047-1.347-12.573 1.851-6.35 6.123-13.095 12.028-18.995 3.308-3.305 6.873-6.093 10.594-8.28 15.115-8.891 28.587-19.086 40.082-30.313l8.87 8.86c-11.24 11.486-21.442 24.945-30.341 40.047-1.113 1.887-2.421 3.786-3.891 5.646-1.227 1.551-.962 3.803.591 5.028.657.518 1.441.77 2.219.77 1.058 0 2.107-.466 2.814-1.361 1.672-2.114 3.167-4.285 4.442-6.451 8.592-14.58 18.422-27.557 29.235-38.617l25.211 25.187c1.831 1.831 4.264 2.838 6.855 2.838.154 0 .308-.015.46-.022v14.283c0 11.319 9.219 20.527 20.548 20.527 11.33 0 20.547-9.208 20.547-20.527v-24.213c0-7.37 6.004-13.368 13.383-13.368 7.376 0 13.38 5.996 13.38 13.368v79.624c0 11.32 9.216 20.529 20.546 20.529 11.331 0 20.548-9.209 20.548-20.529v-48.287c-.001-1.978-1.605-3.58-3.585-3.58"
    />
    <path
      d="m70.596 83.439c-1.4-1.398-3.669-1.398-5.068 0-1.399 1.399-1.399 3.664 0 5.062l37.905 37.87c.7.697 1.616 1.048 2.534 1.048.917 0 1.833-.351 2.533-1.048 1.399-1.4 1.399-3.665 0-5.064z"
    />
    <path d="m202.329 86.998h-.037c-1.98 0-3.564 1.602-3.564 3.58s1.621 3.58 3.601 3.58c1.981 0 3.583-1.602 3.583-3.58s-1.602-3.58-3.583-3.58" />
    <path
      d="m205.282 96.783c-1.98.026-3.544 1.648-3.52 3.624.024 1.961 1.642 3.535 3.6 3.535h.046c1.979-.026 3.563-1.648 3.539-3.624-.024-1.962-1.624-3.535-3.583-3.535z"
    />
    <path d="m183.043 107.811c-1.98 0-3.565 1.601-3.565 3.579 0 1.977 1.623 3.58 3.603 3.58 1.979 0 3.583-1.603 3.583-3.58 0-1.978-1.604-3.579-3.583-3.579z" />
  </g>
</svg>
