<svg clip-rule="evenodd" fill-rule="evenodd" stroke-linejoin="round" stroke-miterlimit="2" viewBox="0 0 176 256" xmlns="http://www.w3.org/2000/svg">
  <g fill="#4c566a" fill-rule="nonzero">
    <path d="m155.109 128.512c-2.135-34.634-30.49-62.234-65.168-63.458-38.539-1.361-70.311 29.663-70.178 67.935.127 36.681 29.819 66.827 66.495 67.488 13.874.25 26.828-3.697 37.68-10.651 1.976-1.265 2.254-4.048.604-5.715-.02-.018-.038-.037-.057-.056-1.227-1.239-3.152-1.461-4.621-.522-9.353 5.983-20.46 9.455-32.364 9.455-30.197 0-55.274-22.335-59.582-51.354.005-.028.013-.054.017-.082 4.887-31.037 29.869-53.564 59.403-53.564 29.711 0 55.201 23.479 59.572 54.731-1.545 9.235-5.199 17.765-10.447 25.077-1.046 1.458-.862 3.465.401 4.74l.053.054c1.626 1.643 4.327 1.402 5.674-.477 5.85-8.164 9.934-17.676 11.686-27.972.13-.384.2-.792.198-1.213.721-4.769.933-9.602.634-14.416zm-22.989-30.098c-12.368-11.56-28.272-17.927-44.782-17.927-16.163 0-31.813 6.132-44.067 17.267-4.958 4.505-9.24 9.717-12.748 15.44 8.137-23.646 30.604-40.683 56.977-40.683 26.814 0 49.588 17.611 57.373 41.873-3.466-5.904-7.75-11.294-12.753-15.97z"/>
    <path d="m119.034 103.734c-.721-.395-1.553-.542-2.365-.417l-.013.002c-.191.031-.38.075-.565.133-.041.013-.082.028-.123.042-.062.022-.123.045-.183.069-.051.021-.102.046-.152.07-.053.025-.106.049-.158.076-.01.005-.02.009-.03.015l-27.229 14.729c-.276.151-.531.335-.761.549-10.042.025-18.204 8.201-18.204 18.249 0 .663.037 1.318.107 1.963-.024.036-.05.071-.073.108l-15.73 26.228c-.013.023-.023.046-.036.069-.072.126-.136.255-.193.388-.052.123-.099.249-.138.377-.023.077-.044.155-.062.233-.011.046-.023.093-.032.139-.021.105-.036.21-.047.316-.002.018-.006.037-.008.055-.011.118-.017.236-.017.354 0 2.056 1.692 3.748 3.749 3.748.641 0 1.271-.164 1.831-.477l27.229-15.229c.05-.029.097-.061.146-.092.503.042 1.01.069 1.523.069 10.063 0 18.25-8.187 18.25-18.25 0-.481-.024-.955-.061-1.427l14.827-26.997c.99-1.803.321-4.101-1.482-5.092zm-51.807 53.6 5.57-9.289c1.114 1.513 2.453 2.846 3.971 3.953zm20.273-9.334c-5.927 0-10.75-4.823-10.75-10.75 0-5.928 4.823-10.75 10.75-10.75 5.928 0 10.75 4.822 10.75 10.75 0 5.927-4.822 10.75-10.75 10.75zm14.745-21.486c-1.306-1.788-2.925-3.326-4.777-4.54l10.343-5.595z"/>
    <path d="m175 132.75c0-43.657-32.139-79.948-74-86.458v-5.95c3.28-.693 5.75-3.609 5.75-7.092v-3.5c0-1.354-.38-2.618-1.029-3.704.683-2.029 1.031-4.155 1.029-6.296 0-10.89-8.86-19.75-19.75-19.75s-19.75 8.86-19.75 19.75c0 2.587.498 5.094 1.467 7.463-.307.811-.465 1.67-.467 2.537v3.5c0 3.118 1.983 5.774 4.75 6.796v6.412c-41.37 6.929-73 42.983-73 86.292 0 2.17.248 94.577.25 95.5 0 7.582 6.169 13.75 13.75 13.75 7.582 0 13.75-6.168 13.75-13.75v-12.575c8.116 7.643 17.649 13.704 28 17.776v5.299c0 7.582 6.169 13.75 13.75 13.75 7.37 0 13.402-5.828 13.734-13.117 1.505.077 3.014.117 4.516.117 5.211 0 10.405-.464 15.5-1.375v4.125c0 7.582 6.169 13.75 13.75 13.75 7.582 0 13.75-6.168 13.75-13.75v-14.031c6.153-3.473 11.862-7.682 17-12.532v6.063c0 7.582 6.169 13.75 13.75 13.75 7.582 0 13.75-6.168 13.75-13.761-.002-.868-.25-86.832-.25-88.989zm-88-125.25c6.755 0 12.25 5.495 12.25 12.25 0 .935-.116 1.853-.321 2.75h-23.429c-.146 0-.289.013-.433.022-.211-.909-.317-1.839-.317-2.772 0-6.755 5.495-12.25 12.25-12.25zm-11.25 25.5v-3h23.5v3zm17.75 7.5v4.959c-1.983-.135-3.983-.209-6-.209-2.356 0-4.69.096-7 .28v-5.03zm-37.75 184.834c-10.655-4.662-20.261-11.66-28-20.428v-8.238c8.126 7.593 17.641 13.596 28 17.634zm47.5 5.159c-5.106 1.001-10.297 1.506-15.5 1.507-1.497 0-3.001-.047-4.5-.13v-11.726c1.43.07 2.851.106 4.25.106 5.284 0 10.563-.478 15.75-1.422zm44.5-25.584c-4.992 5.658-10.69 10.537-17 14.561v-10.649c6.158-3.502 11.866-7.74 17-12.621zm13.75 23.091c-3.446 0-6.25-2.804-6.25-6.25v-34.988c-.001-2.057-1.693-3.749-3.75-3.749-1.104 0-2.153.487-2.865 1.329-6.572 7.779-14.447 14.159-23.406 18.962-1.217.652-1.979 1.925-1.979 3.305v35.641c0 3.446-2.803 6.25-6.25 6.25-3.446 0-6.25-2.804-6.25-6.25v-28.041c0-2.057-1.693-3.749-3.75-3.749-.293 0-.585.034-.87.102-6.103 1.454-12.356 2.188-18.63 2.188-2.496 0-5.069-.124-7.646-.368-.118-.011-.236-.017-.355-.017-2.057 0-3.749 1.693-3.749 3.749v.001 22.635c0 3.447-2.803 6.25-6.25 6.25-3.446 0-6.25-2.803-6.25-6.25v-27.053c0-1.584-1.003-3.004-2.496-3.534-13.087-4.643-24.814-12.684-33.911-23.255-.713-.826-1.751-1.302-2.842-1.302-2.057 0-3.75 1.692-3.751 3.749v40.895c0 3.446-2.803 6.25-6.25 6.25-3.446 0-6.25-2.804-6.25-6.26-.002-.933-.25-93.33-.25-95.49 0-44.112 35.888-80 80-80 44.113 0 80 35.888 80 80 0 2.167.24 85.466.25 89 0 3.446-2.803 6.25-6.25 6.25z"/>
  </g>
</svg>
