<svg clip-rule="evenodd" fill-rule="evenodd" stroke-linejoin="round" stroke-miterlimit="2" viewBox="0 0 205 256" xmlns="http://www.w3.org/2000/svg">
  <g fill="#4c566a" fill-rule="nonzero">
    <path d="m119.45 52.686v-1.449c-.02-1.939-.373-3.86-1.046-5.678 8.473-6.799 11.732-18.205 8.129-28.454-3.604-10.248-13.284-17.105-24.147-17.105s-20.543 6.857-24.146 17.105c-3.603 10.249-.345 21.655 8.128 28.454-.672 1.818-1.026 3.739-1.045 5.678v1.449c-52.48 8.866-89.411 56.467-84.96 109.503 4.451 53.037 48.8 93.816 102.023 93.811 53.223.005 97.572-40.774 102.024-93.811 4.451-53.036-32.481-100.637-84.96-109.503zm-34.128-27.045c0-9.423 7.64-17.063 17.064-17.063s17.063 7.64 17.063 17.063c.016 4.924-2.128 9.616-5.86 12.828-6.371-5.727-16.036-5.727-22.407 0-3.732-3.212-5.875-7.904-5.86-12.828zm25.596 25.596h-17.064c0-4.712 3.82-8.532 8.532-8.532 4.713 0 8.532 3.82 8.532 8.532zm-8.532 196.231c-51.831 0-93.849-42.018-93.849-93.85.058-51.807 42.042-93.791 93.849-93.849 51.832 0 93.85 42.018 93.85 93.849 0 51.832-42.018 93.85-93.85 93.85z"/>
    <path d="m157.603 94.452.152-.181c.644-.768.997-1.739.997-2.741 0-2.063-1.496-3.846-3.528-4.203-1.5-.264-3.031.295-4.009 1.462l-.15.178c-5.239-3.993-10.946-7.331-16.993-9.94l.041-.114c.171-.468.259-.963.259-1.462 0-2.339-1.925-4.263-4.264-4.263-.249 0-.498.021-.743.065-1.5.265-2.748 1.313-3.267 2.744l-.041.115c-6.309-1.897-12.825-3.016-19.405-3.329v-.216c0-2.356-1.91-4.266-4.266-4.266s-4.266 1.91-4.266 4.266v.216c-6.58.314-13.097 1.432-19.405 3.329l-.041-.115c-.612-1.682-2.219-2.808-4.009-2.808-1.26 0-2.457.558-3.267 1.523-.979 1.166-1.261 2.771-.739 4.201l.041.114c-6.047 2.61-11.754 5.948-16.993 9.94l-.15-.178c-.81-.967-2.009-1.526-3.27-1.526-1.002 0-1.973.353-2.741.997-.967.81-1.526 2.008-1.526 3.27 0 1.002.353 1.973.997 2.741l.152.182c-4.818 4.483-9.075 9.533-12.679 15.04l-.162-.094c-.662-.395-1.419-.604-2.189-.604-2.34 0-4.266 1.925-4.266 4.265 0 1.545.84 2.973 2.189 3.726l.168.097c-2.998 5.864-5.265 12.074-6.748 18.49l-.173-.03c-.229-.038-.461-.057-.693-.057-2.341 0-4.267 1.926-4.267 4.267 0 2.043 1.468 3.814 3.476 4.193l.168.03c-.879 6.533-.879 13.154 0 19.687l-.168.03c-2.03.358-3.524 2.139-3.524 4.201 0 2.341 1.926 4.267 4.266 4.267.249 0 .497-.022.742-.065l.173-.031c1.483 6.417 3.75 12.627 6.749 18.49l-.169.098c-1.349.752-2.188 2.181-2.188 3.725 0 2.34 1.925 4.266 4.265 4.266.771 0 1.528-.209 2.189-.605l.163-.094c3.603 5.507 7.861 10.557 12.678 15.041l-.152.181c-.632.765-.978 1.727-.978 2.719 0 2.341 1.926 4.268 4.267 4.268 1.251 0 2.441-.551 3.252-1.504l.15-.179c5.238 3.993 10.945 7.331 16.993 9.94l-.042.114c-.171.468-.258.963-.258 1.462 0 2.339 1.924 4.264 4.263 4.264.25 0 .498-.022.744-.066 1.499-.264 2.747-1.313 3.266-2.744l.042-.115c6.308 1.898 12.825 3.016 19.405 3.33v.216c0 2.356 1.909 4.266 4.265 4.266s4.266-1.91 4.266-4.266v-.216c6.58-.314 13.097-1.432 19.405-3.33l.042.115c.611 1.683 2.219 2.809 4.008 2.809 1.26 0 2.457-.558 3.267-1.523.979-1.166 1.261-2.771.74-4.202l-.042-.113c6.048-2.61 11.754-5.948 16.993-9.94l.15.178c.81.936 1.988 1.474 3.226 1.474 2.341 0 4.268-1.927 4.268-4.268 0-.978-.337-1.928-.953-2.688l-.152-.181c4.818-4.484 9.075-9.534 12.679-15.041l.162.094c.646.376 1.381.574 2.129.573h.007c2.339 0 4.264-1.925 4.264-4.264 0-1.523-.815-2.934-2.134-3.695l-.169-.097c2.999-5.864 5.266-12.074 6.749-18.49l.173.03c.244.043.492.065.74.065 2.201 0 4.059-1.704 4.25-3.897.191-2.19-1.342-4.188-3.507-4.571l-.167-.03c.879-6.533.879-13.154 0-19.687l.167-.03c2.009-.378 3.477-2.149 3.477-4.193 0-2.34-1.926-4.266-4.267-4.266-.232 0-.464.018-.693.056l-.173.031c-1.483-6.417-3.75-12.627-6.749-18.491l.169-.097c1.349-.752 2.188-2.181 2.188-3.726 0-2.339-1.925-4.265-4.265-4.265-.771 0-1.527.209-2.189.605l-.162.094c-3.604-5.508-7.861-10.559-12.68-15.043zm17.303 59.166c0 40.052-32.468 72.521-72.52 72.521-40.033-.045-72.476-32.487-72.521-72.521 0-40.051 32.469-72.52 72.521-72.52s72.52 32.469 72.52 72.52z"/>
    <path d="m118.168 147.111c-1.741-4.191-5.073-7.526-9.263-9.27l-46.432-30.035c-.69-.446-1.493-.683-2.314-.683-2.341 0-4.267 1.926-4.267 4.267 0 .821.237 1.625.682 2.315l30.032 46.421c1.74 4.191 5.072 7.526 9.262 9.269l46.432 30.036c.69.445 1.494.682 2.315.682 2.34 0 4.266-1.926 4.266-4.267 0-.821-.236-1.625-.682-2.314zm-30.777-1.48-12.846-19.854 19.858 12.845c-3.039 1.508-5.503 3.97-7.012 7.009zm8.963 14.019c-1.599-1.599-2.499-3.771-2.499-6.032 0-4.681 3.851-8.532 8.532-8.532 4.68 0 8.531 3.851 8.531 8.532 0 2.262-.9 4.433-2.499 6.033-3.376 3.224-8.69 3.224-12.065-.001zm14.016 8.965c3.039-1.508 5.503-3.971 7.012-7.01l12.845 19.854zm-16.517-53.39h.003c2.34 0 4.265-1.925 4.265-4.264 0-.001 0-.001 0-.002v-6.765l9.781 9.782c.8.8 1.886 1.25 3.017 1.25 2.34 0 4.265-1.925 4.265-4.265 0 0 0-.001 0-.002v-17.063c0-2.356-1.91-4.266-4.266-4.266s-4.265 1.91-4.265 4.266v6.765l-9.782-9.782c-.8-.8-1.886-1.25-3.017-1.25-2.34 0-4.265 1.925-4.265 4.264v.003 17.063.002c0 2.339 1.925 4.264 4.264 4.264z"/>
  </g>
</svg>
