<svg clip-rule="evenodd" fill-rule="evenodd" stroke-linejoin="round" stroke-miterlimit="2" viewBox="0 0 191 150" xmlns="http://www.w3.org/2000/svg">
  <g fill-rule="nonzero">
    <path d="m67.216 46.621-.043.163-13.785.088-5.624 12.412 16.098 34.91 27.034 53.036 13.023-16.043 3.436-17.185 20.678-5.156 10.245-20.051 13.189-6.875 4.116-35.299z" fill="#81a1c1"/>
    <path d="m90.895 147.231-26.51-20.05-6.3-28.646-23.489-17.187 2.318-34.726h30.301l-6.838 25.559 16.039 14.322v18.332l11.177 16.042z" fill="#5e81ac"/>
    <path d="m92.17 16.223-20.626 1.812-10.694 11.653-16.043 3.882-7.893 13.051h30.302l19.263-5.269 18.696-7.593 8.008-12.509 1.396-18.492z" fill="#88c0d0"/>
    <path d="m138.277 29.688-44.002 16.934h-27.06l11.46-16.872 22.914-3.639 12.99-23.353 16.552 11.206z" fill="#bddef6"/>
    <path d="m123.152 26.111-7.15 8.346-13.555 2.288-8.172 9.877h33.758l15.78-5.532 4.708-8.981z" fill="#88c0d0"/>
    <path d="m155.583 46.621h-27.55l20.488-14.513z" fill="#bddef6"/>
    <path d="m136.989 86.341c-.513.268-.93.687-1.192 1.203l-9.67 18.923-19.447 4.85c-1.045.259-1.846 1.099-2.057 2.156l-3.303 16.512-8.471 10.437-2.489-19.875c-.057-.447-.221-.875-.479-1.246l-10.678-15.323v-17.458c0-.793-.338-1.549-.93-2.078l-14.763-13.18 5.843-21.838h83.101l-3.582 30.725zm-76.184 11.611c-.146-.663-.528-1.25-1.075-1.65l-22.253-16.282 2.042-30.596h24.067l-5.901 22.054c-.272 1.014.051 2.097.836 2.798l15.111 13.492v17.085c0 .569.174 1.126.5 1.592l10.785 15.478 2.394 19.12-20.425-15.449zm-14.215-61.931 14.915-3.611c.536-.13 1.023-.416 1.396-.823l9.964-10.853 19.548-1.719c.421-.037.828-.17 1.191-.388l13.472-8.094-7.261 13.057-21.579 3.426c-.76.12-1.435.55-1.867 1.186l-10.63 15.65h-23.885zm86.8-10.335-9.596-2.268c-1.014-.24-2.077.107-2.756.899l-6.496 7.578-12.557 2.119c-.658.11-1.256.456-1.683.97l-7.338 8.868h-20.49l7.827-11.523 21.726-3.449c.846-.134 1.582-.648 1.998-1.397l11.509-20.696 13.383 9.06zm14.065 10.61 3.676 7.556h-14.346zm-47.259 7.556 3.738-4.518 12.53-2.113c.642-.109 1.227-.44 1.651-.935l6.049-7.055 17.714 4.186-14.734 10.435zm89.983 2.786c0-1.538-1.247-2.786-2.786-2.786h-30.067s-6.291-12.931-6.298-12.946c-.364-.748-1.063-1.287-1.864-1.492l-8.916-2.107-6.583-14.481c-.213-.466-.55-.866-.975-1.154 0 0-16.531-11.189-16.552-11.203-.881-.598-2.085-.623-2.997-.081l-21.856 13.133-19.986 1.757c-.693.061-1.338.378-1.808.891l-10.122 11.026-15.218 3.684c-.722.174-1.344.63-1.728 1.266l-7.081 11.707h-32.556c-1.539 0-2.786 1.248-2.786 2.786 0 1.539 1.247 2.786 2.786 2.786h31.149l-2.119 31.754c-.064.952.364 1.87 1.134 2.434l22.64 16.566 6.076 27.616c.142.649.511 1.224 1.04 1.623l26.51 20.053c.003.002.007.004.011.007 1.149.851 2.926.642 3.831-.474l13.022-16.042c.284-.35.479-.766.568-1.209l3.091-15.457 18.966-4.729c.781-.195 1.439-.719 1.806-1.436l9.842-19.26 12.403-6.464c.818-.425 1.372-1.23 1.478-2.147l3.829-32.836h29.33c1.539.001 2.786-1.246 2.786-2.785" fill="#4c566a"/>
  </g>
</svg>
