<svg clip-rule="evenodd" fill-rule="evenodd" stroke-linejoin="round" stroke-miterlimit="2" viewBox="0 0 188 255" xmlns="http://www.w3.org/2000/svg">
  <g fill="#2e3440" fill-rule="nonzero">
    <path d="m6.943 186.634h2.82l45.869 64.762h.188v-64.762h1.88v67.111h-2.82l-45.869-64.761h-.188v64.761h-1.88z" />
    <path
      d="m87.217 252.994c12.877 0 19.833-11.186 19.833-23.404 0-12.032-6.956-23.405-19.833-23.405-13.065 0-19.927 11.373-19.927 23.405 0 12.218 6.862 23.404 19.927 23.404m0-48.689c14.099 0 21.712 12.126 21.712 25.285 0 13.254-7.613 25.285-21.806 25.285-14.099 0-21.713-12.031-21.713-25.285 0-13.159 7.614-25.285 21.807-25.285"
    />
    <path d="m118.614 253.746h-1.88v-48.313h1.88v11.938h.187c1.787-7.145 7.426-13.441 18.988-13.066v1.88c-13.254-.658-19.175 9.682-19.175 20.209z" />
    <path
      d="m159.126 206.185c-13.253 0-18.705 12.313-18.705 23.498 0 12.408 6.204 23.311 18.705 23.311 12.407 0 19.551-10.809 19.551-23.311 0-14.945-7.802-23.498-19.551-23.498m19.551-19.551h1.88v67.112h-1.88v-13.536h-.189c-2.443 8.459-9.493 14.664-19.362 14.664-12.783 0-20.585-10.621-20.585-25.191 0-13.535 7.237-25.379 20.585-25.379 10.245 0 17.106 5.922 19.362 14.664h.189z"
    />
    <path d="m127.59 158.591-65.088-83.316v-23.115l72.135 93.253h38.767v-131.316h-65.197l-14.094-14.097h93.387v158.591z" />
    <path d="m59.908 0 65.092 83.311v23.115l-72.139-93.252h-38.764v131.318h65.196l14.099 14.099h-93.392v-158.591z" />
  </g>
</svg>
