<svg clip-rule="evenodd" fill-rule="evenodd" stroke-linejoin="round" stroke-miterlimit="2" viewBox="0 0 64 64" xmlns="http://www.w3.org/2000/svg">
  <circle cx="32" cy="32" fill="#4c566a" r="32"/>
  <path d="m47.937 22.094c-1.198.527-2.467.875-3.766 1.033 1.367-.822 2.392-2.112 2.884-3.631-1.268.74-2.674 1.279-4.17 1.579-1.24-1.326-2.976-2.079-4.791-2.079-3.599 0-6.56 2.961-6.56 6.56 0 .503.058 1.005.173 1.495-5.454-.257-10.284-2.877-13.52-6.835-.589 1-.895 2.14-.888 3.3 0 2.28 1.16 4.284 2.917 5.462-1.041-.033-2.06-.315-2.971-.822v.08c-.001 3.112 2.211 5.819 5.262 6.436-.963.258-1.97.297-2.95.114.862 2.666 3.337 4.503 6.139 4.556-2.32 1.821-5.187 2.809-8.136 2.806-.52 0-1.039-.03-1.56-.089 3.007 1.926 6.505 2.948 10.076 2.945 12.071 0 18.664-9.994 18.664-18.646 0-.28 0-.56-.02-.84 1.288-.927 2.399-2.078 3.28-3.398z" fill="#eceff4" fill-rule="nonzero"/>
</svg>
