<svg clip-rule="evenodd" fill-rule="evenodd" stroke-linejoin="round" stroke-miterlimit="2" viewBox="0 0 64 64" xmlns="http://www.w3.org/2000/svg">
  <circle cx="32" cy="32" fill="#4c566a" r="32"/>
  <path d="m43.089 21.826c-2.074-.952-4.264-1.631-6.513-2.02-.042-.008-.084.012-.105.05-.281.5-.593 1.153-.811 1.666-2.459-.369-4.907-.369-7.316 0-.218-.525-.541-1.166-.823-1.666-.022-.037-.063-.056-.105-.05-2.249.388-4.439 1.067-6.513 2.02-.018.008-.033.021-.043.037-4.149 6.198-5.285 12.244-4.728 18.214.003.03.018.057.042.075 2.737 2.01 5.388 3.23 7.99 4.039.042.012.087-.002.113-.037.615-.84 1.164-1.727 1.634-2.659.008-.014.011-.03.011-.045 0-.043-.026-.081-.066-.096-.871-.33-1.699-.732-2.496-1.189-.032-.019-.051-.052-.051-.089 0-.032.015-.062.04-.082.168-.125.336-.256.496-.388.029-.024.069-.029.104-.014 5.237 2.391 10.906 2.391 16.082 0 .034-.016.075-.012.104.013.16.132.328.264.497.389.026.02.041.05.041.083 0 .036-.019.069-.05.088-.797.465-1.632.863-2.497 1.188-.039.015-.066.053-.066.095 0 .017.004.033.012.047.48.931 1.029 1.817 1.633 2.658.025.035.071.051.112.038 2.615-.809 5.266-2.029 8.003-4.039.024-.018.04-.044.042-.074.667-6.902-1.117-12.898-4.731-18.214-.009-.017-.024-.03-.042-.038zm-16.396 14.616c-1.576 0-2.876-1.448-2.876-3.226 0-1.777 1.274-3.225 2.876-3.225 1.615 0 2.901 1.46 2.876 3.225 0 1.778-1.274 3.226-2.876 3.226zm10.633 0c-1.576 0-2.875-1.448-2.875-3.226 0-1.777 1.273-3.225 2.875-3.225 1.615 0 2.901 1.46 2.876 3.225 0 1.778-1.261 3.226-2.876 3.226z" fill="#88c0d0" fill-rule="nonzero"/>
</svg>
