<svg clip-rule="evenodd" fill-rule="evenodd" stroke-linejoin="round" stroke-miterlimit="2" viewBox="0 0 64 64" xmlns="http://www.w3.org/2000/svg">
  <circle cx="32" cy="32" fill="#4c566a" r="32"/>
  <path d="m16.843 16.733v30.534h2.197v.733h-3.04v-32h3.04v.733zm9.39 9.68v1.543h.044c.412-.591.911-1.045 1.49-1.365.577-.327 1.248-.487 2-.487.72 0 1.377.143 1.974.419.598.277 1.047.776 1.36 1.477.339-.499.8-.941 1.379-1.323s1.267-.573 2.061-.573c.604 0 1.163.075 1.68.223.518.146.955.381 1.324.706.368.327.652.746.862 1.268.202.523.306 1.151.306 1.89v7.637h-3.132v-6.468c0-.381-.013-.745-.042-1.083-.022-.306-.103-.605-.24-.88-.133-.251-.336-.458-.584-.597-.259-.147-.61-.221-1.047-.221-.443 0-.8.085-1.071.252-.266.163-.486.392-.64.665-.16.287-.265.602-.308.928-.051.347-.078.696-.08 1.047v6.357h-3.133v-6.4c0-.339-.005-.671-.024-1.003-.011-.314-.075-.624-.191-.917-.108-.276-.302-.511-.553-.671-.259-.166-.635-.253-1.139-.253-.148 0-.345.032-.585.099-.24.068-.48.19-.707.376-.228.184-.425.449-.585.793-.16.345-.24.8-.24 1.36v6.621h-3.132v-11.42zm20.924 20.854v-30.534h-2.197v-.733h3.04v32h-3.04v-.733z" fill="#88c0d0" fill-rule="nonzero"/>
</svg>
