<svg clip-rule="evenodd" fill-rule="evenodd" stroke-linejoin="round" stroke-miterlimit="2" viewBox="0 0 64 64" xmlns="http://www.w3.org/2000/svg">
  <circle cx="32" cy="32" fill="#4c566a" r="32"/>
  <path d="m32 16c-8.777 0-16 7.223-16 16s7.223 16 16 16 16-7.223 16-16-7.223-16-16-16zm6.68 6.325c.917 0 1.667.748 1.667 1.666-.01.907-.759 1.648-1.667 1.648-.879 0-1.615-.696-1.664-1.574l-3.463-.729-1.066 4.996c2.432.093 4.64.843 6.232 1.984.41-.412.973-.655 1.609-.655 1.291 0 2.339 1.048 2.339 2.339 0 .955-.58 1.777-1.347 2.152.038.229.057.461.056.693 0 3.592-4.173 6.494-9.339 6.494-5.165 0-9.338-2.902-9.338-6.494 0-.244.02-.488.057-.712-.842-.373-1.387-1.212-1.385-2.133 0-1.291 1.048-2.339 2.338-2.339.618 0 1.198.262 1.61.654 1.609-1.178 3.837-1.907 6.325-1.983l1.18-5.576c.028-.107.095-.201.187-.263.095-.055.208-.075.317-.056l3.875.823c.267-.573.845-.939 1.477-.935zm-10.347 9.675c-.918 0-1.666.749-1.666 1.667 0 .916.748 1.664 1.666 1.664.916 0 1.664-.748 1.664-1.666 0-.917-.748-1.665-1.665-1.665zm7.334 0c-.916 0-1.664.748-1.664 1.667 0 .916.748 1.664 1.665 1.664s1.665-.748 1.665-1.666c0-.916-.749-1.665-1.666-1.665zm-7.288 5.32c-.115-.001-.226.045-.308.125-.168.17-.168.448 0 .618 1.122 1.122 3.312 1.217 3.948 1.217s2.806-.075 3.948-1.217c.16-.169.176-.431.038-.618-.17-.168-.448-.168-.618 0-.73.711-2.246.974-3.35.974s-2.638-.262-3.349-.974c-.082-.081-.194-.127-.309-.126z" fill="#88c0d0" fill-rule="nonzero"/>
</svg>
