<svg clip-rule="evenodd" fill-rule="evenodd" stroke-linejoin="round" stroke-miterlimit="2" viewBox="0 0 256 224" xmlns="http://www.w3.org/2000/svg">
  <path d="m256 11.766c0-6.488-5.279-11.766-11.766-11.766h-232.468c-6.488 0-11.766 5.278-11.766 11.766 0 3.692 1.71 6.991 4.379 9.15-2.709 2.833-4.379 6.669-4.379 10.89 0 8.698 7.076 15.774 15.774 15.774h15.434c2.922-.014 5.394 2.249 5.636 5.161l10.562 119.708c.574 6.502 5.929 11.406 12.456 11.406 6.528 0 11.883-4.904 12.457-11.406l8.49-96.224c.01-.11.015-.22.015-.33 0-1.933-1.495-3.565-3.421-3.735-2.058-.178-3.883 1.343-4.065 3.406l-8.49 96.224c-.214 2.576-2.401 4.578-4.985 4.565-2.584.012-4.771-1.99-4.985-4.565l-10.563-119.708c-.604-6.842-6.239-12.001-13.107-12.001h-15.434c-4.563 0-8.274-3.712-8.274-8.274 0-4.563 3.712-8.274 8.274-8.274h188.381c2.057 0 3.75-1.693 3.75-3.75 0-2.058-1.693-3.75-3.75-3.75h-192.389c-2.352 0-4.265-1.914-4.265-4.266s1.913-4.266 4.265-4.266h232.468c2.353 0 4.266 1.914 4.266 4.266s-1.914 4.266-4.266 4.266h-24.05c-2.057 0-3.75 1.692-3.75 3.75 0 2.057 1.693 3.75 3.75 3.75h20.042c4.563 0 8.274 3.712 8.274 8.274s-3.712 8.274-8.274 8.274h-12.407c-6.186 0-11.6 4.393-12.875 10.447l-12.809 60.839c-.594 2.82-3.116 4.867-5.998 4.867s-5.405-2.047-5.998-4.867l-12.808-60.839c-1.274-6.054-6.689-10.447-12.875-10.447-6.697 0-12.317 5.018-13.074 11.672l-18.187 160.044c-.301 2.644-2.534 4.638-5.195 4.638s-4.895-1.994-5.195-4.638l-18.019-158.56c-.852-7.5-7.187-13.157-14.736-13.157-7.742 0-14.094 5.816-14.774 13.528l-.523 5.927c-.01.109-.015.219-.015.329 0 1.933 1.495 3.566 3.421 3.736 2.059.18 3.883-1.343 4.065-3.406l.523-5.927c.336-3.812 3.476-6.687 7.303-6.687 3.711-.002 6.867 2.815 7.284 6.503l18.019 158.56c.731 6.438 6.168 11.292 12.647 11.292 6.478 0 11.915-4.854 12.647-11.292l18.187-160.044c.322-2.846 2.758-5.021 5.621-5.019 2.66 0 4.988 1.889 5.536 4.492l12.809 60.84c1.321 6.27 6.929 10.821 13.337 10.821s12.017-4.551 13.337-10.822l12.808-60.839c.548-2.603 2.876-4.492 5.536-4.492h12.407c8.698 0 15.774-7.076 15.774-15.774 0-4.221-1.669-8.057-4.379-10.891 2.669-2.158 4.38-5.457 4.38-9.149z" fill="#d8dee9" fill-rule="nonzero"/>
</svg>
