<svg clip-rule="evenodd" fill-rule="evenodd" stroke-linejoin="round" stroke-miterlimit="2" viewBox="0 0 176 256" xmlns="http://www.w3.org/2000/svg">
  <path d="m175.793 112.929v-51.751c0-2.057-1.693-3.75-3.75-3.75-2.058 0-3.75 1.693-3.75 3.75v41.169c-.704-.38-1.435-.704-2.189-.97l-10.352-3.666v-44.195c0-2.057-1.693-3.75-3.75-3.75s-3.75 1.693-3.75 3.75v41.538l-12.54-4.441v-44.11c0-2.057-1.693-3.75-3.75-3.75s-3.75 1.693-3.75 3.75v41.454l-12.541-4.442v-44.36c0-2.057-1.692-3.75-3.75-3.75-2.057 0-3.75 1.693-3.75 3.75v41.704l-12.54-4.441v-44.361c0-2.058-1.693-3.75-3.75-3.75s-3.75 1.692-3.75 3.75v41.704l-12.541-4.441v-44.277c0-2.058-1.693-3.75-3.75-3.75s-3.75 1.692-3.75 3.75v41.621l-12.54-4.442v-44.444c0-2.057-1.693-3.75-3.75-3.75s-3.75 1.693-3.75 3.75v41.788l-12.541-4.441v-44.361c0-2.057-1.692-3.75-3.75-3.75-2.057 0-3.75 1.693-3.75 3.75v41.705l-12.54-4.442v-44.277c0-2.057-1.693-3.75-3.75-3.75s-3.75 1.693-3.75 3.75v41.621l-3.014-1.067c-.388-.132-.795-.199-1.204-.199-2.058 0-3.751 1.693-3.751 3.751 0 1.566.982 2.975 2.451 3.518l161.149 57.073c3.675 1.302 4.937 4.497 4.893 7.053s-1.416 5.705-5.134 6.879l-7.607 2.403v-5.299c0-2.058-1.693-3.75-3.75-3.75-2.058 0-3.75 1.692-3.75 3.75v7.667l-12.541 3.96v-18.453c0-2.058-1.692-3.75-3.75-3.75-2.057 0-3.75 1.692-3.75 3.75v20.822l-12.54 3.96v-31.984c0-2.058-1.693-3.75-3.75-3.75s-3.75 1.692-3.75 3.75v34.352l-12.541 3.96v-45.577c0-2.057-1.693-3.75-3.75-3.75s-3.75 1.693-3.75 3.75v47.946l-12.54 3.96v-58.836c0-2.058-1.693-3.75-3.75-3.75-2.058 0-3.75 1.692-3.75 3.75v61.381c-4.981 2.396-8.273 7.119-8.771 12.795-.568 6.472 2.657 12.359 8.417 15.364l51.224 26.726c2.432 1.268 4.028 3.556 4.379 6.276s-.611 5.337-2.64 7.182l-5.029 4.572v-7.373c0-2.057-1.692-3.75-3.75-3.75-2.057 0-3.75 1.693-3.75 3.75v14.191l-12.54 11.4v-35.362c0-2.057-1.693-3.75-3.75-3.75s-3.75 1.693-3.75 3.75v43.839c0 .031.004.056.004.086.002.07.006.141.011.211.003.034.006.069.01.102.199 1.897 1.819 3.353 3.726 3.35.933.001 1.832-.347 2.521-.975l31.341-28.492c3.81-3.466 5.692-8.585 5.033-13.693-.661-5.107-3.782-9.581-8.347-11.964l-6.76-3.527v-35.448c0-2.057-1.692-3.75-3.75-3.75-2.057 0-3.75 1.693-3.75 3.75v31.535l-12.54-6.543v-18.646c0-2.057-1.693-3.75-3.75-3.75s-3.75 1.693-3.75 3.75v14.732l-16.925-8.83c-3.612-1.884-4.649-5.399-4.416-8.06.234-2.66 1.867-5.94 5.751-7.166l93.076-29.393c6.19-1.954 10.263-7.411 10.375-13.902.015-.904-.051-1.807-.197-2.699z" fill="#d8dee9" fill-rule="nonzero"/>
</svg>
