<svg clip-rule="evenodd" fill-rule="evenodd" stroke-linejoin="round" stroke-miterlimit="2" viewBox="0 0 888 100" xmlns="http://www.w3.org/2000/svg">
  <g fill-rule="nonzero">
    <path
      d="m174.635 34.865-.023.088-7.352.046-3 6.62 8.585 18.619 14.419 28.286 6.945-8.556 1.833-9.166 11.028-2.75 5.464-10.694 7.035-3.667 2.194-18.826z"
      fill="#81a1c1"
    />
    <path d="m187.264 88.524-14.139-10.694-3.36-15.278-12.527-9.167 1.235-18.52h16.162l-3.647 13.632 8.554 7.638v9.777l5.961 8.556z" fill="#5e81ac" />
    <path d="m187.943 18.652-11.001.967-5.703 6.215-8.556 2.07-4.21 6.961h16.161l10.273-2.811 9.972-4.048 4.271-6.672.744-9.863z" fill="#88c0d0" />
    <path d="m212.533 25.833-23.467 9.031h-14.432l6.111-8.998 12.222-1.94 6.927-12.455 8.827 5.976z" fill="#bddef6" />
    <path d="m204.467 23.926-3.813 4.45-7.229 1.221-4.358 5.267h18.003l8.417-2.95 2.511-4.79z" fill="#88c0d0" />
    <path d="m221.763 34.865h-14.693l10.927-7.74z" fill="#bddef6" />
    <path
      d="m211.847 56.049c-.273.143-.496.366-.636.641l-5.157 10.092-10.372 2.586c-.557.14-.985.587-1.097 1.151l-1.762 8.806-4.518 5.567-1.327-10.6c-.03-.239-.118-.467-.256-.665l-5.694-8.172v-9.311c0-.423-.181-.826-.496-1.109l-7.874-7.029 3.116-11.646h44.321l-1.911 16.386zm-40.632 6.192c-.077-.353-.282-.667-.574-.88l-11.867-8.683 1.089-16.318h12.836l-3.148 11.761c-.144.542.027 1.119.446 1.492l8.059 7.197v9.112c0 .303.093.6.267.849l5.752 8.255 1.277 10.197-10.893-8.239zm-7.581-33.03 7.954-1.925c.286-.07.546-.222.745-.439l5.314-5.789 10.426-.916c.224-.021.441-.092.635-.207l7.185-4.318-3.873 6.964-11.508 1.827c-.405.065-.766.293-.996.633l-5.669 8.347h-12.739zm46.293-5.513-5.118-1.209c-.541-.128-1.108.057-1.47.479l-3.464 4.043-6.697 1.13c-.352.059-.67.243-.897.517l-3.914 4.73h-10.928l4.174-6.146 11.588-1.839c.45-.072.843-.346 1.065-.746l6.138-11.037 7.137 4.832zm7.501 5.661 1.961 4.029h-7.651zm-25.204 4.029 1.994-2.41 6.682-1.127c.343-.058.655-.235.881-.498l3.225-3.764 9.448 2.233-7.858 5.566zm695.776 1.486c0-.821-.679-1.486-1.5-1.486h-663.807s-3.355-6.897-3.359-6.904c-.194-.4-.567-.688-.994-.796l-4.756-1.124-3.51-7.723c-.114-.25-.293-.463-.52-.615 0 0-8.817-5.969-8.828-5.977-.47-.318-1.111-.332-1.598-.043l-11.657 7.005-10.659.937c-.369.033-.714.203-.965.476l-5.397 5.88-8.117 1.964c-.385.094-.716.337-.922.676l-3.776 6.244h-156.135c-.82 0-1.5.665-1.5 1.486s.68 1.486 1.5 1.486h155.385l-1.131 16.935c-.033.508.195.997.605 1.298l12.075 8.835 3.24 14.729c.076.346.273.653.555.866l14.139 10.694c.001.002.004.003.006.004.613.454 1.56.343 2.043-.253l6.945-8.555c.152-.187.256-.409.303-.645l1.648-8.244 10.115-2.522c.417-.104.768-.384.964-.765l5.249-10.273 6.614-3.447c.437-.228.733-.656.789-1.146l2.042-17.512h663.414c.821.001 1.5-.664 1.5-1.485"
      fill="#eceff4"
    />
  </g>
  <path d="m0 0h888v100h-888z" fill="none" />
</svg>
