<svg viewBox="0 0 1400 300" xmlns="http://www.w3.org/2000/svg">
  <path d="m0 0h1400v300h-1400z" fill="#eceff4" stroke="#eceff4" stroke-miterlimit="10" />
  <path
    d="m884.311 75.846h4.08v145.656h-4.08v-29.376c-2.992 9.582-8.195 17.317-15.605 23.202-7.414 5.884-16.355 8.826-26.826 8.826-13.602 0-24.449-5.11-32.539-15.329-8.092-10.219-12.137-23.367-12.137-39.445 0-15.529 3.979-28.611 11.934-39.238s18.869-15.943 32.742-15.943c10.879 0 19.957 2.855 27.234 8.567 7.273 5.712 12.205 13.464 14.789 23.256zm-42.432 42.432c-13.33 0-23.428 5.112-30.295 15.331-6.869 10.22-10.301 22.144-10.301 35.771 0 14.312 3.5 26.339 10.506 36.079 7.002 9.744 17.033 14.615 30.09 14.615 12.918 0 23.221-4.906 30.906-14.717 7.682-9.812 11.525-21.806 11.525-35.978 0-16.078-3.809-28.614-11.424-37.609-7.616-8.995-17.95-13.492-31.007-13.492zm-87.922 103.224h-4.078v-104.856h4.078v25.908c2.313-8.567 6.834-15.434 13.566-20.604 6.732-5.167 16.082-7.752 28.051-7.752v4.08c-13.602 0-23.939 4.182-31.008 12.546-7.074 8.363-10.609 18.803-10.609 31.313zm-68.135-107.304c14.688 0 26.215 5.349 34.578 16.046s12.547 23.673 12.547 38.932c0 15.262-4.219 28.238-12.648 38.936-8.434 10.697-19.993 16.043-34.681 16.043s-26.214-5.313-34.578-15.941c-8.364-10.627-12.546-23.642-12.546-39.037 0-15.259 4.182-28.234 12.546-38.932s19.957-16.047 34.782-16.047zm0 105.876c13.464 0 24.002-4.938 31.621-14.819 7.613-9.881 11.424-21.907 11.424-36.079 0-13.897-3.846-25.856-11.527-35.872-7.684-10.015-18.191-15.025-31.518-15.025-13.464 0-24.04 4.976-31.722 14.924-7.685 9.948-11.526 21.939-11.526 35.974 0 14.038 3.841 26.029 11.526 35.978 7.682 9.947 18.258 14.919 31.722 14.919zm-174.215-144.228h6.12l99.552 140.55.408-140.55h4.08v145.656l-5.954-.118-99.718-140.785-.408 140.903h-4.08z"
    fill="#88c0d0"
  />
</svg>
