<svg clip-rule="evenodd" fill-rule="evenodd" stroke-linejoin="round" stroke-miterlimit="2" viewBox="0 0 256 199" xmlns="http://www.w3.org/2000/svg">
  <path
    d="m241.847 113.227h-133.279c-7.773-.051-14.062-6.361-14.062-14.15 0-7.815 6.338-14.155 14.154-14.155h56.469c7.819 0 14.154-6.335 14.154-14.154 0-7.814-6.335-14.154-14.154-14.154h-22.236c-7.817 0-14.154-6.333-14.154-14.152 0-7.814 6.337-14.154 14.154-14.154h2.431c7.817 0 14.154-6.337 14.154-14.154 0-7.816-6.337-14.154-14.154-14.154h-66.053c-7.816 0-14.154 6.338-14.154 14.154 0 7.817 6.338 14.154 14.154 14.154h21.084c7.805.013 14.131 6.347 14.131 14.152 0 7.812-6.328 14.14-14.131 14.154h-86.201c-7.816 0-14.154 6.34-14.154 14.154 0 7.819 6.338 14.154 14.154 14.154h42.807c7.815 0 14.155 6.34 14.155 14.155 0 7.789-6.291 14.099-14.064 14.15h.792c-7.816 0-14.154 6.34-14.154 14.154 0 7.819 6.338 14.154 14.154 14.154h25.95c7.814 0 14.154 6.34 14.154 14.155 0 7.816-6.34 14.151-14.154 14.151h-61.335c-7.817 0-14.154 6.34-14.154 14.155 0 7.819 6.337 14.154 14.154 14.154h113.233c7.814 0 14.154-6.335 14.154-14.154 0-7.815-6.34-14.155-14.154-14.155h-2.064c-7.817 0-14.154-6.335-14.154-14.151 0-7.815 6.337-14.155 14.154-14.155h108.218c7.819 0 14.154-6.335 14.154-14.154.001-7.814-6.335-14.154-14.153-14.154z"
    fill="#d8dee9"
    fill-rule="nonzero"
  />
</svg>
