<svg clip-rule="evenodd" fill-rule="evenodd" stroke-linejoin="round" stroke-miterlimit="2" viewBox="0 0 257 258" xmlns="http://www.w3.org/2000/svg">
  <path d="m110.821 199.768-4.799-2.771v-28.177l4.799-2.77c1.151-.675 1.86-1.913 1.86-3.248 0-2.065-1.699-3.765-3.764-3.765-.653 0-1.294.17-1.861.492l-4.798 2.771-24.402-14.089v-5.541c0-2.065-1.7-3.765-3.765-3.765-2.066 0-3.765 1.7-3.765 3.765v5.541l-24.402 14.089-4.798-2.771c-.568-.322-1.209-.492-1.861-.492-2.065 0-3.765 1.7-3.765 3.765 0 1.335.71 2.573 1.861 3.248l4.798 2.77v28.177l-4.798 2.771c-1.151.674-1.861 1.913-1.861 3.247 0 2.066 1.7 3.765 3.765 3.765.652 0 1.293-.169 1.861-.492l4.798-2.77 24.402 14.088v5.541c0 2.065 1.699 3.765 3.765 3.765 2.065 0 3.765-1.7 3.765-3.765v-5.541l24.402-14.088 4.798 2.77c.572.331 1.222.505 1.883.505 1.343 0 2.588-.719 3.26-1.883.33-.572.504-1.222.504-1.882 0-1.344-.719-2.589-1.882-3.26zm-16.093-33.121-.306.176c-1.151.675-1.861 1.914-1.861 3.248 0 2.066 1.7 3.765 3.765 3.765.652 0 1.294-.17 1.861-.492l.306-.177v19.483l-16.873-9.741 3.284-1.896c1.151-.675 1.861-1.913 1.861-3.248 0-2.065-1.7-3.765-3.765-3.765-.652 0-1.293.17-1.861.492l-3.283 1.896v-19.482zm-24.402-9.742v19.483l-16.873-9.741zm-20.637 16.262 16.873 9.741-16.873 9.742zm3.764 26.004 16.873-9.741v19.482zm24.403 9.741v-19.482l16.872 9.741zm177.261-148.05-4.798-2.77v-28.178l4.798-2.77c1.152-.675 1.861-1.913 1.861-3.248 0-2.065-1.699-3.765-3.765-3.765-.652 0-1.293.17-1.86.492l-4.799 2.771-24.402-14.089v-5.54c0-2.066-1.699-3.765-3.765-3.765-2.065 0-3.764 1.699-3.764 3.765v5.54l-24.403 14.089-4.798-2.77c-.567-.323-1.208-.492-1.861-.492-2.065 0-3.764 1.699-3.764 3.765 0 1.334.709 2.573 1.86 3.247l4.799 2.771v28.177l-4.799 2.77c-1.151.675-1.86 1.913-1.86 3.248 0 2.065 1.699 3.765 3.764 3.765.653 0 1.294-.17 1.861-.492l4.798-2.771 24.403 14.088v5.541c0 2.08 1.685 3.765 3.764 3.765 2.08 0 3.765-1.685 3.765-3.765v-5.541l24.402-14.088 4.799 2.771c.572.33 1.221.505 1.883.505 1.343 0 2.588-.72 3.259-1.883.331-.573.505-1.222.505-1.883 0-1.343-.719-2.589-1.883-3.26zm-12.327-7.117-16.873-9.742 16.873-9.741zm-3.765-26.004-16.872 9.741v-19.482zm-24.402-9.741v19.482l-16.873-9.741zm-20.638 16.262 16.873 9.741-16.873 9.742zm3.765 26.003 16.873-9.741v19.483zm24.402 9.741v-19.482l16.873 9.741zm-98.629.214-7.356-4.246v-8.218l7.356-4.246c1.163-.672 1.883-1.917 1.883-3.261 0-2.065-1.7-3.765-3.765-3.765-.661 0-1.31.174-1.883.505l-7.356 4.246-7.115-4.108v-8.494c0-2.065-1.7-3.764-3.765-3.764s-3.765 1.699-3.765 3.764v8.494l-7.116 4.109-7.356-4.247c-.567-.322-1.209-.492-1.861-.492-2.065 0-3.765 1.7-3.765 3.765 0 1.334.71 2.573 1.861 3.248l7.356 4.246v8.218l-7.356 4.246c-1.151.675-1.861 1.914-1.861 3.248 0 2.065 1.7 3.765 3.765 3.765.652 0 1.294-.17 1.861-.492l7.356-4.247 7.116 4.109v8.494c0 2.065 1.7 3.764 3.765 3.764s3.765-1.699 3.765-3.764v-8.494l7.116-4.109 7.356 4.247c.572.331 1.222.505 1.883.505 1.343 0 2.588-.72 3.259-1.883.331-.572.505-1.222.505-1.882 0-1.344-.719-2.589-1.883-3.261zm-29.118-12.464 7.117-4.109 7.116 4.109v8.218l-7.116 4.108-7.117-4.108zm133.923 112.672c-1.032-1.789-3.354-2.411-5.142-1.378l-14.473 8.355v-16.711c0-2.065-1.699-3.764-3.764-3.764-2.066 0-3.765 1.699-3.765 3.764v16.711l-14.472-8.355c-.567-.323-1.209-.492-1.861-.492-2.065 0-3.765 1.699-3.765 3.764 0 1.335.71 2.573 1.861 3.248l14.472 8.356-14.472 8.356c-1.151.675-1.861 1.913-1.861 3.248 0 2.065 1.7 3.764 3.765 3.764.652 0 1.294-.169 1.861-.492l14.472-8.355v16.711c0 2.065 1.699 3.764 3.765 3.764 2.065 0 3.764-1.699 3.764-3.764v-16.711l14.473 8.355c.572.331 1.222.505 1.883.505 1.343 0 2.588-.719 3.259-1.883 1.033-1.788.411-4.11-1.378-5.142l-14.472-8.356 14.472-8.356c1.164-.671 1.883-1.916 1.883-3.26 0-.661-.174-1.31-.505-1.882zm-59.594-49.713h-8.306v-8.306c0-2.066-1.7-3.765-3.765-3.765s-3.765 1.699-3.765 3.765v8.306h-8.306c-2.066 0-3.765 1.7-3.765 3.765s1.699 3.765 3.765 3.765h8.306v8.306c0 2.066 1.7 3.765 3.765 3.765s3.765-1.699 3.765-3.765v-8.306h8.306c2.066 0 3.765-1.7 3.765-3.765s-1.699-3.765-3.765-3.765zm-146.219 113.77c-1.461-1.46-3.864-1.46-5.324 0l-5.386 5.386-5.385-5.386c-1.461-1.46-3.864-1.46-5.324 0-1.461 1.46-1.461 3.864 0 5.324l5.385 5.386-5.386 5.386c-1.46 1.46-1.46 3.863 0 5.324.735.735 1.699 1.102 2.662 1.102s1.927-.367 2.662-1.102l5.386-5.386 5.385 5.386c.735.735 1.699 1.102 2.662 1.102s1.927-.367 2.662-1.102c1.46-1.461 1.46-3.864 0-5.324l-5.386-5.386 5.386-5.385c.706-.706 1.103-1.665 1.103-2.663s-.397-1.956-1.102-2.662zm26.866-119.414c.735.734 1.699 1.102 2.662 1.102s1.927-.367 2.662-1.102l1.362-1.362 1.361 1.362c.735.734 1.699 1.102 2.662 1.102.964 0 1.927-.367 2.662-1.102 1.461-1.461 1.461-3.864 0-5.324l-1.362-1.362 1.362-1.362c1.461-1.46 1.461-3.864 0-5.324-1.46-1.46-3.863-1.46-5.324 0l-1.361 1.362-1.362-1.362c-1.461-1.46-3.864-1.46-5.324 0s-1.46 3.864 0 5.324l1.362 1.362-1.362 1.362c-1.46 1.46-1.46 3.863 0 5.324zm95.211 106.24h-4.283v-4.283c0-2.066-1.7-3.765-3.765-3.765s-3.765 1.699-3.765 3.765v4.283h-4.283c-2.065 0-3.765 1.699-3.765 3.765 0 2.065 1.7 3.765 3.765 3.765h4.283v4.282c0 2.066 1.699 3.765 3.765 3.765 2.065 0 3.764-1.699 3.764-3.765v-4.282h4.283c2.066 0 3.765-1.7 3.765-3.765s-1.699-3.765-3.764-3.765z" fill="#d8dee9" fill-rule="nonzero"/>
</svg>
