<svg clip-rule="evenodd" fill-rule="evenodd" stroke-linejoin="round" stroke-miterlimit="2" viewBox="0 0 625 610" xmlns="http://www.w3.org/2000/svg">
  <path d="m0 0h625v609.962h-625z" fill="none"/>
  <circle cx="542.5" cy="496.981" fill="#4c566a" r="32"/>
  <path d="m553.589 486.807c-2.074-.952-4.264-1.631-6.513-2.02-.042-.008-.084.012-.105.05-.281.5-.593 1.153-.811 1.666-2.459-.369-4.907-.369-7.316 0-.218-.525-.541-1.166-.823-1.666-.022-.037-.063-.056-.105-.05-2.249.388-4.439 1.067-6.513 2.02-.018.008-.033.021-.043.037-4.149 6.198-5.285 12.244-4.728 18.214.003.03.018.057.042.075 2.737 2.01 5.388 3.23 7.99 4.039.042.012.087-.002.113-.037.615-.84 1.164-1.727 1.634-2.659.008-.014.011-.03.011-.045 0-.043-.026-.081-.066-.096-.871-.33-1.699-.732-2.496-1.189-.032-.019-.051-.052-.051-.089 0-.032.015-.062.04-.082.168-.125.336-.256.496-.388.029-.024.069-.029.104-.014 5.237 2.391 10.906 2.391 16.082 0 .034-.016.075-.012.104.013.16.132.328.264.497.389.026.02.041.05.041.083 0 .036-.019.069-.05.088-.797.465-1.632.863-2.497 1.188-.039.015-.066.053-.066.095 0 .017.004.033.012.047.48.931 1.029 1.817 1.633 2.658.025.035.071.051.112.038 2.615-.809 5.266-2.029 8.003-4.039.024-.018.04-.044.042-.074.667-6.902-1.117-12.898-4.731-18.214-.009-.017-.024-.03-.042-.038zm-16.396 14.616c-1.576 0-2.876-1.448-2.876-3.226 0-1.777 1.274-3.225 2.876-3.225 1.615 0 2.901 1.46 2.876 3.225 0 1.778-1.274 3.226-2.876 3.226zm10.633 0c-1.576 0-2.875-1.448-2.875-3.226 0-1.777 1.273-3.225 2.875-3.225 1.615 0 2.901 1.46 2.876 3.225 0 1.778-1.261 3.226-2.876 3.226z" fill="#88c0d0" fill-rule="nonzero"/>
  <circle cx="450.5" cy="496.981" fill="#4c566a" r="32"/>
  <path d="m435.343 481.714v30.534h2.197v.733h-3.04v-32h3.04v.733zm9.39 9.68v1.543h.044c.412-.591.911-1.045 1.49-1.365.577-.327 1.248-.487 2-.487.72 0 1.377.143 1.974.419.598.277 1.047.776 1.36 1.477.339-.499.8-.941 1.379-1.323s1.267-.573 2.061-.573c.604 0 1.163.075 1.68.223.518.146.955.381 1.324.706.368.327.652.746.862 1.268.202.523.306 1.151.306 1.89v7.637h-3.132v-6.468c0-.381-.013-.745-.042-1.083-.022-.306-.103-.605-.24-.88-.133-.251-.336-.458-.584-.597-.259-.147-.61-.221-1.047-.221-.443 0-.8.085-1.071.252-.266.163-.486.392-.64.665-.16.287-.265.602-.308.928-.051.347-.078.696-.08 1.047v6.357h-3.133v-6.4c0-.339-.005-.671-.024-1.003-.011-.314-.075-.624-.191-.917-.108-.276-.302-.511-.553-.671-.259-.166-.635-.253-1.139-.253-.148 0-.345.032-.585.099-.24.068-.48.19-.707.376-.228.184-.425.449-.585.793-.16.345-.24.8-.24 1.36v6.621h-3.132v-11.42zm20.924 20.854v-30.534h-2.197v-.733h3.04v32h-3.04v-.733z" fill="#88c0d0" fill-rule="nonzero"/>
  <circle cx="358.5" cy="496.981" fill="#4c566a" r="32"/>
  <path d="m358.5 480.981c-8.777 0-16 7.223-16 16s7.223 16 16 16 16-7.223 16-16-7.223-16-16-16zm6.68 6.325c.917 0 1.667.748 1.667 1.666-.01.907-.759 1.648-1.667 1.648-.879 0-1.615-.696-1.664-1.574l-3.463-.729-1.066 4.996c2.432.093 4.64.843 6.232 1.984.41-.412.973-.655 1.609-.655 1.291 0 2.339 1.048 2.339 2.339 0 .955-.58 1.777-1.347 2.152.038.229.057.461.056.693 0 3.592-4.173 6.494-9.339 6.494-5.165 0-9.338-2.902-9.338-6.494 0-.244.02-.488.057-.712-.842-.373-1.387-1.212-1.385-2.133 0-1.291 1.048-2.339 2.338-2.339.618 0 1.198.262 1.61.654 1.609-1.178 3.837-1.907 6.325-1.983l1.18-5.576c.028-.107.095-.201.187-.263.095-.055.208-.075.317-.056l3.875.823c.267-.573.845-.939 1.477-.935zm-10.347 9.675c-.918 0-1.666.749-1.666 1.667 0 .916.748 1.664 1.666 1.664.916 0 1.664-.748 1.664-1.666 0-.917-.748-1.665-1.665-1.665zm7.334 0c-.916 0-1.664.748-1.664 1.667 0 .916.748 1.664 1.665 1.664s1.665-.748 1.665-1.666c0-.916-.749-1.665-1.666-1.665zm-7.288 5.32c-.115-.001-.226.045-.308.125-.168.17-.168.448 0 .618 1.122 1.122 3.312 1.217 3.948 1.217s2.806-.075 3.948-1.217c.16-.169.176-.431.038-.618-.17-.168-.448-.168-.618 0-.73.711-2.246.974-3.35.974s-2.638-.262-3.349-.974c-.082-.081-.194-.127-.309-.126z" fill="#88c0d0" fill-rule="nonzero"/>
  <circle cx="266.5" cy="496.981" fill="#4c566a" r="32"/>
  <path d="m282.437 487.075c-1.198.527-2.467.875-3.766 1.033 1.367-.822 2.392-2.112 2.884-3.631-1.268.74-2.674 1.279-4.17 1.579-1.24-1.326-2.976-2.079-4.791-2.079-3.599 0-6.56 2.961-6.56 6.56 0 .503.058 1.005.173 1.495-5.454-.257-10.284-2.877-13.52-6.835-.589 1-.895 2.14-.888 3.3 0 2.28 1.16 4.284 2.917 5.462-1.041-.033-2.06-.315-2.971-.822v.08c-.001 3.112 2.211 5.819 5.262 6.436-.963.258-1.97.297-2.95.114.862 2.666 3.337 4.503 6.139 4.556-2.32 1.821-5.187 2.809-8.136 2.806-.52 0-1.039-.03-1.56-.089 3.007 1.926 6.505 2.948 10.076 2.945 12.071 0 18.664-9.994 18.664-18.646 0-.28 0-.56-.02-.84 1.288-.927 2.399-2.078 3.28-3.398z" fill="#88c0d0" fill-rule="nonzero"/>
  <circle cx="174.5" cy="496.981" fill="#4c566a" r="32"/>
  <path d="m189.524 488.065c-.467-3.437-3.49-6.147-7.072-6.672-.606-.089-2.896-.412-8.202-.412h-.04c-5.306 0-6.446.323-7.05.412-3.484.511-6.666 2.945-7.438 6.424-.369 1.713-.409 3.613-.341 5.355.099 2.498.117 4.993.347 7.481.157 1.653.433 3.293.826 4.907.734 2.982 3.703 5.464 6.614 6.476 3.114 1.056 6.465 1.23 9.674.506.354-.081.703-.176 1.048-.284.78-.245 1.694-.52 2.366-1.004.018-.013.029-.034.03-.057v-2.412c0-.021-.01-.041-.026-.055-.018-.013-.04-.018-.062-.013-2.057.487-4.164.731-6.278.727-3.64 0-4.618-1.712-4.899-2.424-.225-.616-.368-1.258-.425-1.911 0-.001-.001-.002-.001-.003 0-.039.032-.071.071-.071.006 0 .012.001.018.002 2.022.484 4.096.728 6.176.728.501 0 1 0 1.5-.013 2.093-.059 4.298-.166 6.357-.563.051-.011.103-.02.147-.032 3.246-.619 6.337-2.56 6.652-7.472.01-.193.04-2.027.04-2.227.002-.682.222-4.84-.032-7.393zm-4.998 12.26h-3.414v-8.291c0-1.745-.734-2.634-2.227-2.634-1.64 0-2.461 1.053-2.461 3.133v4.537h-3.395v-4.538c0-2.08-.823-3.134-2.464-3.134-1.483 0-2.224.891-2.227 2.636v8.291h-3.409v-8.541c0-1.747.449-3.134 1.348-4.16.928-1.027 2.144-1.552 3.653-1.552 1.748 0 3.07.666 3.95 1.997l.85 1.413.851-1.413c.88-1.332 2.2-1.997 3.947-1.997 1.506 0 2.724.526 3.653 1.552.9 1.026 1.349 2.413 1.349 4.16z" fill="#88c0d0" fill-rule="nonzero"/>
  <circle cx="82.5" cy="496.981" fill="#4c566a" r="32"/>
  <path d="m88.275 510.514-11.108-14.219v-3.946l12.311 15.917h6.616v-22.412h-11.127l-2.405-2.406h15.938v27.066z" fill="#88c0d0" fill-rule="nonzero"/>
  <path d="m76.725 483.448 11.108 14.219v3.945l-12.311-15.916h-6.616v22.412h11.127l2.405 2.406h-15.938v-27.066z" fill="#88c0d0" fill-rule="nonzero"/>
  <circle cx="542.5" cy="400.981" fill="#4c566a" r="32"/>
  <path d="m553.589 390.807c-2.074-.952-4.264-1.631-6.513-2.02-.042-.008-.084.012-.105.05-.281.5-.593 1.153-.811 1.666-2.459-.369-4.907-.369-7.316 0-.218-.525-.541-1.166-.823-1.666-.022-.037-.063-.056-.105-.05-2.249.388-4.439 1.067-6.513 2.02-.018.008-.033.021-.043.037-4.149 6.198-5.285 12.244-4.728 18.214.003.03.018.057.042.075 2.737 2.01 5.388 3.23 7.99 4.039.042.012.087-.002.113-.037.615-.84 1.164-1.727 1.634-2.659.008-.014.011-.03.011-.045 0-.043-.026-.081-.066-.096-.871-.33-1.699-.732-2.496-1.189-.032-.019-.051-.052-.051-.089 0-.032.015-.062.04-.082.168-.125.336-.256.496-.388.029-.024.069-.029.104-.014 5.237 2.391 10.906 2.391 16.082 0 .034-.016.075-.012.104.013.16.132.328.264.497.389.026.02.041.05.041.083 0 .036-.019.069-.05.088-.797.465-1.632.863-2.497 1.188-.039.015-.066.053-.066.095 0 .017.004.033.012.047.48.931 1.029 1.817 1.633 2.658.025.035.071.051.112.038 2.615-.809 5.266-2.029 8.003-4.039.024-.018.04-.044.042-.074.667-6.902-1.117-12.898-4.731-18.214-.009-.017-.024-.03-.042-.038zm-16.396 14.616c-1.576 0-2.876-1.448-2.876-3.226 0-1.777 1.274-3.225 2.876-3.225 1.615 0 2.901 1.46 2.876 3.225 0 1.778-1.274 3.226-2.876 3.226zm10.633 0c-1.576 0-2.875-1.448-2.875-3.226 0-1.777 1.273-3.225 2.875-3.225 1.615 0 2.901 1.46 2.876 3.225 0 1.778-1.261 3.226-2.876 3.226z" fill="#eceff4" fill-rule="nonzero"/>
  <circle cx="450.5" cy="400.981" fill="#4c566a" r="32"/>
  <path d="m435.343 385.714v30.534h2.197v.733h-3.04v-32h3.04v.733zm9.39 9.68v1.543h.044c.412-.591.911-1.045 1.49-1.365.577-.327 1.248-.487 2-.487.72 0 1.377.143 1.974.419.598.277 1.047.776 1.36 1.477.339-.499.8-.941 1.379-1.323s1.267-.573 2.061-.573c.604 0 1.163.075 1.68.223.518.146.955.381 1.324.706.368.327.652.746.862 1.268.202.523.306 1.151.306 1.89v7.637h-3.132v-6.468c0-.381-.013-.745-.042-1.083-.022-.306-.103-.605-.24-.88-.133-.251-.336-.458-.584-.597-.259-.147-.61-.221-1.047-.221-.443 0-.8.085-1.071.252-.266.163-.486.392-.64.665-.16.287-.265.602-.308.928-.051.347-.078.696-.08 1.047v6.357h-3.133v-6.4c0-.339-.005-.671-.024-1.003-.011-.314-.075-.624-.191-.917-.108-.276-.302-.511-.553-.671-.259-.166-.635-.253-1.139-.253-.148 0-.345.032-.585.099-.24.068-.48.19-.707.376-.228.184-.425.449-.585.793-.16.345-.24.8-.24 1.36v6.621h-3.132v-11.42zm20.924 20.854v-30.534h-2.197v-.733h3.04v32h-3.04v-.733z" fill="#eceff4" fill-rule="nonzero"/>
  <circle cx="358.5" cy="400.981" fill="#4c566a" r="32"/>
  <path d="m358.5 384.981c-8.777 0-16 7.223-16 16s7.223 16 16 16 16-7.223 16-16-7.223-16-16-16zm6.68 6.325c.917 0 1.667.748 1.667 1.666-.01.907-.759 1.648-1.667 1.648-.879 0-1.615-.696-1.664-1.574l-3.463-.729-1.066 4.996c2.432.093 4.64.843 6.232 1.984.41-.412.973-.655 1.609-.655 1.291 0 2.339 1.048 2.339 2.339 0 .955-.58 1.777-1.347 2.152.038.229.057.461.056.693 0 3.592-4.173 6.494-9.339 6.494-5.165 0-9.338-2.902-9.338-6.494 0-.244.02-.488.057-.712-.842-.373-1.387-1.212-1.385-2.133 0-1.291 1.048-2.339 2.338-2.339.618 0 1.198.262 1.61.654 1.609-1.178 3.837-1.907 6.325-1.983l1.18-5.576c.028-.107.095-.201.187-.263.095-.055.208-.075.317-.056l3.875.823c.267-.573.845-.939 1.477-.935zm-10.347 9.675c-.918 0-1.666.749-1.666 1.667 0 .916.748 1.664 1.666 1.664.916 0 1.664-.748 1.664-1.666 0-.917-.748-1.665-1.665-1.665zm7.334 0c-.916 0-1.664.748-1.664 1.667 0 .916.748 1.664 1.665 1.664s1.665-.748 1.665-1.666c0-.916-.749-1.665-1.666-1.665zm-7.288 5.32c-.115-.001-.226.045-.308.125-.168.17-.168.448 0 .618 1.122 1.122 3.312 1.217 3.948 1.217s2.806-.075 3.948-1.217c.16-.169.176-.431.038-.618-.17-.168-.448-.168-.618 0-.73.711-2.246.974-3.35.974s-2.638-.262-3.349-.974c-.082-.081-.194-.127-.309-.126z" fill="#eceff4" fill-rule="nonzero"/>
  <circle cx="266.5" cy="400.981" fill="#4c566a" r="32"/>
  <path d="m282.437 391.075c-1.198.527-2.467.875-3.766 1.033 1.367-.822 2.392-2.112 2.884-3.631-1.268.74-2.674 1.279-4.17 1.579-1.24-1.326-2.976-2.079-4.791-2.079-3.599 0-6.56 2.961-6.56 6.56 0 .503.058 1.005.173 1.495-5.454-.257-10.284-2.877-13.52-6.835-.589 1-.895 2.14-.888 3.3 0 2.28 1.16 4.284 2.917 5.462-1.041-.033-2.06-.315-2.971-.822v.08c-.001 3.112 2.211 5.819 5.262 6.436-.963.258-1.97.297-2.95.114.862 2.666 3.337 4.503 6.139 4.556-2.32 1.821-5.187 2.809-8.136 2.806-.52 0-1.039-.03-1.56-.089 3.007 1.926 6.505 2.948 10.076 2.945 12.071 0 18.664-9.994 18.664-18.646 0-.28 0-.56-.02-.84 1.288-.927 2.399-2.078 3.28-3.398z" fill="#eceff4" fill-rule="nonzero"/>
  <circle cx="174.5" cy="400.981" fill="#4c566a" r="32"/>
  <path d="m189.524 392.065c-.467-3.437-3.49-6.147-7.072-6.672-.606-.089-2.896-.412-8.202-.412h-.04c-5.306 0-6.446.323-7.05.412-3.484.511-6.666 2.945-7.438 6.424-.369 1.713-.409 3.613-.341 5.355.099 2.498.117 4.993.347 7.481.157 1.653.433 3.293.826 4.907.734 2.982 3.703 5.464 6.614 6.476 3.114 1.056 6.465 1.23 9.674.506.354-.081.703-.176 1.048-.284.78-.245 1.694-.52 2.366-1.004.018-.013.029-.034.03-.057v-2.412c0-.021-.01-.041-.026-.055-.018-.013-.04-.018-.062-.013-2.057.487-4.164.731-6.278.727-3.64 0-4.618-1.712-4.899-2.424-.225-.616-.368-1.258-.425-1.911 0-.001-.001-.002-.001-.003 0-.039.032-.071.071-.071.006 0 .012.001.018.002 2.022.484 4.096.728 6.176.728.501 0 1 0 1.5-.013 2.093-.059 4.298-.166 6.357-.563.051-.011.103-.02.147-.032 3.246-.619 6.337-2.56 6.652-7.472.01-.193.04-2.027.04-2.227.002-.682.222-4.84-.032-7.393zm-4.998 12.26h-3.414v-8.291c0-1.745-.734-2.634-2.227-2.634-1.64 0-2.461 1.053-2.461 3.133v4.537h-3.395v-4.538c0-2.08-.823-3.134-2.464-3.134-1.483 0-2.224.891-2.227 2.636v8.291h-3.409v-8.541c0-1.747.449-3.134 1.348-4.16.928-1.027 2.144-1.552 3.653-1.552 1.748 0 3.07.666 3.95 1.997l.85 1.413.851-1.413c.88-1.332 2.2-1.997 3.947-1.997 1.506 0 2.724.526 3.653 1.552.9 1.026 1.349 2.413 1.349 4.16z" fill="#eceff4" fill-rule="nonzero"/>
  <circle cx="82.5" cy="400.981" fill="#4c566a" r="32"/>
  <g fill="#eceff4">
    <path d="m88.275 414.514-11.108-14.219v-3.946l12.311 15.917h6.616v-22.412h-11.127l-2.405-2.406h15.938v27.066z" fill-rule="nonzero"/>
    <path d="m76.725 387.448 11.108 14.219v3.945l-12.311-15.916h-6.616v22.412h11.127l2.405 2.406h-15.938v-27.066z" fill-rule="nonzero"/>
    <circle cx="542.5" cy="304.981" r="32"/>
  </g>
  <path d="m553.589 294.807c-2.074-.952-4.264-1.631-6.513-2.02-.042-.008-.084.012-.105.05-.281.5-.593 1.153-.811 1.666-2.459-.369-4.907-.369-7.316 0-.218-.525-.541-1.166-.823-1.666-.022-.037-.063-.056-.105-.05-2.249.388-4.439 1.067-6.513 2.02-.018.008-.033.021-.043.037-4.149 6.198-5.285 12.244-4.728 18.214.003.03.018.057.042.075 2.737 2.01 5.388 3.23 7.99 4.039.042.012.087-.002.113-.037.615-.84 1.164-1.727 1.634-2.659.008-.014.011-.03.011-.045 0-.043-.026-.081-.066-.096-.871-.33-1.699-.732-2.496-1.189-.032-.019-.051-.052-.051-.089 0-.032.015-.062.04-.082.168-.125.336-.256.496-.388.029-.024.069-.029.104-.014 5.237 2.391 10.906 2.391 16.082 0 .034-.016.075-.012.104.013.16.132.328.264.497.389.026.02.041.05.041.083 0 .036-.019.069-.05.088-.797.465-1.632.863-2.497 1.188-.039.015-.066.053-.066.095 0 .017.004.033.012.047.48.931 1.029 1.817 1.633 2.658.025.035.071.051.112.038 2.615-.809 5.266-2.029 8.003-4.039.024-.018.04-.044.042-.074.667-6.902-1.117-12.898-4.731-18.214-.009-.017-.024-.03-.042-.038zm-16.396 14.616c-1.576 0-2.876-1.448-2.876-3.226 0-1.777 1.274-3.225 2.876-3.225 1.615 0 2.901 1.46 2.876 3.225 0 1.778-1.274 3.226-2.876 3.226zm10.633 0c-1.576 0-2.875-1.448-2.875-3.226 0-1.777 1.273-3.225 2.875-3.225 1.615 0 2.901 1.46 2.876 3.225 0 1.778-1.261 3.226-2.876 3.226z" fill="#81a1c1" fill-rule="nonzero"/>
  <circle cx="450.5" cy="304.981" fill="#eceff4" r="32"/>
  <path d="m435.343 289.714v30.534h2.197v.733h-3.04v-32h3.04v.733zm9.39 9.68v1.543h.044c.412-.591.911-1.045 1.49-1.365.577-.327 1.248-.487 2-.487.72 0 1.377.143 1.974.419.598.277 1.047.776 1.36 1.477.339-.499.8-.941 1.379-1.323s1.267-.573 2.061-.573c.604 0 1.163.075 1.68.223.518.146.955.381 1.324.706.368.327.652.746.862 1.268.202.523.306 1.151.306 1.89v7.637h-3.132v-6.468c0-.381-.013-.745-.042-1.083-.022-.306-.103-.605-.24-.88-.133-.251-.336-.458-.584-.597-.259-.147-.61-.221-1.047-.221-.443 0-.8.085-1.071.252-.266.163-.486.392-.64.665-.16.287-.265.602-.308.928-.051.347-.078.696-.08 1.047v6.357h-3.133v-6.4c0-.339-.005-.671-.024-1.003-.011-.314-.075-.624-.191-.917-.108-.276-.302-.511-.553-.671-.259-.166-.635-.253-1.139-.253-.148 0-.345.032-.585.099-.24.068-.48.19-.707.376-.228.184-.425.449-.585.793-.16.345-.24.8-.24 1.36v6.621h-3.132v-11.42zm20.924 20.854v-30.534h-2.197v-.733h3.04v32h-3.04v-.733z" fill="#81a1c1" fill-rule="nonzero"/>
  <circle cx="358.5" cy="304.981" fill="#eceff4" r="32"/>
  <path d="m358.5 288.981c-8.777 0-16 7.223-16 16s7.223 16 16 16 16-7.223 16-16-7.223-16-16-16zm6.68 6.325c.917 0 1.667.748 1.667 1.666-.01.907-.759 1.648-1.667 1.648-.879 0-1.615-.696-1.664-1.574l-3.463-.729-1.066 4.996c2.432.093 4.64.843 6.232 1.984.41-.412.973-.655 1.609-.655 1.291 0 2.339 1.048 2.339 2.339 0 .955-.58 1.777-1.347 2.152.038.229.057.461.056.693 0 3.592-4.173 6.494-9.339 6.494-5.165 0-9.338-2.902-9.338-6.494 0-.244.02-.488.057-.712-.842-.373-1.387-1.212-1.385-2.133 0-1.291 1.048-2.339 2.338-2.339.618 0 1.198.262 1.61.654 1.609-1.178 3.837-1.907 6.325-1.983l1.18-5.576c.028-.107.095-.201.187-.263.095-.055.208-.075.317-.056l3.875.823c.267-.573.845-.939 1.477-.935zm-10.347 9.675c-.918 0-1.666.749-1.666 1.667 0 .916.748 1.664 1.666 1.664.916 0 1.664-.748 1.664-1.666 0-.917-.748-1.665-1.665-1.665zm7.334 0c-.916 0-1.664.748-1.664 1.667 0 .916.748 1.664 1.665 1.664s1.665-.748 1.665-1.666c0-.916-.749-1.665-1.666-1.665zm-7.288 5.32c-.115-.001-.226.045-.308.125-.168.17-.168.448 0 .618 1.122 1.122 3.312 1.217 3.948 1.217s2.806-.075 3.948-1.217c.16-.169.176-.431.038-.618-.17-.168-.448-.168-.618 0-.73.711-2.246.974-3.35.974s-2.638-.262-3.349-.974c-.082-.081-.194-.127-.309-.126z" fill="#81a1c1" fill-rule="nonzero"/>
  <circle cx="266.5" cy="304.981" fill="#eceff4" r="32"/>
  <path d="m282.437 295.075c-1.198.527-2.467.875-3.766 1.033 1.367-.822 2.392-2.112 2.884-3.631-1.268.74-2.674 1.279-4.17 1.579-1.24-1.326-2.976-2.079-4.791-2.079-3.599 0-6.56 2.961-6.56 6.56 0 .503.058 1.005.173 1.495-5.454-.257-10.284-2.877-13.52-6.835-.589 1-.895 2.14-.888 3.3 0 2.28 1.16 4.284 2.917 5.462-1.041-.033-2.06-.315-2.971-.822v.08c-.001 3.112 2.211 5.819 5.262 6.436-.963.258-1.97.297-2.95.114.862 2.666 3.337 4.503 6.139 4.556-2.32 1.821-5.187 2.809-8.136 2.806-.52 0-1.039-.03-1.56-.089 3.007 1.926 6.505 2.948 10.076 2.945 12.071 0 18.664-9.994 18.664-18.646 0-.28 0-.56-.02-.84 1.288-.927 2.399-2.078 3.28-3.398z" fill="#81a1c1" fill-rule="nonzero"/>
  <circle cx="174.5" cy="304.981" fill="#eceff4" r="32"/>
  <path d="m189.524 296.065c-.467-3.437-3.49-6.147-7.072-6.672-.606-.089-2.896-.412-8.202-.412h-.04c-5.306 0-6.446.323-7.05.412-3.484.511-6.666 2.945-7.438 6.424-.369 1.713-.409 3.613-.341 5.355.099 2.498.117 4.993.347 7.481.157 1.653.433 3.293.826 4.907.734 2.982 3.703 5.464 6.614 6.476 3.114 1.056 6.465 1.23 9.674.506.354-.081.703-.176 1.048-.284.78-.245 1.694-.52 2.366-1.004.018-.013.029-.034.03-.057v-2.412c0-.021-.01-.041-.026-.055-.018-.013-.04-.018-.062-.013-2.057.487-4.164.731-6.278.727-3.64 0-4.618-1.712-4.899-2.424-.225-.616-.368-1.258-.425-1.911 0-.001-.001-.002-.001-.003 0-.039.032-.071.071-.071.006 0 .012.001.018.002 2.022.484 4.096.728 6.176.728.501 0 1 0 1.5-.013 2.093-.059 4.298-.166 6.357-.563.051-.011.103-.02.147-.032 3.246-.619 6.337-2.56 6.652-7.472.01-.193.04-2.027.04-2.227.002-.682.222-4.84-.032-7.393zm-4.998 12.26h-3.414v-8.291c0-1.745-.734-2.634-2.227-2.634-1.64 0-2.461 1.053-2.461 3.133v4.537h-3.395v-4.538c0-2.08-.823-3.134-2.464-3.134-1.483 0-2.224.891-2.227 2.636v8.291h-3.409v-8.541c0-1.747.449-3.134 1.348-4.16.928-1.027 2.144-1.552 3.653-1.552 1.748 0 3.07.666 3.95 1.997l.85 1.413.851-1.413c.88-1.332 2.2-1.997 3.947-1.997 1.506 0 2.724.526 3.653 1.552.9 1.026 1.349 2.413 1.349 4.16z" fill="#81a1c1" fill-rule="nonzero"/>
  <circle cx="82.5" cy="304.981" fill="#eceff4" r="32"/>
  <path d="m88.275 318.514-11.108-14.219v-3.946l12.311 15.917h6.616v-22.412h-11.127l-2.405-2.406h15.938v27.066z" fill="#81a1c1" fill-rule="nonzero"/>
  <path d="m76.725 291.448 11.108 14.219v3.945l-12.311-15.916h-6.616v22.412h11.127l2.405 2.406h-15.938v-27.066z" fill="#81a1c1" fill-rule="nonzero"/>
  <circle cx="542.5" cy="208.981" fill="#eceff4" r="32"/>
  <path d="m553.589 198.807c-2.074-.952-4.264-1.631-6.513-2.02-.042-.008-.084.012-.105.05-.281.5-.593 1.153-.811 1.666-2.459-.369-4.907-.369-7.316 0-.218-.525-.541-1.166-.823-1.666-.022-.037-.063-.056-.105-.05-2.249.388-4.439 1.067-6.513 2.02-.018.008-.033.021-.043.037-4.149 6.198-5.285 12.244-4.728 18.214.003.03.018.057.042.075 2.737 2.01 5.388 3.23 7.99 4.039.042.012.087-.002.113-.037.615-.84 1.164-1.727 1.634-2.659.008-.014.011-.03.011-.045 0-.043-.026-.081-.066-.096-.871-.33-1.699-.732-2.496-1.189-.032-.019-.051-.052-.051-.089 0-.032.015-.062.04-.082.168-.125.336-.256.496-.388.029-.024.069-.029.104-.014 5.237 2.391 10.906 2.391 16.082 0 .034-.016.075-.012.104.013.16.132.328.264.497.389.026.02.041.05.041.083 0 .036-.019.069-.05.088-.797.465-1.632.863-2.497 1.188-.039.015-.066.053-.066.095 0 .017.004.033.012.047.48.931 1.029 1.817 1.633 2.658.025.035.071.051.112.038 2.615-.809 5.266-2.029 8.003-4.039.024-.018.04-.044.042-.074.667-6.902-1.117-12.898-4.731-18.214-.009-.017-.024-.03-.042-.038zm-16.396 14.616c-1.576 0-2.876-1.448-2.876-3.226 0-1.777 1.274-3.225 2.876-3.225 1.615 0 2.901 1.46 2.876 3.225 0 1.778-1.274 3.226-2.876 3.226zm10.633 0c-1.576 0-2.875-1.448-2.875-3.226 0-1.777 1.273-3.225 2.875-3.225 1.615 0 2.901 1.46 2.876 3.225 0 1.778-1.261 3.226-2.876 3.226z" fill="#88c0d0" fill-rule="nonzero"/>
  <circle cx="450.5" cy="208.981" fill="#eceff4" r="32"/>
  <path d="m435.343 193.714v30.534h2.197v.733h-3.04v-32h3.04v.733zm9.39 9.68v1.543h.044c.412-.591.911-1.045 1.49-1.365.577-.327 1.248-.487 2-.487.72 0 1.377.143 1.974.419.598.277 1.047.776 1.36 1.477.339-.499.8-.941 1.379-1.323s1.267-.573 2.061-.573c.604 0 1.163.075 1.68.223.518.146.955.381 1.324.706.368.327.652.746.862 1.268.202.523.306 1.151.306 1.89v7.637h-3.132v-6.468c0-.381-.013-.745-.042-1.083-.022-.306-.103-.605-.24-.88-.133-.251-.336-.458-.584-.597-.259-.147-.61-.221-1.047-.221-.443 0-.8.085-1.071.252-.266.163-.486.392-.64.665-.16.287-.265.602-.308.928-.051.347-.078.696-.08 1.047v6.357h-3.133v-6.4c0-.339-.005-.671-.024-1.003-.011-.314-.075-.624-.191-.917-.108-.276-.302-.511-.553-.671-.259-.166-.635-.253-1.139-.253-.148 0-.345.032-.585.099-.24.068-.48.19-.707.376-.228.184-.425.449-.585.793-.16.345-.24.8-.24 1.36v6.621h-3.132v-11.42zm20.924 20.854v-30.534h-2.197v-.733h3.04v32h-3.04v-.733z" fill="#88c0d0" fill-rule="nonzero"/>
  <circle cx="358.5" cy="208.981" fill="#eceff4" r="32"/>
  <path d="m358.5 192.981c-8.777 0-16 7.223-16 16s7.223 16 16 16 16-7.223 16-16-7.223-16-16-16zm6.68 6.325c.917 0 1.667.748 1.667 1.666-.01.907-.759 1.648-1.667 1.648-.879 0-1.615-.696-1.664-1.574l-3.463-.729-1.066 4.996c2.432.093 4.64.843 6.232 1.984.41-.412.973-.655 1.609-.655 1.291 0 2.339 1.048 2.339 2.339 0 .955-.58 1.777-1.347 2.152.038.229.057.461.056.693 0 3.592-4.173 6.494-9.339 6.494-5.165 0-9.338-2.902-9.338-6.494 0-.244.02-.488.057-.712-.842-.373-1.387-1.212-1.385-2.133 0-1.291 1.048-2.339 2.338-2.339.618 0 1.198.262 1.61.654 1.609-1.178 3.837-1.907 6.325-1.983l1.18-5.576c.028-.107.095-.201.187-.263.095-.055.208-.075.317-.056l3.875.823c.267-.573.845-.939 1.477-.935zm-10.347 9.675c-.918 0-1.666.749-1.666 1.667 0 .916.748 1.664 1.666 1.664.916 0 1.664-.748 1.664-1.666 0-.917-.748-1.665-1.665-1.665zm7.334 0c-.916 0-1.664.748-1.664 1.667 0 .916.748 1.664 1.665 1.664s1.665-.748 1.665-1.666c0-.916-.749-1.665-1.666-1.665zm-7.288 5.32c-.115-.001-.226.045-.308.125-.168.17-.168.448 0 .618 1.122 1.122 3.312 1.217 3.948 1.217s2.806-.075 3.948-1.217c.16-.169.176-.431.038-.618-.17-.168-.448-.168-.618 0-.73.711-2.246.974-3.35.974s-2.638-.262-3.349-.974c-.082-.081-.194-.127-.309-.126z" fill="#88c0d0" fill-rule="nonzero"/>
  <circle cx="266.5" cy="208.981" fill="#eceff4" r="32"/>
  <path d="m282.437 199.075c-1.198.527-2.467.875-3.766 1.033 1.367-.822 2.392-2.112 2.884-3.631-1.268.74-2.674 1.279-4.17 1.579-1.24-1.326-2.976-2.079-4.791-2.079-3.599 0-6.56 2.961-6.56 6.56 0 .503.058 1.005.173 1.495-5.454-.257-10.284-2.877-13.52-6.835-.589 1-.895 2.14-.888 3.3 0 2.28 1.16 4.284 2.917 5.462-1.041-.033-2.06-.315-2.971-.822v.08c-.001 3.112 2.211 5.819 5.262 6.436-.963.258-1.97.297-2.95.114.862 2.666 3.337 4.503 6.139 4.556-2.32 1.821-5.187 2.809-8.136 2.806-.52 0-1.039-.03-1.56-.089 3.007 1.926 6.505 2.948 10.076 2.945 12.071 0 18.664-9.994 18.664-18.646 0-.28 0-.56-.02-.84 1.288-.927 2.399-2.078 3.28-3.398z" fill="#88c0d0" fill-rule="nonzero"/>
  <circle cx="174.5" cy="208.981" fill="#eceff4" r="32"/>
  <path d="m189.524 200.065c-.467-3.437-3.49-6.147-7.072-6.672-.606-.089-2.896-.412-8.202-.412h-.04c-5.306 0-6.446.323-7.05.412-3.484.511-6.666 2.945-7.438 6.424-.369 1.713-.409 3.613-.341 5.355.099 2.498.117 4.993.347 7.481.157 1.653.433 3.293.826 4.907.734 2.982 3.703 5.464 6.614 6.476 3.114 1.056 6.465 1.23 9.674.506.354-.081.703-.176 1.048-.284.78-.245 1.694-.52 2.366-1.004.018-.013.029-.034.03-.057v-2.412c0-.021-.01-.041-.026-.055-.018-.013-.04-.018-.062-.013-2.057.487-4.164.731-6.278.727-3.64 0-4.618-1.712-4.899-2.424-.225-.616-.368-1.258-.425-1.911 0-.001-.001-.002-.001-.003 0-.039.032-.071.071-.071.006 0 .012.001.018.002 2.022.484 4.096.728 6.176.728.501 0 1 0 1.5-.013 2.093-.059 4.298-.166 6.357-.563.051-.011.103-.02.147-.032 3.246-.619 6.337-2.56 6.652-7.472.01-.193.04-2.027.04-2.227.002-.682.222-4.84-.032-7.393zm-4.998 12.26h-3.414v-8.291c0-1.745-.734-2.634-2.227-2.634-1.64 0-2.461 1.053-2.461 3.133v4.537h-3.395v-4.538c0-2.08-.823-3.134-2.464-3.134-1.483 0-2.224.891-2.227 2.636v8.291h-3.409v-8.541c0-1.747.449-3.134 1.348-4.16.928-1.027 2.144-1.552 3.653-1.552 1.748 0 3.07.666 3.95 1.997l.85 1.413.851-1.413c.88-1.332 2.2-1.997 3.947-1.997 1.506 0 2.724.526 3.653 1.552.9 1.026 1.349 2.413 1.349 4.16z" fill="#88c0d0" fill-rule="nonzero"/>
  <circle cx="82.5" cy="208.981" fill="#eceff4" r="32"/>
  <path d="m88.275 222.514-11.108-14.219v-3.946l12.311 15.917h6.616v-22.412h-11.127l-2.405-2.406h15.938v27.066z" fill="#88c0d0" fill-rule="nonzero"/>
  <path d="m76.725 195.448 11.108 14.219v3.945l-12.311-15.916h-6.616v22.412h11.127l2.405 2.406h-15.938v-27.066z" fill="#88c0d0" fill-rule="nonzero"/>
  <circle cx="544.5" cy="112.981" fill="#eceff4" r="32"/>
  <path d="m555.589 102.807c-2.074-.952-4.264-1.631-6.513-2.02-.042-.008-.084.012-.105.05-.281.5-.593 1.153-.811 1.666-2.459-.369-4.907-.369-7.316 0-.218-.525-.541-1.166-.823-1.666-.022-.037-.063-.056-.105-.05-2.249.388-4.439 1.067-6.513 2.02-.018.008-.033.021-.043.037-4.149 6.198-5.285 12.244-4.728 18.214.003.03.018.057.042.075 2.737 2.01 5.388 3.23 7.99 4.039.042.012.087-.002.113-.037.615-.84 1.164-1.727 1.634-2.659.008-.014.011-.03.011-.045 0-.043-.026-.081-.066-.096-.871-.33-1.699-.732-2.496-1.189-.032-.019-.051-.052-.051-.089 0-.032.015-.062.04-.082.168-.125.336-.256.496-.388.029-.024.069-.029.104-.014 5.237 2.391 10.906 2.391 16.082 0 .034-.016.075-.012.104.013.16.132.328.264.497.389.026.02.041.05.041.083 0 .036-.019.069-.05.088-.797.465-1.632.863-2.497 1.188-.039.015-.066.053-.066.095 0 .017.004.033.012.047.48.931 1.029 1.817 1.633 2.658.025.035.071.051.112.038 2.615-.809 5.266-2.029 8.003-4.039.024-.018.04-.044.042-.074.667-6.902-1.117-12.898-4.731-18.214-.009-.017-.024-.03-.042-.038zm-16.396 14.616c-1.576 0-2.876-1.448-2.876-3.226 0-1.777 1.274-3.225 2.876-3.225 1.615 0 2.901 1.46 2.876 3.225 0 1.778-1.274 3.226-2.876 3.226zm10.633 0c-1.576 0-2.875-1.448-2.875-3.226 0-1.777 1.273-3.225 2.875-3.225 1.615 0 2.901 1.46 2.876 3.225 0 1.778-1.261 3.226-2.876 3.226z" fill="#4c566a" fill-rule="nonzero"/>
  <circle cx="452.5" cy="112.981" fill="#eceff4" r="32"/>
  <path d="m437.343 97.714v30.534h2.197v.733h-3.04v-32h3.04v.733zm9.39 9.68v1.543h.044c.412-.591.911-1.045 1.49-1.365.577-.327 1.248-.487 2-.487.72 0 1.377.143 1.974.419.598.277 1.047.776 1.36 1.477.339-.499.8-.941 1.379-1.323s1.267-.573 2.061-.573c.604 0 1.163.075 1.68.223.518.146.955.381 1.324.706.368.327.652.746.862 1.268.202.523.306 1.151.306 1.89v7.637h-3.132v-6.468c0-.381-.013-.745-.042-1.083-.022-.306-.103-.605-.24-.88-.133-.251-.336-.458-.584-.597-.259-.147-.61-.221-1.047-.221-.443 0-.8.085-1.071.252-.266.163-.486.392-.64.665-.16.287-.265.602-.308.928-.051.347-.078.696-.08 1.047v6.357h-3.133v-6.4c0-.339-.005-.671-.024-1.003-.011-.314-.075-.624-.191-.917-.108-.276-.302-.511-.553-.671-.259-.166-.635-.253-1.139-.253-.148 0-.345.032-.585.099-.24.068-.48.19-.707.376-.228.184-.425.449-.585.793-.16.345-.24.8-.24 1.36v6.621h-3.132v-11.42zm20.924 20.854v-30.534h-2.197v-.733h3.04v32h-3.04v-.733z" fill="#4c566a" fill-rule="nonzero"/>
  <circle cx="360.5" cy="112.981" fill="#eceff4" r="32"/>
  <path d="m360.5 96.981c-8.777 0-16 7.223-16 16s7.223 16 16 16 16-7.223 16-16-7.223-16-16-16zm6.68 6.325c.917 0 1.667.748 1.667 1.666-.01.907-.759 1.648-1.667 1.648-.879 0-1.615-.696-1.664-1.574l-3.463-.729-1.066 4.996c2.432.093 4.64.843 6.232 1.984.41-.412.973-.655 1.609-.655 1.291 0 2.339 1.048 2.339 2.339 0 .955-.58 1.777-1.347 2.152.038.229.057.461.056.693 0 3.592-4.173 6.494-9.339 6.494-5.165 0-9.338-2.902-9.338-6.494 0-.244.02-.488.057-.712-.842-.373-1.387-1.212-1.385-2.133 0-1.291 1.048-2.339 2.338-2.339.618 0 1.198.262 1.61.654 1.609-1.178 3.837-1.907 6.325-1.983l1.18-5.576c.028-.107.095-.201.187-.263.095-.055.208-.075.317-.056l3.875.823c.267-.573.845-.939 1.477-.935zm-10.347 9.675c-.918 0-1.666.749-1.666 1.667 0 .916.748 1.664 1.666 1.664.916 0 1.664-.748 1.664-1.666 0-.917-.748-1.665-1.665-1.665zm7.334 0c-.916 0-1.664.748-1.664 1.667 0 .916.748 1.664 1.665 1.664s1.665-.748 1.665-1.666c0-.916-.749-1.665-1.666-1.665zm-7.288 5.32c-.115-.001-.226.045-.308.125-.168.17-.168.448 0 .618 1.122 1.122 3.312 1.217 3.948 1.217s2.806-.075 3.948-1.217c.16-.169.176-.431.038-.618-.17-.168-.448-.168-.618 0-.73.711-2.246.974-3.35.974s-2.638-.262-3.349-.974c-.082-.081-.194-.127-.309-.126z" fill="#4c566a" fill-rule="nonzero"/>
  <circle cx="268.5" cy="112.981" fill="#eceff4" r="32"/>
  <path d="m284.437 103.075c-1.198.527-2.467.875-3.766 1.033 1.367-.822 2.392-2.112 2.884-3.631-1.268.74-2.674 1.279-4.17 1.579-1.24-1.326-2.976-2.079-4.791-2.079-3.599 0-6.56 2.961-6.56 6.56 0 .503.058 1.005.173 1.495-5.454-.257-10.284-2.877-13.52-6.835-.589 1-.895 2.14-.888 3.3 0 2.28 1.16 4.284 2.917 5.462-1.041-.033-2.06-.315-2.971-.822v.08c-.001 3.112 2.211 5.819 5.262 6.436-.963.258-1.97.297-2.95.114.862 2.666 3.337 4.503 6.139 4.556-2.32 1.821-5.187 2.809-8.136 2.806-.52 0-1.039-.03-1.56-.089 3.007 1.926 6.505 2.948 10.076 2.945 12.071 0 18.664-9.994 18.664-18.646 0-.28 0-.56-.02-.84 1.288-.927 2.399-2.078 3.28-3.398z" fill="#4c566a" fill-rule="nonzero"/>
  <circle cx="176.5" cy="112.981" fill="#eceff4" r="32"/>
  <path d="m191.524 104.065c-.467-3.437-3.49-6.147-7.072-6.672-.606-.089-2.896-.412-8.202-.412h-.04c-5.306 0-6.446.323-7.05.412-3.484.511-6.666 2.945-7.438 6.424-.369 1.713-.409 3.613-.341 5.355.099 2.498.117 4.993.347 7.481.157 1.653.433 3.293.826 4.907.734 2.982 3.703 5.464 6.614 6.476 3.114 1.056 6.465 1.23 9.674.506.354-.081.703-.176 1.048-.284.78-.245 1.694-.52 2.366-1.004.018-.013.029-.034.03-.057v-2.412c0-.021-.01-.041-.026-.055-.018-.013-.04-.018-.062-.013-2.057.487-4.164.731-6.278.727-3.64 0-4.618-1.712-4.899-2.424-.225-.616-.368-1.258-.425-1.911 0-.001-.001-.002-.001-.003 0-.039.032-.071.071-.071.006 0 .012.001.018.002 2.022.484 4.096.728 6.176.728.501 0 1 0 1.5-.013 2.093-.059 4.298-.166 6.357-.563.051-.011.103-.02.147-.032 3.246-.619 6.337-2.56 6.652-7.472.01-.193.04-2.027.04-2.227.002-.682.222-4.84-.032-7.393zm-4.998 12.26h-3.414v-8.291c0-1.745-.734-2.634-2.227-2.634-1.64 0-2.461 1.053-2.461 3.133v4.537h-3.395v-4.538c0-2.08-.823-3.134-2.464-3.134-1.483 0-2.224.891-2.227 2.636v8.291h-3.409v-8.541c0-1.747.449-3.134 1.348-4.16.928-1.027 2.144-1.552 3.653-1.552 1.748 0 3.07.666 3.95 1.997l.85 1.413.851-1.413c.88-1.332 2.2-1.997 3.947-1.997 1.506 0 2.724.526 3.653 1.552.9 1.026 1.349 2.413 1.349 4.16z" fill="#4c566a" fill-rule="nonzero"/>
  <circle cx="84.5" cy="112.981" fill="#eceff4" r="32"/>
  <g fill="#4c566a" fill-rule="nonzero">
    <path d="m90.275 126.514-11.108-14.219v-3.946l12.311 15.917h6.616v-22.412h-11.127l-2.405-2.406h15.938v27.066z"/>
    <path d="m78.725 99.448 11.108 14.219v3.945l-12.311-15.916h-6.616v22.412h11.127l2.405 2.406h-15.938v-27.066z"/>
  </g>
</svg>
