<svg clip-rule="evenodd" fill-rule="evenodd" stroke-linejoin="round" stroke-miterlimit="2" viewBox="0 0 64 64" xmlns="http://www.w3.org/2000/svg">
  <circle cx="32" cy="32" fill="#eceff4" r="32"/>
  <path d="m47.024 23.084c-.467-3.437-3.49-6.147-7.072-6.672-.606-.089-2.896-.412-8.202-.412h-.04c-5.306 0-6.446.323-7.05.412-3.484.511-6.666 2.945-7.438 6.424-.369 1.713-.409 3.613-.341 5.355.099 2.498.117 4.993.347 7.481.157 1.653.433 3.293.826 4.907.734 2.982 3.703 5.464 6.614 6.476 3.114 1.056 6.465 1.23 9.674.506.354-.081.703-.176 1.048-.284.78-.245 1.694-.52 2.366-1.004.018-.013.029-.034.03-.057v-2.412c0-.021-.01-.041-.026-.055-.018-.013-.04-.018-.062-.013-2.057.487-4.164.731-6.278.727-3.64 0-4.618-1.712-4.899-2.424-.225-.616-.368-1.258-.425-1.911 0-.001-.001-.002-.001-.003 0-.039.032-.071.071-.071.006 0 .012.001.018.002 2.022.484 4.096.728 6.176.728.501 0 1 0 1.5-.013 2.093-.059 4.298-.166 6.357-.563.051-.011.103-.02.147-.032 3.246-.619 6.337-2.56 6.652-7.472.01-.193.04-2.027.04-2.227.002-.682.222-4.84-.032-7.393zm-4.998 12.26h-3.414v-8.291c0-1.745-.734-2.634-2.227-2.634-1.64 0-2.461 1.053-2.461 3.133v4.537h-3.395v-4.538c0-2.08-.823-3.134-2.464-3.134-1.483 0-2.224.891-2.227 2.636v8.291h-3.409v-8.541c0-1.747.449-3.134 1.348-4.16.928-1.027 2.144-1.552 3.653-1.552 1.748 0 3.07.666 3.95 1.997l.85 1.413.851-1.413c.88-1.332 2.2-1.997 3.947-1.997 1.506 0 2.724.526 3.653 1.552.9 1.026 1.349 2.413 1.349 4.16z" fill="#88c0d0" fill-rule="nonzero"/>
</svg>
