<svg viewBox="0 0 1200 630" xmlns="http://www.w3.org/2000/svg">
  <path d="m0 0h1200v630h-1200z" fill="#eceff4"/>
  <g fill="#88c0d0">
    <path d="m742.064 412.182c-13.33 0-23.428 5.112-30.294 15.331-6.869 10.22-10.302 22.144-10.302 35.771 0 14.311 3.5 26.338 10.506 36.079 7.003 9.744 17.034 14.615 30.09 14.615 12.919 0 23.222-4.906 30.906-14.717 7.682-9.811 11.527-21.806 11.527-35.977 0-16.079-3.81-28.615-11.424-37.61-7.618-8.995-17.952-13.492-31.009-13.492m42.433-42.433h4.08v145.657h-4.08v-29.376c-2.994 9.582-8.196 17.317-15.607 23.202-7.414 5.884-16.354 8.826-26.826 8.826-13.601 0-24.448-5.11-32.538-15.329-8.093-10.219-12.138-23.367-12.138-39.445 0-15.53 3.979-28.612 11.935-39.239 7.955-10.627 18.869-15.943 32.741-15.943 10.879 0 19.957 2.855 27.234 8.567 7.274 5.712 12.205 13.464 14.79 23.256z"/>
    <path d="m654.144 515.405h-4.079v-104.856h4.079v25.908c2.312-8.568 6.834-15.434 13.566-20.604 6.732-5.167 16.081-7.752 28.05-7.752v4.08c-13.601 0-23.938 4.182-31.008 12.546-7.073 8.364-10.608 18.803-10.608 31.314z"/>
    <path d="m586.008 513.978c13.464 0 24.001-4.937 31.621-14.819 7.614-9.881 11.423-21.908 11.423-36.079 0-13.898-3.844-25.857-11.526-35.873-7.685-10.014-18.191-15.025-31.518-15.025-13.464 0-24.04 4.976-31.722 14.924-7.685 9.948-11.526 21.939-11.526 35.974 0 14.038 3.841 26.029 11.526 35.977 7.682 9.948 18.258 14.921 31.722 14.921m0-105.876c14.688 0 26.214 5.349 34.578 16.046s12.547 23.673 12.547 38.932c0 15.261-4.218 28.238-12.649 38.935-8.434 10.697-19.992 16.043-34.68 16.043s-26.214-5.313-34.578-15.941c-8.364-10.627-12.546-23.642-12.546-39.037 0-15.259 4.182-28.235 12.546-38.932s19.957-16.046 34.782-16.046"/>
    <path d="m411.793 369.749h6.12l99.552 140.55.408-140.55h4.08v145.656l-5.954-.118-99.718-140.785-.408 140.903h-4.08z"/>
  </g>
  <g fill="#4c566a">
    <path d="m651.679 349.753-97.48-124.773v-34.622l108.036 139.666h58.056v-196.664h-97.637l-21.113-21.111h139.862v237.504z"/>
    <path d="m550.32 112.249 97.479 124.77v34.621l-108.034-139.664h-58.057v196.664h97.64l21.109 21.111h-139.86v-237.502z"/>
  </g>
</svg>
