<svg clip-rule="evenodd" fill-rule="evenodd" stroke-linejoin="round" stroke-miterlimit="2" viewBox="0 0 256 166" xmlns="http://www.w3.org/2000/svg">
  <path d="m239.484 66.065h-62.398c-9.119 0-16.517-7.395-16.517-16.516s7.398-16.517 16.517-16.517h34.871c9.118 0 16.516-7.395 16.516-16.516s-7.398-16.516-16.516-16.516h-132.126c-9.124 0-16.516 7.395-16.516 16.516s7.392 16.516 16.516 16.516h43.352c9.119 0 16.517 7.396 16.517 16.517s-7.398 16.516-16.517 16.516h-70.879c-9.124 0-16.516 7.395-16.516 16.516 0 9.12 7.392 16.516 16.516 16.516h19.269c9.118 0 16.516 7.395 16.516 16.519 0 9.119-7.398 16.516-16.516 16.516h-55.057c-9.118 0-16.516 7.393-16.516 16.517 0 9.118 7.398 16.516 16.516 16.516h132.13c9.117 0 16.515-7.398 16.515-16.516 0-9.124-7.398-16.517-16.515-16.517h-19.274c-9.119 0-16.517-7.397-16.517-16.516 0-9.124 7.398-16.519 16.517-16.519h110.112c9.118 0 16.516-7.395 16.516-16.516s-7.398-16.516-16.516-16.516z" fill="#4c566a" fill-rule="nonzero"/>
</svg>
