<svg clip-rule="evenodd" fill-rule="evenodd" stroke-linejoin="round" stroke-miterlimit="2" viewBox="0 0 256 131" xmlns="http://www.w3.org/2000/svg">
  <path d="m242.929 51.95h-20.72c-7.208-.013-13.051-5.856-13.051-13.073 0-6.208 4.34-11.404 10.149-12.732h21.034c7.222 0 13.072-5.851 13.072-13.073 0-7.217-5.85-13.072-13.072-13.072h-139.438c-7.222 0-13.073 5.855-13.073 13.072 0 7.222 5.851 13.073 13.073 13.073h76.859c5.808 1.332 10.153 6.523 10.153 12.732 0 7.222-5.856 13.073-13.073 13.073h-36.492c-7.222 0-13.073 5.855-13.073 13.072 0 7.222 5.852 13.072 13.073 13.072h5.446c-.604 0-1.191.056-1.774.137 6.378.864 11.306 6.323 11.306 12.936 0 6.621-4.924 12.072-11.298 12.94.579.077 1.166.132 1.766.132h-130.724c-7.219 0-13.072 5.856-13.072 13.073 0 7.221 5.853 13.072 13.072 13.072h169.942c7.217 0 13.072-5.851 13.072-13.072 0-7.217-5.855-13.073-13.072-13.073h.272c-7.222 0-13.073-5.851-13.073-13.072 0-7.217 5.851-13.073 13.073-13.073h59.643c7.217 0 13.071-5.85 13.071-13.072 0-7.217-5.854-13.072-13.071-13.072z" fill="#4c566a" fill-rule="nonzero"/>
</svg>
