<svg clip-rule="evenodd" fill-rule="evenodd" stroke-linejoin="round" stroke-miterlimit="2" viewBox="0 0 256 192" xmlns="http://www.w3.org/2000/svg">
  <path
    d="m255.428 184.742-29.727-56.274c-.417-.733-1.199-1.188-2.042-1.188-1.289 0-2.35 1.061-2.35 2.35 0 .357.081.709.237 1.03l28.769 54.456 1.115 2.11h-104.418l-.201-.997c-1.489-3.086-29.196-55.736-43.838-83.519l-.356-.676.361-.674 6.513-12.157 1.056-1.971 1.356 1.778 6.819 8.943c.922 1.222 2.371 1.937 3.902 1.927 1.388 0 2.713-.595 3.634-1.632l16.425-18.38 1.102-1.232 1.068 1.261 31.925 37.688c.918 1.087 2.268 1.719 3.691 1.728 1.438.012 2.81-.61 3.749-1.7l17.398-20.456 1.375-1.618.991 1.879 7.074 13.39c.59 1.117 1.982 1.568 3.116 1.009l.059-.031c.555-.292.962-.784 1.147-1.384.184-.593.124-1.236-.169-1.783l-56-106.011c-.84-1.601-2.505-2.607-4.312-2.608h-.019c-1.812 0-3.46.99-4.31 2.58l-39.762 74.219-2.678 4.999-6.882 12.848-1.277 2.382-1.263-2.39-20.465-38.736c-.84-1.6-2.504-2.606-4.311-2.607-.068 0-.117.003-.166.006l-.039.003h-.121l-.044.007-.128.013c-.063.004-.125.01-.187.017l-.18.032-.115.019c-1.431.285-2.661 1.199-3.348 2.486l-13.86 25.873-23.311 43.514-31.847 59.454c-.818 1.513-.774 3.352.116 4.824.877 1.48 2.478 2.387 4.198 2.379h246.205c1.716.008 3.314-.894 4.193-2.368.889-1.466.939-3.299.132-4.812zm-142.006-102.875 1.148-2.141 39.038-72.866 1.277-2.381 1.263 2.39 44.026 83.34.454.862-.63.742-18.385 21.621-1.097 1.29-1.096-1.291-31.903-37.662c-.913-1.081-2.253-1.712-3.667-1.728l-.091-.001c-1.368 0-2.697.594-3.626 1.631l-16.371 18.322-1.161 1.298-1.056-1.385-7.999-10.489-.561-.736zm26.503 105.356h-135.355l1.135-2.119 28.671-53.518.836-1.559 1.356 1.136 11.056 9.26c.88.743 1.995 1.15 3.144 1.15 1.395 0 2.723-.598 3.643-1.641l12.683-14.215 1.009-1.131 1.077 1.067 8.168 8.103c.423.406 1 .637 1.61.637.645 0 1.247-.257 1.694-.722.879-.905.874-2.366-.01-3.266l-9.08-9.009c-.921-.911-2.167-1.422-3.463-1.418l-.137.003c-1.34.046-2.605.636-3.5 1.634l-12.746 14.289-.928 1.039-1.068-.894-11.342-9.5-.898-.75.552-1.032 34.615-64.613 1.277-2.381 1.263 2.39 44.668 84.553.517.979-.814.749-10.784 9.939-1.011.932-.977-.97-9.865-9.788c-.433-.408-1.007-.634-1.602-.63-.649 0-1.251.259-1.699.726-.87.906-.864 2.359.012 3.259l10.688 10.604c.921.921 2.144 1.424 3.446 1.424 1.229 0 2.413-.465 3.315-1.3l10.187-9.386 1.373-1.266.873 1.651 17.686 33.475 1.115 2.11h-2.39z"
    fill="#4c566a"
    fill-rule="nonzero"
  />
</svg>
