<svg clip-rule="evenodd" fill-rule="evenodd" stroke-linejoin="round" stroke-miterlimit="2" viewBox="0 0 256 256" xmlns="http://www.w3.org/2000/svg">
  <path d="m253.3 124.4-67.268-19.62 33.46-63.203c.286-.541.436-1.143.436-1.755 0-2.057-1.693-3.75-3.75-3.75-.612 0-1.214.15-1.755.436l-63.203 33.46-19.62-67.268c-.465-1.595-1.938-2.7-3.6-2.7s-3.135 1.105-3.6 2.7l-19.62 67.268-63.203-33.459c-.54-.286-1.142-.435-1.753-.435-2.057 0-3.751 1.693-3.751 3.751 0 .611.15 1.212.435 1.753l33.461 63.203-67.269 19.619c-1.595.465-2.7 1.938-2.7 3.6s1.105 3.135 2.7 3.6l67.269 19.62-33.46 63.203c-.287.541-.437 1.143-.437 1.755 0 2.057 1.693 3.75 3.75 3.75.612 0 1.215-.15 1.756-.436l63.203-33.461 19.619 67.269c.465 1.595 1.938 2.7 3.6 2.7s3.135-1.105 3.6-2.7l19.62-67.269 63.203 33.461c1.451.769 3.246.499 4.407-.662 1.16-1.161 1.43-2.956.662-4.407l-33.46-63.203 67.268-19.62c1.595-.465 2.7-1.938 2.7-3.6s-1.105-3.135-2.7-3.6zm-96.162 27.434-20.085-20.084h88.947zm-25.388 74.165v-88.946l20.085 20.084zm-27.584-68.861 20.084-20.085v88.947zm-74.166-25.388h21.848c2.057 0 3.75-1.693 3.75-3.75s-1.693-3.75-3.75-3.75h-21.848l68.862-20.085 20.085 20.085h-51.067c-2.058 0-3.75 1.693-3.75 3.75s1.692 3.75 3.75 3.75h51.067l-20.084 20.084zm94.25-101.75v88.946l-20.084-20.084zm27.585 68.862-20.085 20.085v-88.947zm74.165 25.388h-88.947l20.085-20.085zm-30.108-69.445-29.127 29.127c-.703.703-1.098 1.657-1.098 2.652 0 2.057 1.692 3.749 3.75 3.749.994.002 1.949-.394 2.651-1.098l29.127-29.127-22.515 42.528-19.599-5.717-5.717-19.599zm-97.775 38.008-38.008-38.008 42.527 22.514zm-43.311-32.704 38.008 38.008-15.494 4.519zm5.303 141.085 28.375-28.375c1.454-1.454 1.454-3.848 0-5.303-1.455-1.454-3.849-1.454-5.303 0l-28.375 28.375 22.514-42.527 19.6 5.716 5.716 19.6zm97.774-38.008 38.009 38.009-42.528-22.515zm43.312 32.705-38.009-38.008 15.494-4.519z" fill="#4c566a" fill-rule="nonzero"/>
</svg>
