<svg clip-rule="evenodd" fill-rule="evenodd" stroke-linejoin="round" stroke-miterlimit="2" viewBox="0 0 256 168" xmlns="http://www.w3.org/2000/svg">
  <g fill="#4c566a" fill-rule="nonzero">
    <path
      d="m212.17 0c-19.748 0-35.815 16.066-35.815 35.815 0 19.748 16.067 35.814 35.815 35.814 15.328 0 27.798-12.47 27.798-27.798 0-15.329-12.47-27.799-27.798-27.799-10.908 0-19.782 8.874-19.782 19.782s8.874 19.782 19.782 19.782c6.488 0 11.766-5.278 11.766-11.766s-5.279-11.766-11.766-11.766c-2.058 0-3.75 1.693-3.75 3.75s1.692 3.75 3.75 3.75c2.352 0 4.266 1.914 4.266 4.266s-1.914 4.266-4.266 4.266c-6.773 0-12.282-5.51-12.282-12.282s5.51-12.282 12.282-12.282c11.192 0 20.298 9.106 20.298 20.299 0 11.192-9.105 20.298-20.298 20.298-15.613 0-28.315-12.702-28.315-28.314 0-15.613 12.702-28.315 28.315-28.315 20.032 0 36.33 16.298 36.33 36.331 0 20.032-16.298 36.33-36.33 36.33h-16.033c-2.058 0-3.75 1.693-3.75 3.75s1.692 3.75 3.75 3.75h16.033c24.168 0 43.83-19.662 43.83-43.83 0-24.169-19.662-43.831-43.83-43.831zm-208.42 87.661h176.354c2.057 0 3.75-1.693 3.75-3.75s-1.693-3.75-3.75-3.75h-176.354c-2.057 0-3.75 1.693-3.75 3.75s1.693 3.75 3.75 3.75zm176.355 8.532h-176.355c-2.057 0-3.75 1.693-3.75 3.75s1.693 3.75 3.75 3.75h176.355c15.613 0 28.315 12.702 28.315 28.315s-12.702 28.314-28.315 28.314c-11.192 0-20.298-9.105-20.298-20.298s9.106-20.299 20.299-20.299c6.772 0 12.282 5.51 12.282 12.282s-5.51 12.282-12.282 12.282c-2.353 0-4.266-1.913-4.266-4.266 0-2.352 1.914-4.266 4.266-4.266 2.057 0 3.75-1.693 3.75-3.75s-1.693-3.75-3.75-3.75c-6.488 0-11.766 5.279-11.766 11.766 0 6.488 5.278 11.766 11.766 11.766 10.908 0 19.782-8.874 19.782-19.782 0-10.907-8.875-19.782-19.783-19.782-15.328 0-27.798 12.471-27.798 27.799s12.47 27.798 27.799 27.798c19.748 0 35.814-16.066 35.814-35.815 0-19.747-16.067-35.814-35.815-35.814zm-108.218-24.564h100.202c2.057 0 3.75-1.693 3.75-3.75s-1.693-3.75-3.75-3.75h-100.202c-2.057 0-3.75 1.693-3.75 3.75s1.693 3.75 3.75 3.75zm52.363-19.782c0 2.057 1.693 3.75 3.75 3.75h36.073c2.057 0 3.75-1.693 3.75-3.75 0-2.058-1.693-3.75-3.75-3.75h-36.073c-2.057 0-3.75 1.692-3.75 3.75z"
    />
    <path
      d="m144.032 112.226h-40.08c-2.058 0-3.75 1.692-3.75 3.75 0 2.057 1.692 3.75 3.75 3.75h40.08c2.057 0 3.75-1.693 3.75-3.75 0-2.058-1.693-3.75-3.75-3.75zm-4.008 16.032h-12.024c-2.057 0-3.75 1.692-3.75 3.75 0 2.057 1.693 3.75 3.75 3.75h12.024c2.057 0 3.75-1.693 3.75-3.75 0-2.058-1.693-3.75-3.75-3.75zm-22.691-101.816c.732.732 1.692 1.098 2.651 1.098.96 0 1.92-.366 2.652-1.098l3.36-3.36 3.361 3.36c.732.732 1.692 1.098 2.651 1.098.96 0 1.92-.366 2.652-1.098 1.454-1.455 1.454-3.848 0-5.303l-3.361-3.36 3.361-3.361c1.454-1.455 1.454-3.848 0-5.303-1.455-1.454-3.849-1.454-5.303 0l-3.361 3.361-3.36-3.361c-1.455-1.454-3.849-1.454-5.303 0-1.455 1.455-1.455 3.848 0 5.303l3.36 3.361-3.36 3.36c-.704.703-1.099 1.657-1.099 2.652 0 .994.395 1.948 1.099 2.651zm-33.421 101.816h-4.266v-4.266c0-2.058-1.693-3.75-3.75-3.75-2.058 0-3.75 1.692-3.75 3.75v4.266h-4.266c-2.058 0-3.75 1.692-3.75 3.75 0 2.057 1.692 3.75 3.75 3.75h4.266v4.266c0 2.071 1.679 3.75 3.75 3.75s3.75-1.679 3.75-3.75v-4.266h4.266c2.057 0 3.75-1.693 3.75-3.75 0-2.058-1.693-3.75-3.75-3.75zm4.008-80.677h.258v.258c0 2.071 1.679 3.75 3.75 3.75s3.75-1.679 3.75-3.75v-.258h.258c2.057 0 3.75-1.693 3.75-3.75 0-2.058-1.693-3.75-3.75-3.75h-.258v-.259c0-2.057-1.693-3.75-3.75-3.75-2.058 0-3.75 1.693-3.75 3.75v.259h-.258c-2.058 0-3.75 1.692-3.75 3.75 0 2.057 1.692 3.75 3.75 3.75z"
    />
  </g>
</svg>
